<svg xmlns="http://www.w3.org/2000/svg" viewBox="0 0 658.12 596.42"><defs><style>.cls-1{fill:#fff;}.cls-2{opacity:0.89;}.cls-3{fill:#00ffc4;}</style></defs><title>default_1</title><g id="Layer_2" data-name="Layer 2"><g id="Layer_1-2" data-name="Layer 1"><rect class="cls-1" width="658.12" height="596.42"/><g class="cls-2"><path class="cls-3" d="M199.57,235.28a10.34,10.34,0,0,0,4.28-.9,26.54,26.54,0,0,0,4-2.19q4.17-2.88,8.32-5.8c2.75-1.94,5.53-3.92,8.31-5.94q2.81-2,5.58-4.07c1.85-1.36,3.68-2.74,5.51-4.14,2.11-1.63,4.18-3.26,6.19-4.89a23.85,23.85,0,0,0,5.11-5.69c.1-1-.1-1.61-.61-1.94a3.62,3.62,0,0,0-2.19-.44,24.83,24.83,0,0,0-6,.94,50.09,50.09,0,0,0-6.26,2.23q-8.15,3.47-16.1,7.35t-16,8.42a248.26,248.26,0,0,0-25.56,16.35q-4,2.94-7.7,6.08a96.9,96.9,0,0,0-7.13,6.59c-.82.86-1.62,1.72-2.41,2.59a26.38,26.38,0,0,0-2.2,2.74,18,18,0,0,0-3.16,6.55,6.39,6.39,0,0,0,1,5.32,12,12,0,0,0,3.78,3.5,13.42,13.42,0,0,0,5.58,1.62,58.72,58.72,0,0,0,7.85,0,70.94,70.94,0,0,0,8.28-1q1.59-.29,4.68-1.08c2.06-.53,4.48-1.18,7.24-1.94s5.74-1.64,9-2.6l9.79-2.91,9.83-2.95c3.24-1,6.24-1.91,9-2.78l7.27-2.26q3.13-1,4.79-1.55c1.82-.63,3.66-1.21,5.51-1.77l5.44-1.62q.42.79,0,1.23a3.56,3.56,0,0,1-1.19.79q-3,1.29-7.41,3t-9.9,3.6q-5.45,1.91-11.56,3.88t-12.38,3.89q-6.27,1.9-12.35,3.64t-11.41,3c-3.56.86-6.77,1.55-9.65,2.09a56.74,56.74,0,0,1-7.06,1,34.63,34.63,0,0,1-10.58-.81,14.42,14.42,0,0,1-7.56-4.59,9.66,9.66,0,0,1-2-9.18q1.33-5.37,7-11.42,3.88-4.09,8.06-7.74a96.73,96.73,0,0,1,8.93-6.87q4.68-3.24,9.25-6.44t9.4-6q10.88-6.1,21.64-11.62t21.85-9.9a43.13,43.13,0,0,1,4.68-1.62A38.33,38.33,0,0,1,243,196a10.52,10.52,0,0,1,5.22.4c1.41.55,2.17,1.76,2.26,3.63a6.16,6.16,0,0,1-.32,2.34,6.5,6.5,0,0,1-1.62,2.42c-.82.86-1.65,1.71-2.48,2.55a34.6,34.6,0,0,1-2.7,2.41q-8.29,6.92-16.89,13.25t-17.6,12.31a40.58,40.58,0,0,1-3.64,2.16q-1.91,1-3.78,1.8a9.41,9.41,0,0,1-3.53.8,2.8,2.8,0,0,1-2.44-1.23q-1.59-2.37.93-6a26,26,0,0,1,2.85-3.46,34.61,34.61,0,0,1,3.49-3.1q3.67-2.81,7.23-5.61t7.17-5.62a6.9,6.9,0,0,1,2.23-1.22A2.29,2.29,0,0,1,221,214a1,1,0,0,1,.64,1.16,2.51,2.51,0,0,1-1.08,1.51c-1.72,1.34-3.47,2.66-5.22,4s-3.51,2.62-5.29,4c-1.54,1.2-3,2.42-4.46,3.67a39.31,39.31,0,0,0-4,4,8.4,8.4,0,0,0-1,1.33C200.35,234.12,200,234.66,199.57,235.28Z"/><path class="cls-3" d="M249.18,245.44a2.09,2.09,0,0,1,1.36-.36,10.5,10.5,0,0,1,1.44.07q3.9.65,7.56,1.4a45.44,45.44,0,0,0,7.78.9,33,33,0,0,0,5.83.08q3.11-.22,6.12-.51a5.46,5.46,0,0,1,1.51.22c.24.19.27.48.08.86a1.6,1.6,0,0,1-.36.51,2.62,2.62,0,0,1-.58.43l-1.19.46a3,3,0,0,1-1.11.26c-1.83.28-3.59.49-5.3.61l-5.43.39q-2.59.15-5,.18a29.63,29.63,0,0,1-4.61-.25c-.29.53-.52,1-.68,1.3l-.47.93c-.15.29-.3.59-.47.9a9.57,9.57,0,0,1-.68,1.05,23.35,23.35,0,0,1-5,5.69,20.89,20.89,0,0,1-6.84,3.6,8.23,8.23,0,0,1-3.53.43,3.16,3.16,0,0,1-2.13-1.12,3.25,3.25,0,0,1-.5-2.41,8.53,8.53,0,0,1,1.33-3.38c.48-.72,1-1.44,1.51-2.16a18.31,18.31,0,0,1,1.8-2.09c1.2-1.3,2.43-2.59,3.68-3.89S247.78,246.88,249.18,245.44Zm-7.71,14.83a6.6,6.6,0,0,1,1.51-.11,2.91,2.91,0,0,0,1.37-.25,14.31,14.31,0,0,0,4.43-2.77,20.15,20.15,0,0,0,3.28-3.93,6.33,6.33,0,0,0,.82-1.65,1,1,0,0,0-.32-1.23,1.59,1.59,0,0,0-1.55-.07,7.68,7.68,0,0,0-1.83,1.08,30.59,30.59,0,0,0-4.47,4A20.45,20.45,0,0,0,241.47,260.27Z"/><path class="cls-3" d="M290.5,255.52a32,32,0,0,0,5.51-2.85c1.66-1.08,3.33-2.14,5-3.2,1.05-.62,2.08-1.26,3.09-1.91s2-1.26,3.1-1.84a12.06,12.06,0,0,1,2.3-1,8.33,8.33,0,0,1,2-.4,2.16,2.16,0,0,1,1.33.29,1,1,0,0,1,.4,1,6.36,6.36,0,0,1-.33,1.3,10.57,10.57,0,0,0-.39,1.36c-.34,1.35-.14,2.33.61,3a6,6,0,0,0,3.49,1.08,28.07,28.07,0,0,0,6.44-.36q3.57-.58,7.24-1.23,3.89-.72,7.88-1.65c2.67-.63,5.32-1.2,8-1.73.24-.05.54-.12.9-.22a7,7,0,0,1,1-.18,4.24,4.24,0,0,1,.72,0c.17,0,.23.11.18.25a6.24,6.24,0,0,1-2.45,1.88c-.86.33-1.63.6-2.3.79q-5.34,1.51-10.44,2.77t-9.87,2c-.77.1-1.51.21-2.23.32s-1.46.23-2.23.33c-3.84.57-6.83.53-9-.15a5.1,5.1,0,0,1-3.78-4.17,1.24,1.24,0,0,0-.21-.54,1.39,1.39,0,0,0-.43-.33,6.65,6.65,0,0,0-2.2.9c-1,.56-2,1.19-3.1,1.91s-2.11,1.41-3.09,2.05l-2.13,1.41a32.9,32.9,0,0,1-4.42,2.16,16.93,16.93,0,0,1-3.6,1,4.52,4.52,0,0,1-2.49-.22,2,2,0,0,1-1.15-1.51,5.6,5.6,0,0,1,.29-2.45c.29-.91.53-1.8.72-2.66.05-.15.09-.33.14-.54a2.6,2.6,0,0,0,.07-.58.58.58,0,0,0-.18-.43.67.67,0,0,0-.61-.11,3.55,3.55,0,0,0-1.55.86c-.74.58-1.56,1.28-2.44,2.09s-1.8,1.68-2.74,2.6-1.72,1.7-2.34,2.37c-.24.29-.49.58-.76.86a5.36,5.36,0,0,1-.9.8,6.14,6.14,0,0,1-2.19,1.33,3.81,3.81,0,0,1-2,.39,1.54,1.54,0,0,1-1.19-.82q-.25-.61.54-1.77c.77-1.15,1.52-2.29,2.27-3.42s1.57-2.29,2.48-3.49,1.65-2.22,2.2-2.92l1.51-1.9c.46-.58,1-1.23,1.51-2l2.27-2.95a6,6,0,0,1,1.87-1.44A4.18,4.18,0,0,1,285,241q2.75,0,.94,2.31l-1.05,1.44-.86,1.19c-.26.36-.53.73-.79,1.11s-.54.82-.83,1.3c1.1-.82,2-1.43,2.56-1.84s1.16-.8,1.69-1.19,1.32-1,1.94-1.47a20.36,20.36,0,0,1,2.09-1.33,13.33,13.33,0,0,1,2.16-.76,2.77,2.77,0,0,1,1.3,0c.81.15,1.28.4,1.4.76s-.08.93-.61,1.69q-1.08,1.72-2.16,3.39c-.72,1.1-1.37,2.21-1.95,3.31q-.36.65-.72,1.47a8.13,8.13,0,0,0-.5,1.55,2,2,0,0,0,0,1.15A.79.79,0,0,0,290.5,255.52Z"/><path class="cls-3" d="M385.69,247.09a7,7,0,0,1,.72-.11,1.3,1.3,0,0,1,.75.15.63.63,0,0,1,.36.5,1.16,1.16,0,0,1-.39.83l-1.66,1.19a9,9,0,0,1-1.22.75,123.35,123.35,0,0,1-34.35,11.74,17.76,17.76,0,0,1-3.49.36,20.32,20.32,0,0,1-3.13-.22c-1.87-.33-3-1.17-3.49-2.52s-.16-3.07.9-5.18c.67-1.25,1.37-2.53,2.09-3.85a21.71,21.71,0,0,1,3-4.07,3.92,3.92,0,0,1,2.16-.47c.67.07,1.08.23,1.22.47s.17.61-.07,1.12a12.19,12.19,0,0,1-1.08,1.76q-.58.79-1.08,1.62c-.34.55-.7,1.12-1.08,1.69a15.36,15.36,0,0,0-1.55,3.42,3.92,3.92,0,0,0-.18,2.56,7.53,7.53,0,0,0,3.24.47,30,30,0,0,0,3.67-.47,100.53,100.53,0,0,0,12.68-3q6.33-1.94,12.88-4.46c.67-.29,1.41-.62,2.2-1s1.58-.78,2.38-1.18,1.58-.8,2.37-1.16S385,247.33,385.69,247.09Zm-34.85-5.25a1.71,1.71,0,0,1-1.19-.36,1.49,1.49,0,0,1-.47-.94,2.48,2.48,0,0,1,.22-1.26,3.76,3.76,0,0,1,1-1.33,1.17,1.17,0,0,1,.5-.4,1.38,1.38,0,0,1,.58-.18c1.39.1,2.09.75,2.09,1.95a1.48,1.48,0,0,1-.29.79,5,5,0,0,1-.72.83,4.38,4.38,0,0,1-.9.64A1.83,1.83,0,0,1,350.84,241.84Z"/><path class="cls-3" d="M397.64,246.37a15.12,15.12,0,0,0-3.6,2.56c-1,1-2,2-3.1,2.91s-1.91,1.83-2.84,2.74-1.91,1.83-2.92,2.74a10.09,10.09,0,0,1-2.27,1.62,3.4,3.4,0,0,1-2.41.32q-2.88-.64-1.22-3.82c.53-1.1,1.13-2.21,1.8-3.34s1.37-2.25,2.09-3.35c.57-.77,1-1.38,1.36-1.84s.66-.9,1-1.33.64-.89,1-1.37.86-1.15,1.48-2c.43-.1.89-.22,1.37-.36a2.42,2.42,0,0,1,1.29-.08c.82.15,1.26.45,1.34.9a2.71,2.71,0,0,1-.62,1.77l-.64.93a1.72,1.72,0,0,1-.26.33,2.78,2.78,0,0,0-.25.32c-.09.15-.31.46-.65.94s-.26.55-.07.5a2.79,2.79,0,0,0,.79-.39l1.12-.72c.41-.27.71-.47.9-.62.62-.43,1.21-.86,1.76-1.29a21.28,21.28,0,0,1,1.77-1.23q3.24-1.86,5.43-1.44c1.47.29,2.2,1.28,2.2,3a11.05,11.05,0,0,1-.11,1.54c-.07.51-.15,1-.25,1.55-.24,2,.18,3.49,1.26,4.43a7.51,7.51,0,0,0,4.86,1.48,24.78,24.78,0,0,0,3.46-.26,35,35,0,0,0,3.6-.68q5-1.08,9.86-2.27T436,248.1c1-.24,2-.45,3.1-.65s2.06-.36,3-.5a1.28,1.28,0,0,1,.72.07.41.41,0,0,1,.29.51,3.11,3.11,0,0,1-1.47,1.62,13.6,13.6,0,0,1-1.7.61c-3,.81-5.91,1.63-8.82,2.44s-5.82,1.61-8.74,2.38c-1.4.39-2.8.71-4.22,1s-2.82.52-4.21.76q-7.69,1.44-11.41-.61t-4.43-8v-.9C398.14,246.41,398,246.28,397.64,246.37Z"/><path class="cls-3" d="M482.89,235.14a6.46,6.46,0,0,1-3,.58q-.72-.22-.36-1.44a1,1,0,0,1,.15-.54c.09-.17.19-.35.28-.54.68-2.11.68-3.51,0-4.18s-2.23-.77-4.68-.29a23.4,23.4,0,0,0-2.8.8c-1,.33-1.95.71-3,1.15a92.37,92.37,0,0,0-8.49,4.6,132.4,132.4,0,0,0-13.36,9.33q-6.3,5-12.13,10.62c-.48.48-.94,1-1.37,1.44a15.11,15.11,0,0,0-1.08,1.33,4.67,4.67,0,0,0-.61,1.12.71.71,0,0,0,.11.79,45,45,0,0,0,5.54-2q3.16-1.33,6.66-3.24t7.13-4.18q3.63-2.26,7-4.71c.38-.05.77-.11,1.15-.18a2.3,2.3,0,0,1,1.08,0c1.06.24,1.62.63,1.69,1.15a5.09,5.09,0,0,1-1,2.67l-1.58,2.73c-.53.92-1.06,1.85-1.59,2.81-.24.43-.57,1.07-1,1.91s-.75,1.48-.94,1.91a7.69,7.69,0,0,0,2.45-.14c1.15-.2,2.51-.48,4.07-.87s3.26-.85,5.11-1.4,3.68-1.14,5.51-1.77q1.65-.5,3.81-1.29c1.44-.53,2.94-1.09,4.5-1.7s3.09-1.19,4.57-1.8,2.85-1.12,4.07-1.58,2.22-.8,3-1,1.2-.31,1.3-.22a4.1,4.1,0,0,1-.15,1.33,1.61,1.61,0,0,1-.79.76l-4.64,2q-3.49,1.51-8.5,3.46c-3.34,1.3-7,2.66-11.09,4.11s-8.17,2.73-12.35,3.88c-.76.34-1.45.62-2.05.83a12.28,12.28,0,0,0-1.62.72,9,9,0,0,0-1.4,1,8.79,8.79,0,0,0-1.41,1.59,28.58,28.58,0,0,1-3.67,4.32,46,46,0,0,1-4.61,3.88,15.83,15.83,0,0,1-3.24,1.91,4.07,4.07,0,0,1-2.8.33c-.92-.24-1.41-.72-1.48-1.44a5.4,5.4,0,0,1,.47-2.52,14.21,14.21,0,0,1,2.12-3.6,14,14,0,0,1,3.71-3.1q2.31-1.36,4.54-2.66c1.48-.87,3-1.75,4.53-2.67q1.51-2.08,2.85-4.14a7.8,7.8,0,0,0,1.33-4.28q-3,1.65-5.73,3.17c-1.84,1-3.68,2-5.5,2.95A81.7,81.7,0,0,1,434.5,263a7.91,7.91,0,0,1-3.63.72,3.61,3.61,0,0,1-2.42-1.15,2.42,2.42,0,0,1-.75-2.16,6.54,6.54,0,0,1,1.62-3c.81-1,1.68-2,2.59-2.95s1.85-1.92,2.81-2.88q5.4-5,11.16-9.58A127,127,0,0,1,458,233.63q2.88-1.8,5.87-3.28l5.94-2.91a18,18,0,0,1,4.47-1.59,18.87,18.87,0,0,1,4.17-.36q4.75.15,5.8,2.34C484.91,229.3,484.47,231.73,482.89,235.14Zm-42.48,36.94a6.66,6.66,0,0,0,1.72-.76,2.2,2.2,0,0,0,.94-1.48,4.76,4.76,0,0,0-1.8.73A2.06,2.06,0,0,0,440.41,272.08Z"/><path class="cls-3" d="M276.36,347.89q3.88-1.58,8.17-3.2t8.57-3.17c2.85-1,5.65-2,8.38-2.95s5.27-1.76,7.6-2.48,4.38-1.31,6.16-1.77,3.14-.75,4.1-.9c.62.19.85.47.68.83a3.35,3.35,0,0,1-1.44,1.22,24.88,24.88,0,0,1-3.16,1.48,46.29,46.29,0,0,1-4.5,1.51c-.77.24-2.24.72-4.4,1.44s-4.8,1.65-7.92,2.77-6.58,2.42-10.4,3.86-7.76,3-11.84,4.6l-2.34,2.6q-1.12,1.22-2.34,2.37a43.15,43.15,0,0,1-10.26,7.42,54.9,54.9,0,0,1-10.84,4.1,5.34,5.34,0,0,1-1.84.11,13.51,13.51,0,0,1-1.4-.25,1.17,1.17,0,0,1-.94-1.51,4.57,4.57,0,0,1,1.52-2.45,29.14,29.14,0,0,1,3.74-3.17,40.57,40.57,0,0,1,4.25-2.66c2-1.06,4-2.08,6-3.07l6.05-3q1.8-.94,3.89-2.16a4.81,4.81,0,0,0-1-2.67,9.53,9.53,0,0,0-2-1.8q-2.52-1.8-5.08-3.42t-5.22-3.27a35,35,0,0,1-4.28-3,10.22,10.22,0,0,1-3-4,9.77,9.77,0,0,1-.4-5.83,17.38,17.38,0,0,1,4.07-7.13,30.65,30.65,0,0,1,4.9-4.68q2.73-2.08,5.54-4a71.47,71.47,0,0,1,8-4.53q14.27-7.14,28.05-12.46A245.65,245.65,0,0,1,329,283.89a40.6,40.6,0,0,1,6.8-1.19,35.17,35.17,0,0,1,6.16,0q3.81.22,4.46,3.39a6.85,6.85,0,0,1-.68,4.64,17,17,0,0,1-4.43,5.15,66.83,66.83,0,0,1-11.23,7.85q-3.88,2.08-7.71,4.1t-7.7,3.67q-7.85,3.54-15.59,6.27t-15.37,4.68a23.4,23.4,0,0,1-3.71.68,18.75,18.75,0,0,1-3.42,0A2.68,2.68,0,0,1,276,323a.92.92,0,0,1-.44-.43,1.71,1.71,0,0,1-.07-.86,3,3,0,0,0,0-.94,4.8,4.8,0,0,1,.29-1.15,1.35,1.35,0,0,1,1-1,7.58,7.58,0,0,1,1.51,0l1.37.14a15.12,15.12,0,0,0,2.3,0,17.62,17.62,0,0,0,3-.54,218.6,218.6,0,0,0,21.63-7.06,166.7,166.7,0,0,0,22.07-10.44c1.78-1,3.52-2.06,5.22-3.17a52.82,52.82,0,0,0,5-3.67q3.6-3,4-4.86c.28-1.22-.58-2-2.6-2.34a13.31,13.31,0,0,0-3.7-.22c-1.37.1-2.75.25-4.14.44a82.3,82.3,0,0,0-11.06,2.44Q315.82,290.95,310,293q-9,3.24-17.93,6.87a184.86,184.86,0,0,0-18,8.54c-2,1.1-4,2.25-6,3.45a65.62,65.62,0,0,0-5.69,3.89q-5.19,3.75-6.91,7a6.67,6.67,0,0,0-.29,6.3,6.52,6.52,0,0,0,1.26,2,11.79,11.79,0,0,0,1.83,1.62,40.08,40.08,0,0,0,6.84,4.32,34.17,34.17,0,0,1,6.74,4.39A15.59,15.59,0,0,1,276.36,347.89ZM253,363.52c2-.77,3.61-1.41,4.78-1.91a24.34,24.34,0,0,0,2.88-1.41,13.45,13.45,0,0,0,2-1.36c.58-.48,1.28-1.11,2.09-1.87-1.1.33-2,.63-2.73.89a16.5,16.5,0,0,0-2.24,1.05c-.76.43-1.66,1-2.7,1.73S254.64,362.32,253,363.52Z"/><path class="cls-3" d="M320.64,331.84a2.09,2.09,0,0,1,1.36-.36,10.5,10.5,0,0,1,1.44.07q3.9.65,7.56,1.4a45.44,45.44,0,0,0,7.78.9,33,33,0,0,0,5.83.08c2.06-.15,4.11-.32,6.12-.51a5.52,5.52,0,0,1,1.51.22c.24.19.27.48.08.86a1.5,1.5,0,0,1-.36.51,2.62,2.62,0,0,1-.58.43c-.39.14-.78.3-1.19.46a3,3,0,0,1-1.11.26c-1.83.28-3.59.49-5.3.61l-5.43.39c-1.73.1-3.41.16-5,.19a30.79,30.79,0,0,1-4.61-.26c-.29.53-.52,1-.68,1.3l-.47.93-.47.91a9.53,9.53,0,0,1-.68,1,23.35,23.35,0,0,1-5,5.69,20.89,20.89,0,0,1-6.84,3.6A8.23,8.23,0,0,1,311,351a3.12,3.12,0,0,1-2.13-1.12,3.25,3.25,0,0,1-.5-2.41,8.53,8.53,0,0,1,1.33-3.38c.48-.72,1-1.44,1.51-2.16a18.31,18.31,0,0,1,1.8-2.09c1.2-1.3,2.43-2.59,3.68-3.89Zm-7.71,14.83a6.6,6.6,0,0,1,1.51-.11,2.91,2.91,0,0,0,1.37-.25,14.31,14.31,0,0,0,4.43-2.77,20.15,20.15,0,0,0,3.28-3.93,6.66,6.66,0,0,0,.82-1.65,1,1,0,0,0-.32-1.23,1.59,1.59,0,0,0-1.55-.07,7.68,7.68,0,0,0-1.83,1.08,30.08,30.08,0,0,0-4.47,4A20.65,20.65,0,0,0,312.93,346.67Z"/><path class="cls-3" d="M350.88,331.84a2.09,2.09,0,0,1,1.36-.36,10.5,10.5,0,0,1,1.44.07q3.9.65,7.56,1.4a45.44,45.44,0,0,0,7.78.9,33,33,0,0,0,5.83.08c2.06-.15,4.11-.32,6.12-.51a5.52,5.52,0,0,1,1.51.22c.24.19.27.48.08.86a1.42,1.42,0,0,1-.37.51,2.37,2.37,0,0,1-.57.43c-.39.14-.78.3-1.19.46a3,3,0,0,1-1.11.26c-1.83.28-3.59.49-5.3.61l-5.43.39c-1.73.1-3.41.16-5,.19a30.79,30.79,0,0,1-4.61-.26c-.29.53-.52,1-.69,1.3s-.32.65-.46.93l-.47.91a8.44,8.44,0,0,1-.69,1,23.11,23.11,0,0,1-5,5.69,20.84,20.84,0,0,1-6.85,3.6,8.17,8.17,0,0,1-3.52.43,3.12,3.12,0,0,1-2.13-1.12,3.25,3.25,0,0,1-.5-2.41,8.53,8.53,0,0,1,1.33-3.38c.48-.72,1-1.44,1.51-2.16a18.31,18.31,0,0,1,1.8-2.09c1.2-1.3,2.43-2.59,3.68-3.89Zm-7.71,14.83a6.6,6.6,0,0,1,1.51-.11,2.91,2.91,0,0,0,1.37-.25,14.31,14.31,0,0,0,4.43-2.77,19.75,19.75,0,0,0,3.27-3.93,6.38,6.38,0,0,0,.83-1.65,1,1,0,0,0-.32-1.23,1.59,1.59,0,0,0-1.55-.07,7.68,7.68,0,0,0-1.83,1.08,30.08,30.08,0,0,0-4.47,4A20.65,20.65,0,0,0,343.17,346.67Z"/><path class="cls-3" d="M392.85,332.77a15.12,15.12,0,0,0-3.6,2.56c-1,1-2,2-3.1,2.91L383.31,341c-.94.91-1.91,1.83-2.92,2.74a10.26,10.26,0,0,1-2.26,1.62,3.43,3.43,0,0,1-2.42.32c-1.92-.43-2.32-1.7-1.22-3.81.53-1.11,1.13-2.22,1.8-3.35s1.37-2.25,2.09-3.35l1.37-1.84,1-1.33,1-1.37q.54-.72,1.47-2c.43-.1.89-.22,1.37-.36a2.45,2.45,0,0,1,1.3-.08c.81.15,1.26.45,1.33.91a2.69,2.69,0,0,1-.61,1.76c-.34.48-.56.79-.65.94a2.78,2.78,0,0,1-.25.32,2,2,0,0,0-.26.32c-.09.15-.31.46-.64.94s-.27.55-.08.5a2.82,2.82,0,0,0,.8-.39l1.11-.72c.41-.27.71-.47.9-.62.63-.43,1.21-.86,1.77-1.29a18.89,18.89,0,0,1,1.76-1.22q3.24-1.87,5.44-1.45c1.46.29,2.19,1.28,2.19,3a9.71,9.71,0,0,1-.11,1.54c-.07.51-.15,1-.25,1.55-.24,2,.18,3.49,1.26,4.43a7.51,7.51,0,0,0,4.86,1.48,24.67,24.67,0,0,0,3.46-.26,35,35,0,0,0,3.6-.68q5-1.08,9.86-2.27l9.87-2.41c1-.24,2-.45,3.09-.65s2.07-.36,3-.5a1.28,1.28,0,0,1,.72.07.41.41,0,0,1,.28.51,3.11,3.11,0,0,1-1.47,1.62,14.09,14.09,0,0,1-1.69.61q-4.47,1.21-8.82,2.45c-2.91.81-5.82,1.6-8.75,2.37-1.39.39-2.8.71-4.21,1s-2.82.52-4.22.76q-7.69,1.44-11.41-.61t-4.42-8v-.9C393.36,332.81,393.19,332.68,392.85,332.77Z"/></g></g></g></svg>
