<svg xmlns="http://www.w3.org/2000/svg" viewBox="0 0 1070.19 202.94"><defs><style>.cls-1,.cls-2{stroke:#000;}.cls-2{fill:none;stroke-miterlimit:10;stroke-width:3px;}</style></defs><title>logo</title><g id="Layer_2" data-name="Layer 2"><g id="Layer_1-2" data-name="Layer 1"><path class="cls-1" d="M61.51,185a26.36,26.36,0,0,1-8.74,1.31,16.3,16.3,0,0,1-6.56-1.61,11.46,11.46,0,0,1-3.9-3.07,11.88,11.88,0,0,1-2.18-4.35q-.68-2.17-1.2-4.35c-.35-1.45-.72-3-1.12-4.58-.65.55-1.2,1-1.65,1.31a6.7,6.7,0,0,0-1.13,1q-3.6,4-7,7.91t-7.09,7.84q-3.3,3.52-6.79,6.9t-7.08,6.75a10.46,10.46,0,0,1-1.92,1.5,5.51,5.51,0,0,1-2.06.82,3,3,0,0,1-1.09,0l-1.16-.26c.55-.8,1.07-1.54,1.54-2.21s1-1.34,1.46-2a7.28,7.28,0,0,1,1.31-1.39,8.16,8.16,0,0,1,1.77-1,14.49,14.49,0,0,0,1.76-1,9.38,9.38,0,0,0,1.54-1.2q6.6-6.6,12.6-13.2t11.62-13.28a.76.76,0,0,0-1.08-.37,9.05,9.05,0,0,0-1.32.67q-2,1.05-3.9,2.21t-3.9,2.14q-2.48,1.28-4.95,2.33l-5,2.1a8.92,8.92,0,0,1-1.65.56c-.55.12-1.1.24-1.65.34q-3.15.53-3.6-1t2.1-4.38a62.94,62.94,0,0,1,22.28-16.13,13.89,13.89,0,0,1,4.68-1.2,7.7,7.7,0,0,1,3.49.6,1.51,1.51,0,0,1,.64.49,3,3,0,0,0,.56.56,2.57,2.57,0,0,0,.71.49,5.24,5.24,0,0,1,.94.56q1.8-1.87,3.3-3.6T49,149.76q9.3-11.25,17.93-22.5l17.25-22.5,5.66-7.42q2.82-3.68,5.66-7.35c.4-.5.83-1,1.28-1.47s.87-.93,1.27-1.38c1.45-.1,2.33,0,2.63.33s.07,1-.68,2q-2,2.63-4.12,5.33t-4.2,5.32L76,120.55Q68.18,130.7,60.23,141q-1.73,2.32-3.75,4.68t-4.27,5.22a35.82,35.82,0,0,0,10.65-7.35,45.15,45.15,0,0,1,6.9-5.93q3.67-2.55,7.35-5.25a4.5,4.5,0,0,1,1.65-.71c.6-.12,1.12-.21,1.57-.26a.66.66,0,0,1,.64.37,4,4,0,0,0,.49.75,63.22,63.22,0,0,1-6.08,5.36q-3.15,2.44-6.37,4.77-4.8,3.38-9.6,6.63t-9.6,6.57c-.55.4-1.14.8-1.76,1.2a19,19,0,0,0-1.69,1.2,17.7,17.7,0,0,0-2.7,2.85,3.82,3.82,0,0,0-.9,2.7c.25,2.85.61,5.63,1.09,8.36A16.37,16.37,0,0,0,47,179.39a10.29,10.29,0,0,0,3.93,3.18,14.33,14.33,0,0,0,6.19,1.17,8.26,8.26,0,0,1,2.4.18,18.68,18.68,0,0,0,2.18.42c.05,0,.05.13,0,.26S61.56,184.86,61.51,185ZM37.36,160.79A6.64,6.64,0,0,0,36.23,158a2.79,2.79,0,0,0-2-1.05,6.87,6.87,0,0,0-3.07.64,33.87,33.87,0,0,0-4.46,2.33,58.92,58.92,0,0,0-7.88,5.43,48.77,48.77,0,0,0-6.52,6.49,2.24,2.24,0,0,0-.42.79,6.64,6.64,0,0,1-.26.79,3.23,3.23,0,0,0,2.29.07,24.55,24.55,0,0,0,2.74-1,91.64,91.64,0,0,0,10.23-5.25Q32,164.24,37.36,160.79Z"/><path class="cls-1" d="M87.61,164.54a3.28,3.28,0,0,1-.38,1.38,8.66,8.66,0,0,1-1,1.65,13.63,13.63,0,0,1-1.57,1.69,14.41,14.41,0,0,1-2,1.5,1.59,1.59,0,0,0,.41,1.13,3,3,0,0,0,1,.71,5.18,5.18,0,0,0,1.16.37,4.71,4.71,0,0,0,.94.12,40.2,40.2,0,0,0,4.46-.49c1.28-.23,2.82-.54,4.62-.94q5-1,8.66-2c2.47-.65,4.86-1.32,7.16-2s4.69-1.4,7.16-2.18,5.39-1.63,8.74-2.58l4.35-1.2q1.95-.52,4-.9a3.31,3.31,0,0,1,.79-.08c.32,0,.65,0,1,0a5.55,5.55,0,0,1,.79.11q.3.07.15.15a6.84,6.84,0,0,1-1.8,1.5c-.75.45-1.37.8-1.87,1.05q-1.28.6-2.85,1.2a27.26,27.26,0,0,1-3.08,1q-5.47,1.57-9.6,2.85t-8,2.43c-2.6.78-5.3,1.55-8.1,2.33S96.71,175,93,175.86c-1,.25-2,.45-2.89.6s-1.84.28-2.74.38a32.42,32.42,0,0,1-3.71.22,12.05,12.05,0,0,1-3.15-.37,5.53,5.53,0,0,1-2.36-1.28,5.22,5.22,0,0,1-1.43-2.47c-2.3.9-4.53,1.79-6.71,2.66l-6.64,2.66a18.54,18.54,0,0,1-2.85.9,7.79,7.79,0,0,1-2.62.15C56,179.16,55,178.39,55,177s.88-3,2.78-4.65c.6-.55,1.19-1.05,1.76-1.5s1.16-.9,1.76-1.35q3.9-2.85,7.84-5.22a67.79,67.79,0,0,1,8.14-4.16,35.16,35.16,0,0,1,4.27-1.61c1.4-.43,2.8-.81,4.2-1.16q5.55-1.12,5.78,3.07a2.32,2.32,0,0,1-.68,2,4.73,4.73,0,0,1-2.55,1.28,1.1,1.1,0,0,1-.67-.34q-.37-.35-.87-.75a3.51,3.51,0,0,0-1.16-.64,2.78,2.78,0,0,0-1.57,0,28.19,28.19,0,0,0-3.9,1.05,28.53,28.53,0,0,0-3.83,1.65c-1,.55-1.92,1-2.62,1.46s-1.38.86-2,1.28-1.32.87-2,1.35-1.55,1-2.55,1.61l-1,.64c-.5.33-1,.66-1.5,1a9.46,9.46,0,0,0-1.27,1c-.35.35-.48.63-.38.83a69.84,69.84,0,0,0,9.6-3.23A47.18,47.18,0,0,0,81,166a12.7,12.7,0,0,1,2.21-1.2,10.81,10.81,0,0,1,2-.64,4.11,4.11,0,0,1,1.53-.08A1.37,1.37,0,0,1,87.61,164.54Z"/><path class="cls-1" d="M150.83,163.26q-2.18,1.65-3.86,3c-1.13.9-2.24,1.78-3.34,2.63q-3.67,3-7.57,5.7a78,78,0,0,1-8,4.87,34.26,34.26,0,0,1-3.49,1.73c-1.17.5-2.33,1-3.48,1.42-.75.25-1.51.46-2.29.64a12.91,12.91,0,0,1-2.18.3,4.67,4.67,0,0,1-1.8-.26,1.59,1.59,0,0,1-1-1,2.37,2.37,0,0,1,0-1.61,8.91,8.91,0,0,1,.83-1.95,13.62,13.62,0,0,1,1.42-2.06,20.06,20.06,0,0,1,1.84-1.95,124.34,124.34,0,0,1,13-11.33,106,106,0,0,1,14.59-9.22c1-.55,2-1.07,3-1.54l3.19-1.54a15.31,15.31,0,0,1,.9-1.27,8.57,8.57,0,0,0,.9-1.43,67,67,0,0,1,7.76-10.8q4.55-5.18,9.79-10.12,1.95-1.72,4.13-3.3a5.46,5.46,0,0,1,2.55-1.13,2.43,2.43,0,0,1,1.87.68q2.47,1.88.45,5.62L177.38,134a35.94,35.94,0,0,1-3,4.58q-2.62,3.53-5.59,6.93t-6.11,6.87a11.58,11.58,0,0,1-2,1.68q-1.12.8-2.1,1.62l-1.8,1.8-1.72,1.72a3.77,3.77,0,0,0,.26,3.19,6.41,6.41,0,0,0,1.91,1.76c1,.55,2,1.05,3,1.5a17,17,0,0,0,3.26,1.05,37.76,37.76,0,0,0,13.84,0q7.68-1.28,16.84-3.45c.7-.15,1.56-.37,2.58-.67s2.08-.58,3.15-.83l3-.67a11.18,11.18,0,0,1,2.22-.3c.3,0,.23.25-.19.75a4.9,4.9,0,0,1-1.31,1.12,28.79,28.79,0,0,1-5,2.1q-3,1-5.92,1.8c-2.35.55-4.82,1.15-7.39,1.8s-5.1,1.21-7.58,1.69-4.82.84-7,1.09a24.07,24.07,0,0,1-5.66.07,27.61,27.61,0,0,1-8.32-2.44A14.35,14.35,0,0,1,150.83,163.26Zm-29.25,14a5.88,5.88,0,0,0,3.38-.75l3.3-1.8a106.26,106.26,0,0,0,10.65-7q5.18-3.85,9.9-8.13a3.22,3.22,0,0,0,1.12-2.63c-.05-.1-.24-.16-.56-.19a2,2,0,0,0-.86.12,6.21,6.21,0,0,0-1.39.6c-.43.25-.89.5-1.39.75a95,95,0,0,0-9.82,6.15q-4.72,3.38-9.3,7.12c-.5.4-1,.84-1.58,1.31s-1.07,1-1.57,1.47a10.39,10.39,0,0,0-1.28,1.53A3.42,3.42,0,0,0,121.58,177.29Zm54.6-48.6q-2.93,2.25-5.7,4.76a64.93,64.93,0,0,0-5.1,5.14,60.05,60.05,0,0,0-4.12,5.17,31.64,31.64,0,0,0-2.85,4.8,1.44,1.44,0,0,0-.08.75q.07.23.75-.15a27.09,27.09,0,0,0,4.69-3.71q2.05-2.07,3.86-4.24,2.4-2.85,4.76-5.81A24.76,24.76,0,0,0,176.18,128.69Z"/><path class="cls-1" d="M206.18,163.34a36.57,36.57,0,0,0-3.07,3.26,3.07,3.07,0,0,0-.83,2.66,2.76,2.76,0,0,0,1.39,1.88,5.28,5.28,0,0,0,2.81.52q3.22-.15,7-.52c2.5-.25,5-.58,7.61-1s5.11-.86,7.61-1.39,4.83-1.08,7-1.68l4.42-1.32c1.3-.37,2.51-.75,3.64-1.12s2.25-.76,3.37-1.16,2.37-.85,3.72-1.35c.65-.25,1.3-.48,1.95-.68s1.3-.42,2-.67c.6.1.82.46.67,1.08a2.23,2.23,0,0,1-1.2,1.47,63.26,63.26,0,0,1-10.84,4.5q-6.1,1.95-12.41,3.41t-12.26,2.36c-4,.6-7.41,1-10.31,1.35a21.26,21.26,0,0,1-4.13,0,8.79,8.79,0,0,1-3.37-1,4.49,4.49,0,0,1-2.63-2.74c-.35-1.18,0-2.71,1-4.61a4.14,4.14,0,0,0,.48-1.28c.08-.4.14-.81.19-1.24l.15-1.27a4.31,4.31,0,0,1,.45-1.39q3.38-2.18,6.68-4.72a76.39,76.39,0,0,1,7.57-5.1,22.51,22.51,0,0,1,6.56-2.07,11.65,11.65,0,0,1,5,.57,7.08,7.08,0,0,1,3.11,2.06c.73.87.77,2.19.12,3.94A8.12,8.12,0,0,1,227,158.2a27.23,27.23,0,0,1-2.73,1.24,57.54,57.54,0,0,1-13.5,3.3l-2.22.3Zm5.93-4.43c1.85-.25,3.32-.46,4.42-.64a21.45,21.45,0,0,0,2.81-.6,10.76,10.76,0,0,0,2.22-.9c.7-.37,1.62-.91,2.77-1.61q-1.28-2.25-4-1.42T212.11,158.91Z"/><path class="cls-1" d="M266.11,160.11a15.48,15.48,0,0,0-3.75,2.66q-1.58,1.54-3.23,3c-1,.95-2,1.9-3,2.85s-2,1.9-3,2.85a10.51,10.51,0,0,1-2.36,1.69,3.59,3.59,0,0,1-2.51.34c-2-.45-2.43-1.78-1.28-4,.55-1.15,1.17-2.31,1.88-3.49s1.42-2.33,2.17-3.48l1.43-1.92,1-1.38c.32-.45.67-.93,1.05-1.43s.89-1.2,1.54-2.1c.45-.1.92-.22,1.42-.37a2.54,2.54,0,0,1,1.35-.08c.85.15,1.31.47,1.39.94a2.82,2.82,0,0,1-.64,1.84c-.35.5-.58.82-.67,1a3.09,3.09,0,0,1-.27.34,2.42,2.42,0,0,0-.26.34l-.67,1c-.26.4-.28.58-.08.53a3.18,3.18,0,0,0,.83-.42l1.16-.75c.42-.27.73-.48.94-.63.64-.45,1.26-.9,1.83-1.35a20.68,20.68,0,0,1,1.84-1.28q3.38-2,5.66-1.5c1.53.3,2.29,1.33,2.29,3.08a12.2,12.2,0,0,1-.11,1.61c-.08.52-.16,1.06-.26,1.61q-.39,3.15,1.31,4.61a7.78,7.78,0,0,0,5.06,1.54,25.22,25.22,0,0,0,3.6-.26c1.25-.18,2.5-.41,3.75-.71q5.18-1.12,10.28-2.37l10.27-2.51c1.05-.25,2.12-.47,3.23-.67s2.14-.38,3.15-.53a1.32,1.32,0,0,1,.75.08.44.44,0,0,1,.3.52A3.27,3.27,0,0,1,312,163a12.77,12.77,0,0,1-1.76.64q-4.66,1.28-9.19,2.55t-9.11,2.47c-1.46.4-2.92.74-4.39,1s-2.94.54-4.39.79q-8,1.5-11.89-.64t-4.61-8.36v-.94C266.63,160.15,266.45,160,266.11,160.11Z"/><path class="cls-1" d="M311.85,131.91c-1.72,6.3-5,14.33-7.05,17.78l-4.2.52A106.48,106.48,0,0,0,305,132.59Z"/><path class="cls-1" d="M326.7,171.29q9.53-3.37,16.09-5.63t10.5-3.45a30.12,30.12,0,0,1,5.44-1.31c1-.08,1.3.21.9.86a12.79,12.79,0,0,1-3.79,2.1l-3.64,1.2q-4.27,1.5-8.55,2.93t-8.55,2.92a16.74,16.74,0,0,0-2.47.94c-.8.37-1.6.71-2.4,1a10.87,10.87,0,0,0-3,1.61,16.88,16.88,0,0,0-2.51,2.44,23.13,23.13,0,0,1-4.95,4.84,31.94,31.94,0,0,1-6.15,3.41,9.28,9.28,0,0,1-2.93.9,5.33,5.33,0,0,1-2.4-.22,1.36,1.36,0,0,1-1.05-1.62,3.86,3.86,0,0,1,1.73-2.43c1.25-1,2.51-2,3.79-2.89s2.56-1.81,3.86-2.66a30.81,30.81,0,0,1,2.74-1.58c1-.5,2-1,3-1.65a4.39,4.39,0,0,0-.26-2.36,5.54,5.54,0,0,1-.57-1.61,5,5,0,0,1,.12-2.33,10.48,10.48,0,0,1,2.06-3.75,19.58,19.58,0,0,1,4.31-4,21.23,21.23,0,0,1,5.06-2.48,10.9,10.9,0,0,1,1.54-.37,4.06,4.06,0,0,1,1.46,0,.87.87,0,0,1,.75.64c.1.35-.12.9-.67,1.65a3.07,3.07,0,0,1-1.61.9,9.91,9.91,0,0,0-2.14.9,17.56,17.56,0,0,0-4.35,3A7.29,7.29,0,0,0,326.1,166a2.89,2.89,0,0,0-.07,1.12,9.57,9.57,0,0,0,.22,1.09c.1.37.2.81.3,1.31A8.92,8.92,0,0,1,326.7,171.29Z"/><path class="cls-1" d="M442.35,148.56a11,11,0,0,0,4.47-.94,26.92,26.92,0,0,0,4.16-2.28q4.35-3,8.66-6t8.66-6.19q2.93-2.1,5.82-4.24t5.73-4.31q3.3-2.55,6.45-5.1a25,25,0,0,0,5.33-5.92,2,2,0,0,0-.64-2,3.78,3.78,0,0,0-2.29-.45,25.5,25.5,0,0,0-6.22,1,51.18,51.18,0,0,0-6.53,2.32q-8.47,3.6-16.76,7.65t-16.69,8.78a257.09,257.09,0,0,0-26.62,17q-4.12,3.08-8,6.34a100.59,100.59,0,0,0-7.42,6.86c-.85.9-1.69,1.8-2.51,2.7a27.2,27.2,0,0,0-2.29,2.85,18.89,18.89,0,0,0-3.3,6.83,6.7,6.7,0,0,0,1.05,5.55,12.32,12.32,0,0,0,3.94,3.63,13.61,13.61,0,0,0,5.81,1.69,60.16,60.16,0,0,0,8.17,0,75.13,75.13,0,0,0,8.63-1.09q1.65-.3,4.87-1.12c2.15-.55,4.67-1.23,7.54-2s6-1.7,9.34-2.7l10.2-3q5.17-1.53,10.24-3.07t9.37-2.89l7.58-2.36c2.17-.68,3.83-1.21,5-1.61,1.9-.65,3.82-1.27,5.74-1.84l5.66-1.69c.3.55.32,1,0,1.28a3.75,3.75,0,0,1-1.24.82q-3.08,1.35-7.72,3.11t-10.31,3.75q-5.67,2-12,4.05t-12.9,4q-6.52,2-12.86,3.79t-11.89,3.13q-5.55,1.33-10,2.18a58.58,58.58,0,0,1-7.35,1,36.21,36.21,0,0,1-11-.84,15,15,0,0,1-7.87-4.78,10.06,10.06,0,0,1-2.06-9.57q1.38-5.58,7.31-11.88,4-4.27,8.4-8.07a100.34,100.34,0,0,1,9.3-7.16q4.88-3.37,9.64-6.71t9.78-6.19q11.32-6.37,22.54-12.11t22.76-10.31a50.26,50.26,0,0,1,4.88-1.69,40,40,0,0,1,4.8-1.09A10.91,10.91,0,0,1,493,108q2.21.87,2.36,3.79a6.33,6.33,0,0,1-.34,2.44,6.61,6.61,0,0,1-1.69,2.51c-.85.9-1.71,1.79-2.58,2.66a34.17,34.17,0,0,1-2.82,2.52q-8.62,7.2-17.58,13.8T452,148.56a42.53,42.53,0,0,1-3.79,2.25c-1.32.7-2.64,1.33-3.94,1.88a9.81,9.81,0,0,1-3.67.82,2.93,2.93,0,0,1-2.55-1.27q-1.65-2.48,1-6.23a26,26,0,0,1,3-3.6,33.92,33.92,0,0,1,3.63-3.22q3.83-2.92,7.54-5.85t7.46-5.85a7.38,7.38,0,0,1,2.33-1.28,2.3,2.3,0,0,1,1.72.23,1,1,0,0,1,.68,1.2,2.68,2.68,0,0,1-1.13,1.57q-2.7,2.1-5.43,4.13t-5.52,4.12q-2.4,1.88-4.65,3.83a41.63,41.63,0,0,0-4.2,4.2,9,9,0,0,0-1,1.38C443.17,147.35,442.8,147.91,442.35,148.56Z"/><path class="cls-1" d="M494.78,157.49a18,18,0,0,1,2-.15c.45,0,.71.17.79.52a3.27,3.27,0,0,1-.34,1.65c-.3.75-.75,1.83-1.35,3.23q2.7-1.58,5.17-2.93a11.39,11.39,0,0,1,4.84-1.57,3.58,3.58,0,0,1,3.19,1.42c.65.75,1.31,1.46,2,2.14a5.38,5.38,0,0,0,2.73,1.39,35.06,35.06,0,0,0,7.58.86,37.93,37.93,0,0,0,8.62-1,26.85,26.85,0,0,0,2.78-.75c1.1-.35,2.15-.67,3.15-.94a17,17,0,0,1,2.51-.53c.68-.07.94.09.79.49-.5.45-.91.85-1.24,1.2a3.5,3.5,0,0,1-.94.75,57.78,57.78,0,0,1-9.48,3.15,27.4,27.4,0,0,1-8.67.68c-1.45-.1-2.87-.25-4.27-.45a24.3,24.3,0,0,1-3.9-.87,15,15,0,0,1-3.3-1.46,7.58,7.58,0,0,1-2.48-2.4,5.64,5.64,0,0,0-2.85.6,11.83,11.83,0,0,0-2.47,1.65q-1.95,1.72-3.86,3.53t-3.79,3.6a19,19,0,0,0-1.54,1.57,14.18,14.18,0,0,1-1.61,1.58,3.62,3.62,0,0,1-1.8,1.08,4.4,4.4,0,0,1-1.73,0,1.32,1.32,0,0,1-.9-1.95,15.13,15.13,0,0,1,.87-1.76c.32-.57.68-1.16,1.08-1.76q2-3.15,4.17-6.3T494.78,157.49Z"/><path class="cls-1" d="M540.23,163.34a36.89,36.89,0,0,0-3.08,3.26,3.06,3.06,0,0,0-.82,2.66,2.77,2.77,0,0,0,1.38,1.88,5.34,5.34,0,0,0,2.82.52q3.22-.15,7-.52t7.61-1q3.87-.6,7.62-1.39t7-1.68l4.43-1.32c1.3-.37,2.51-.75,3.63-1.12s2.25-.76,3.38-1.16l3.71-1.35c.65-.25,1.3-.48,1.95-.68s1.3-.42,2-.67c.6.1.83.46.68,1.08a2.23,2.23,0,0,1-1.2,1.47,63.59,63.59,0,0,1-10.84,4.5q-6.12,1.95-12.41,3.41t-12.27,2.36q-6,.9-10.31,1.35a21.15,21.15,0,0,1-4.12,0,8.83,8.83,0,0,1-3.38-1,4.48,4.48,0,0,1-2.62-2.74c-.35-1.18,0-2.71,1-4.61a4.46,4.46,0,0,0,.49-1.28c.07-.4.14-.81.19-1.24l.15-1.27a4.31,4.31,0,0,1,.45-1.39q3.38-2.18,6.67-4.72a76.59,76.59,0,0,1,7.58-5.1,22.42,22.42,0,0,1,6.56-2.07,11.67,11.67,0,0,1,5,.57,7.13,7.13,0,0,1,3.11,2.06c.72.87.76,2.19.11,3.94A8.2,8.2,0,0,1,561,158.2a28.43,28.43,0,0,1-2.74,1.24,57.54,57.54,0,0,1-13.5,3.3l-2.21.3Zm5.92-4.43c1.85-.25,3.33-.46,4.43-.64a21.82,21.82,0,0,0,2.81-.6,10.9,10.9,0,0,0,2.21-.9c.7-.37,1.63-.91,2.78-1.61q-1.27-2.25-4-1.42T546.15,158.91Z"/><path class="cls-1" d="M599.33,164.54a3.28,3.28,0,0,1-.38,1.38,8.66,8.66,0,0,1-1.05,1.65,13.63,13.63,0,0,1-1.57,1.69,14.41,14.41,0,0,1-2,1.5,1.59,1.59,0,0,0,.41,1.13,3,3,0,0,0,1,.71A5.18,5.18,0,0,0,597,173a4.71,4.71,0,0,0,.94.12,40.2,40.2,0,0,0,4.46-.49c1.28-.23,2.82-.54,4.62-.94,3.3-.7,6.18-1.37,8.66-2s4.86-1.32,7.16-2,4.69-1.4,7.16-2.18,5.39-1.63,8.74-2.58l4.35-1.2q2-.52,4.05-.9a3.31,3.31,0,0,1,.79-.08c.32,0,.65,0,1,0a5.55,5.55,0,0,1,.79.11q.3.07.15.15a6.84,6.84,0,0,1-1.8,1.5c-.75.45-1.37.8-1.87,1.05q-1.27.6-2.85,1.2a27.26,27.26,0,0,1-3.08,1q-5.48,1.57-9.6,2.85t-8,2.43c-2.6.78-5.3,1.55-8.1,2.33s-6.05,1.61-9.75,2.51c-1,.25-2,.45-2.89.6s-1.84.28-2.74.38a32.42,32.42,0,0,1-3.71.22,12.05,12.05,0,0,1-3.15-.37,5.53,5.53,0,0,1-2.36-1.28,5.22,5.22,0,0,1-1.43-2.47q-3.45,1.35-6.71,2.66l-6.64,2.66a18.54,18.54,0,0,1-2.85.9,7.79,7.79,0,0,1-2.62.15c-1.9-.15-2.88-.92-2.93-2.32s.88-3,2.78-4.65c.6-.55,1.18-1.05,1.76-1.5s1.16-.9,1.76-1.35q3.9-2.85,7.84-5.22a67.79,67.79,0,0,1,8.14-4.16,35.16,35.16,0,0,1,4.27-1.61c1.4-.43,2.8-.81,4.2-1.16q5.55-1.12,5.78,3.07a2.32,2.32,0,0,1-.68,2,4.73,4.73,0,0,1-2.55,1.28,1.1,1.1,0,0,1-.67-.34q-.37-.35-.87-.75a3.51,3.51,0,0,0-1.16-.64,2.78,2.78,0,0,0-1.57,0,28.19,28.19,0,0,0-3.9,1.05,28.53,28.53,0,0,0-3.83,1.65c-1,.55-1.92,1-2.62,1.46s-1.38.86-2,1.28-1.32.87-2,1.35-1.55,1-2.55,1.61l-1,.64c-.5.33-1,.66-1.5,1a9.46,9.46,0,0,0-1.27,1c-.35.35-.48.63-.38.83a69.84,69.84,0,0,0,9.6-3.23,47.18,47.18,0,0,0,8.48-4.57,12.7,12.7,0,0,1,2.21-1.2,10.81,10.81,0,0,1,2-.64,4.11,4.11,0,0,1,1.53-.08A1.37,1.37,0,0,1,599.33,164.54Z"/><path class="cls-1" d="M652,145.26l-1.65-.3a2.64,2.64,0,0,1-1.17-.49,1.07,1.07,0,0,1-.33-1,5,5,0,0,1,.82-1.87,8.18,8.18,0,0,1,1.84-.87,7.17,7.17,0,0,1,1.57-.3c.48,0,1,0,1.43,0s.94,0,1.39,0a17.86,17.86,0,0,0,3.75-.49,12.88,12.88,0,0,0,3.15-1.23,15.23,15.23,0,0,0,2.92-2.14,30,30,0,0,0,3-3.26q4.8-5.93,10.13-11.63t10.8-11.47a63.19,63.19,0,0,1,5.1-4.84,48.09,48.09,0,0,1,5.85-4.24A25.73,25.73,0,0,1,706,98.61a8.79,8.79,0,0,1,4.77-.3c.8.15,1.23.53,1.31,1.13a3,3,0,0,1-1,2.17c-1.1,1.25-2.22,2.49-3.34,3.71s-2.31,2.42-3.56,3.57q-6.82,6.52-14.07,12.67t-15,12c-.75.55-1.49,1.12-2.21,1.69s-1.46,1.16-2.21,1.76a3.92,3.92,0,0,0-.45.56q-.22.35-.6.87a48.7,48.7,0,0,0,7.27-1q3.67-.78,7.35-1.61c1.2-.25,2.43-.56,3.68-.94s2.48-.71,3.71-1a23.41,23.41,0,0,1,3.64-.6,11.83,11.83,0,0,1,3.52.23,21.66,21.66,0,0,0-2.14,1.27,4.46,4.46,0,0,1-1.53.75Q689.78,137,684,139t-11.14,3.37a35.66,35.66,0,0,1-4,.94c-1.33.22-2.76.49-4.31.79-1,1.15-1.85,2.22-2.7,3.22l-2.52,3q-1.23,1.47-2.55,3c-.87,1-1.78,2.09-2.73,3.19l-5.82,7.16q-2.88,3.57-5.73,7.17-1.5,1.95-2.85,3.82t-2.48,3.75a22,22,0,0,0-1.39,2.85q-.55,1.43-.93,2.7c-.4,1.55-.14,2.38.78,2.48a9.68,9.68,0,0,0,4.17-1c1.1-.45,2.08-.87,3-1.27s1.72-.82,2.55-1.24,1.66-.89,2.51-1.39,1.85-1.1,3-1.8l6.38-4.16,5-3.23,4.5-2.85q2.22-1.38,4.92-3.11c1-.6,1.8-1.16,2.55-1.69s1.5-1,2.25-1.5,1.53-.92,2.36-1.35a21.92,21.92,0,0,1,2.74-1.16q.6-.08.6.3a2.14,2.14,0,0,1-.3.94,7.3,7.3,0,0,1-.75,1.12,10.35,10.35,0,0,1-.75.87l-7.65,4.91q-3.67,2.35-7.35,4.69t-7.5,4.8q-3.83,2.47-8,5.25c-.65.45-1.42.93-2.32,1.46s-1.8,1-2.7,1.46l-2.48,1.24-1.72.86a18.53,18.53,0,0,1-4.43,1.5,8.16,8.16,0,0,1-3.49,0,4,4,0,0,1-2.28-1.46,3.94,3.94,0,0,1-.68-2.81,12.19,12.19,0,0,1,.79-3.68,17,17,0,0,1,2.21-4q1.27-2,2.55-3.79t2.78-3.71q4.5-5.48,9-10.91t9-10.84a10,10,0,0,0,.67-.79c.3-.37.63-.75,1-1.12a8.9,8.9,0,0,0,.9-1.13l.52-.78Zm53.77-43.12a9.09,9.09,0,0,0-3.45,1.46c-1,.72-2.07,1.49-3.07,2.29a102.35,102.35,0,0,0-9.19,8.47q-4.24,4.42-8.44,9.53,8.77-6.45,15-12A67.37,67.37,0,0,0,705.75,102.14Z"/><path class="cls-1" d="M720.6,160.86a5.54,5.54,0,0,1,.75-.11,1.37,1.37,0,0,1,.79.15.67.67,0,0,1,.37.52,1.25,1.25,0,0,1-.41.87l-1.72,1.23a8.93,8.93,0,0,1-1.28.79,128.79,128.79,0,0,1-35.77,12.23,18.58,18.58,0,0,1-3.64.37,22,22,0,0,1-3.26-.22c-1.95-.35-3.17-1.23-3.64-2.63s-.17-3.2.94-5.4l2.17-4a22.55,22.55,0,0,1,3.08-4.24,4.07,4.07,0,0,1,2.25-.49c.7.08,1.12.24,1.27.49s.18.64-.07,1.16a13.35,13.35,0,0,1-1.13,1.84c-.4.55-.78,1.12-1.12,1.69s-.73,1.16-1.13,1.76a15.5,15.5,0,0,0-1.61,3.56,4.07,4.07,0,0,0-.19,2.67,7.67,7.67,0,0,0,3.38.48,28.9,28.9,0,0,0,3.82-.48,105.29,105.29,0,0,0,13.2-3.15q6.6-2,13.43-4.65,1-.45,2.28-1c.83-.4,1.65-.82,2.48-1.24s1.65-.83,2.47-1.2S719.9,161.11,720.6,160.86Zm-36.3-5.47a1.8,1.8,0,0,1-1.24-.38,1.48,1.48,0,0,1-.48-1,2.59,2.59,0,0,1,.22-1.32,4,4,0,0,1,1.05-1.38,1.33,1.33,0,0,1,.53-.42,1.46,1.46,0,0,1,.6-.18c1.45.1,2.17.77,2.17,2a1.54,1.54,0,0,1-.3.83,4.58,4.58,0,0,1-.75.86,4.51,4.51,0,0,1-.94.67A1.81,1.81,0,0,1,684.3,155.39Z"/><path class="cls-1" d="M717.82,162.44a5.56,5.56,0,0,1,1.69-1.8,6,6,0,0,1,2.21-1c1.3-.25,2-.21,2.25.11s-.05,1-.75,1.92-1.07,1.62-1.42,2.17-.68,1-1,1.5-.61.94-.93,1.46-.79,1.24-1.39,2.14a7.94,7.94,0,0,0-.9,1.76,16.15,16.15,0,0,1-.83,1.92,10.85,10.85,0,0,0,1.8-1,7,7,0,0,0,1.13-1c.3-.33.57-.65.82-1a10.24,10.24,0,0,1,.83-.93c.7-.7,1.35-1.38,1.95-2s1.25-1.32,2-2,1.32-1.38,2-2,1.33-1.27,1.88-1.87a6.93,6.93,0,0,1,3.07-1.24,2.75,2.75,0,0,1,1.65.34,19.22,19.22,0,0,1,1.58,1.42,18.48,18.48,0,0,0,1.8,1.58,11.61,11.61,0,0,0,2.21,1.31,8.08,8.08,0,0,0,3,.64q2.1,0,5.07-.27t6.33-.71q3.38-.45,7-1.05t7-1.35c1.15-.25,2.29-.47,3.41-.67a3.52,3.52,0,0,1,2.59.3c-1.45.7-2.71,1.27-3.79,1.72s-2.21.86-3.41,1.24-2.54.73-4,1-3.32.69-5.52,1.09a75.29,75.29,0,0,1-8,1.05q-3.95.3-8.22.45a14.07,14.07,0,0,1-4.53-.45,11.68,11.68,0,0,1-2.63-1.17c-.67-.42-1.24-.81-1.69-1.16a2.71,2.71,0,0,0-1.72-.52,63.55,63.55,0,0,0-4.88,4.65q-2.1,2.25-4.2,4.57c-.8.85-1.56,1.71-2.28,2.59s-1.52,1.74-2.37,2.59a8.57,8.57,0,0,1-2.81,2,4.05,4.05,0,0,1-2.66.38,2.68,2.68,0,0,1-1.31-.83,1.7,1.7,0,0,1-.12-1.57c.45-1.3.88-2.59,1.28-3.87a18.51,18.51,0,0,1,1.87-4c.55-.95,1-1.77,1.39-2.47s.74-1.35,1.09-1.95.71-1.21,1.09-1.84S717.27,163.29,717.82,162.44Z"/><path class="cls-1" d="M772.12,163.34a36.57,36.57,0,0,0-3.07,3.26,3.07,3.07,0,0,0-.83,2.66,2.79,2.79,0,0,0,1.39,1.88,5.31,5.31,0,0,0,2.81.52q3.23-.15,7-.52t7.61-1c2.58-.4,5.11-.86,7.61-1.39s4.83-1.08,7-1.68l4.42-1.32c1.3-.37,2.52-.75,3.64-1.12s2.25-.76,3.38-1.16l3.71-1.35c.65-.25,1.3-.48,2-.68s1.3-.42,1.95-.67c.6.1.82.46.67,1.08a2.23,2.23,0,0,1-1.2,1.47,63.47,63.47,0,0,1-10.83,4.5q-6.12,1.95-12.42,3.41t-12.26,2.36q-6,.9-10.31,1.35a21.26,21.26,0,0,1-4.13,0,8.79,8.79,0,0,1-3.37-1,4.49,4.49,0,0,1-2.63-2.74c-.35-1.18,0-2.71,1-4.61a4.46,4.46,0,0,0,.49-1.28c.07-.4.13-.81.18-1.24l.15-1.27a4.31,4.31,0,0,1,.45-1.39q3.38-2.18,6.68-4.72a76.39,76.39,0,0,1,7.57-5.1,22.47,22.47,0,0,1,6.57-2.07,11.63,11.63,0,0,1,5,.57,7.17,7.17,0,0,1,3.12,2.06c.72.87.76,2.19.11,3.94a8.2,8.2,0,0,1-2.51,2.06,28.43,28.43,0,0,1-2.74,1.24,57.54,57.54,0,0,1-13.5,3.3l-2.21.3Zm5.93-4.43c1.85-.25,3.32-.46,4.42-.64a22,22,0,0,0,2.82-.6,10.9,10.9,0,0,0,2.21-.9c.7-.37,1.62-.91,2.77-1.61-.85-1.5-2.18-2-4-1.42S781.7,156,778.05,158.91Z"/><path class="cls-1" d="M895.8,142.94a14.42,14.42,0,0,0,4.54,0c1.47-.22,3-.53,4.61-.93a92.09,92.09,0,0,0,7.2-9.38q3.15-4.73,6.67-9.45t6.75-9.56q3.3-4.77,6.75-9.79a8.41,8.41,0,0,0,1.28-.11,1.25,1.25,0,0,1,1,.11,2.4,2.4,0,0,1,.57.94A1.5,1.5,0,0,1,935,106a19.27,19.27,0,0,1-1.68,2.85c-.68,1-1.34,1.93-2,2.93q-5.18,7.28-10.24,14.36t-10,14.06c0,.8.29,1.24.86,1.31a12.33,12.33,0,0,0,1.69.12c2.65-.1,5.27-.22,7.87-.34s5.23-.24,7.88-.34c.65,0,1.41,0,2.29,0a15.69,15.69,0,0,1,2.43.12,6.27,6.27,0,0,1,1.77.45.65.65,0,0,1,.33,1,2,2,0,0,1-1.38.64,23.21,23.21,0,0,1-2.55.26c-1,.05-2,.06-3,0s-2,0-2.85,0c-1.4.1-2.8.18-4.2.26s-2.83.16-4.28.26-3.15.23-4.65.38-2.95.27-4.35.37a11.43,11.43,0,0,0-3.15,3.19c-.7,1.12-1.4,2.16-2.1,3.11-.85,1.3-2,3-3.41,5.06l-4.39,6.42-4.38,6.41q-2.15,3.1-3.42,5.06a11.58,11.58,0,0,1-.82,1.16q-.45.57-.9,1.17a4.45,4.45,0,0,1-3.23,1.72,1.53,1.53,0,0,1-1.42-.49,1.13,1.13,0,0,1-.08-1.31l.72-1.16c.22-.38.46-.76.71-1.16q1.43-2,3.52-5.14c1.4-2.08,2.85-4.21,4.35-6.41s3-4.34,4.35-6.42,2.58-3.78,3.53-5.13l1.72-2.44c.65-.93,1.18-1.74,1.58-2.44a10.8,10.8,0,0,0-4,0,46.21,46.21,0,0,0-4.54,1,56,56,0,0,0-4.43,5.63q-1.95,2.85-4,5.7-6.3,9.15-12.79,18.15T858.3,194.46c-.7.85-1.41,1.69-2.14,2.51s-1.51,1.67-2.36,2.52a6.28,6.28,0,0,1-2.89,2,5.21,5.21,0,0,1-3.11-.75q3.15-6.22,6.26-12.49t6.34-12.78a10.07,10.07,0,0,1,.75,1.35,2.58,2.58,0,0,1,.19,1.16,5.9,5.9,0,0,1-.42,1.61c-.25.65-.62,1.55-1.12,2.7l-1.69,4q-.86,2.07-2.06,4.77,2.1-2,3.75-3.9t3-3.72q1.35-1.83,2.59-3.6t2.58-3.48q2.63-3.45,5.07-6.9t4.76-6.9q2.4-3.6,5.06-7.2A73.2,73.2,0,0,0,887.7,148a19.31,19.31,0,0,0-5.7.26q-2.93.57-5.85,1.17c-.8.15-1.78.36-2.93.63s-2.27.58-3.37.9a26.42,26.42,0,0,0-2.93,1.05c-.85.38-1.35.79-1.5,1.24a6.81,6.81,0,0,0-.18,1.39c0,.52,0,1,0,1.46a6.45,6.45,0,0,0,0,1.39c0,.42.1.89.15,1.39a1.63,1.63,0,0,1-.26.75,7.4,7.4,0,0,1-.57.82,1,1,0,0,1-1,.38c-.47,0-.76-.23-.86-.53a17.38,17.38,0,0,0-1.31-3.71,9.7,9.7,0,0,1-.94-4,2.56,2.56,0,0,1,1.2-1.47A13,13,0,0,1,864,149.8a25.63,25.63,0,0,1,2.88-1q1.5-.4,2.55-.63c2.25-.55,4.47-1,6.64-1.47s4.36-.83,6.56-1.23a34.45,34.45,0,0,1,3.45-.57q1.73-.18,3.3-.48a11.53,11.53,0,0,0,2.89-2.67c.63-.87,1.21-1.73,1.76-2.58q6.82-10,13.62-20t13.68-20a6.48,6.48,0,0,1,1-1.31c.4-.42.77-.81,1.12-1.16a3.11,3.11,0,0,1,2.4-.19,3.76,3.76,0,0,1,1.2,1.24,131.18,131.18,0,0,1-7.72,11.06q-4.27,5.5-8.1,11.14t-7.61,11.28Q899.85,136.94,895.8,142.94Z"/><path class="cls-1" d="M912.75,159.14a2.19,2.19,0,0,1,1.42-.38,11.17,11.17,0,0,1,1.5.08c2.7.45,5.33.93,7.88,1.46a49.12,49.12,0,0,0,8.1.94,34.84,34.84,0,0,0,6.07.07q3.22-.23,6.38-.52a5.94,5.94,0,0,1,1.57.22c.25.2.28.5.08.9a1.51,1.51,0,0,1-.38.53,2.35,2.35,0,0,1-.6.45l-1.23.48a3.07,3.07,0,0,1-1.17.27c-1.9.3-3.73.51-5.51.63l-5.66.42q-2.7.15-5.25.18a32,32,0,0,1-4.8-.26c-.3.55-.54,1-.71,1.35s-.34.68-.49,1-.31.61-.49.93a7.94,7.94,0,0,1-.71,1.09,23.92,23.92,0,0,1-5.25,5.93,21.59,21.59,0,0,1-7.13,3.75,8.44,8.44,0,0,1-3.67.45,3.21,3.21,0,0,1-2.21-1.17,3.35,3.35,0,0,1-.53-2.51,9,9,0,0,1,1.39-3.52c.5-.75,1-1.5,1.57-2.25a18.91,18.91,0,0,1,1.88-2.18q1.88-2,3.82-4.05Zm-8,15.45a7.24,7.24,0,0,1,1.58-.12,3,3,0,0,0,1.42-.26,14.85,14.85,0,0,0,4.62-2.89,20.42,20.42,0,0,0,3.41-4.08,6.79,6.79,0,0,0,.86-1.73,1,1,0,0,0-.34-1.27,1.65,1.65,0,0,0-1.61-.08,8.23,8.23,0,0,0-1.91,1.13,31.49,31.49,0,0,0-4.65,4.2A21,21,0,0,0,904.72,174.59Z"/><path class="cls-1" d="M950.7,169.34q-1.5,1.65-2.93,3.18c-.95,1-1.92,2-2.92,3q-3.6,3.45-6.49,4.16c-1.92.48-3.24,0-3.94-1.46a5.16,5.16,0,0,1-.18-3.86,19.76,19.76,0,0,1,2.06-4.61,50.71,50.71,0,0,1,3.41-5.18c1.28-1.7,2.61-3.4,4-5.1,2.25-.55,3.59-.64,4-.26s.08,1.29-1,2.74c-1.4,1.75-2.73,3.47-4,5.17a19.34,19.34,0,0,0-2.81,5.1,7.71,7.71,0,0,0-.34,1.2c-.07.4-.16.8-.26,1.2a4.14,4.14,0,0,0,2.4-.94,13.15,13.15,0,0,0,1.57-1.61q2.55-3.08,5.22-6t5.58-5.81c2.15-.55,3.48-.72,4-.52s.55.85.15,1.95a3.35,3.35,0,0,1-.19.56c-.07.18-.16.36-.26.56q-1.43,3.67-.3,4.61t5.85-.26l3-.75,2.36-.56c.75-.18,1.55-.35,2.4-.53s1.88-.41,3.08-.71l3.11-.79c.88-.22,1.71-.45,2.51-.67s1.6-.48,2.4-.75l2.78-.94,1.46-.45a7.55,7.55,0,0,1,1.31-.3.44.44,0,0,1,.53.19c.1.17.2.34.3.49s0,.27-.26.52a3.57,3.57,0,0,1-.57.53,16.34,16.34,0,0,1-2.47,1.2c-1,.4-1.78.72-2.33,1-1.7.6-3.28,1.14-4.76,1.61s-2.94.93-4.39,1.35-3,.87-4.61,1.32-3.44.92-5.44,1.42a25.91,25.91,0,0,1-6.75,1.05,6.63,6.63,0,0,1-4.65-1.57,1.7,1.7,0,0,0-.63-.23A9.46,9.46,0,0,1,950.7,169.34Z"/><path class="cls-1" d="M986.17,171.29q9.52-3.37,16.09-5.63t10.5-3.45a30.12,30.12,0,0,1,5.44-1.31c1-.08,1.3.21.9.86a12.79,12.79,0,0,1-3.79,2.1l-3.64,1.2q-4.27,1.5-8.55,2.93t-8.55,2.92a16.74,16.74,0,0,0-2.47.94c-.8.37-1.6.71-2.4,1a10.87,10.87,0,0,0-3,1.61,16.88,16.88,0,0,0-2.51,2.44,23.13,23.13,0,0,1-4.95,4.84,31.94,31.94,0,0,1-6.15,3.41,9.28,9.28,0,0,1-2.93.9,5.33,5.33,0,0,1-2.4-.22,1.36,1.36,0,0,1-1.05-1.62,3.86,3.86,0,0,1,1.73-2.43c1.25-1,2.51-2,3.79-2.89s2.56-1.81,3.86-2.66a30.81,30.81,0,0,1,2.74-1.58c1-.5,2-1,3-1.65a4.39,4.39,0,0,0-.26-2.36,5.54,5.54,0,0,1-.57-1.61,5,5,0,0,1,.12-2.33A10.48,10.48,0,0,1,983.1,163a19.58,19.58,0,0,1,4.31-4,21.23,21.23,0,0,1,5.06-2.48,10.9,10.9,0,0,1,1.54-.37,4.06,4.06,0,0,1,1.46,0,.87.87,0,0,1,.75.64c.1.35-.12.9-.67,1.65a3.07,3.07,0,0,1-1.61.9,9.91,9.91,0,0,0-2.14.9,17.56,17.56,0,0,0-4.35,3,7.29,7.29,0,0,0-1.88,2.82,2.89,2.89,0,0,0-.07,1.12,9.57,9.57,0,0,0,.22,1.09c.1.37.2.81.3,1.31A8.92,8.92,0,0,1,986.17,171.29Z"/><path class="cls-1" d="M1020.45,163.34a36.89,36.89,0,0,0-3.08,3.26,3.06,3.06,0,0,0-.82,2.66,2.76,2.76,0,0,0,1.39,1.88,5.28,5.28,0,0,0,2.81.52q3.22-.15,7-.52t7.62-1q3.86-.6,7.61-1.39t7-1.68l4.43-1.32c1.3-.37,2.51-.75,3.64-1.12s2.25-.76,3.37-1.16,2.36-.85,3.71-1.35c.65-.25,1.3-.48,2-.68s1.3-.42,2-.67c.6.1.83.46.68,1.08a2.23,2.23,0,0,1-1.2,1.47,63.59,63.59,0,0,1-10.84,4.5q-6.12,1.95-12.41,3.41t-12.26,2.36q-6,.9-10.32,1.35a21.15,21.15,0,0,1-4.12,0,8.83,8.83,0,0,1-3.38-1,4.48,4.48,0,0,1-2.62-2.74c-.35-1.18,0-2.71,1-4.61a4.18,4.18,0,0,0,.49-1.28c.08-.4.14-.81.19-1.24l.15-1.27a4.31,4.31,0,0,1,.45-1.39q3.38-2.18,6.67-4.72a76.59,76.59,0,0,1,7.58-5.1,22.51,22.51,0,0,1,6.56-2.07,11.65,11.65,0,0,1,5,.57,7.13,7.13,0,0,1,3.11,2.06c.72.87.76,2.19.11,3.94a8.2,8.2,0,0,1-2.51,2.06,28.43,28.43,0,0,1-2.74,1.24,57.54,57.54,0,0,1-13.5,3.3l-2.21.3Zm5.92-4.43c1.85-.25,3.33-.46,4.43-.64a21.82,21.82,0,0,0,2.81-.6,10.68,10.68,0,0,0,2.21-.9c.7-.37,1.63-.91,2.78-1.61q-1.27-2.25-4-1.42T1026.37,158.91Z"/><polyline class="cls-2" points="259.07 105.71 559.86 1.73 660.13 105.71"/></g></g></svg>