<?xml version="1.0" standalone="no"?>
<!DOCTYPE svg PUBLIC "-//W3C//DTD SVG 1.1//EN" "http://www.w3.org/Graphics/SVG/1.1/DTD/svg11.dtd" >
<svg xmlns="http://www.w3.org/2000/svg" xmlns:xlink="http://www.w3.org/1999/xlink" version="1.1">
<metadata></metadata>
<defs>
<font id="maddison_signature_demoObdemo" horiz-adv-x="1632" >
<font-face units-per-em="2048" ascent="1536" descent="-512" />
<missing-glyph horiz-adv-x="1024" />
<glyph horiz-adv-x="0" />
<glyph unicode="&#xd;" horiz-adv-x="612" />
<glyph horiz-adv-x="0" />
<glyph horiz-adv-x="0" />
<glyph unicode=" "  horiz-adv-x="1024" />
<glyph unicode="&#x09;" horiz-adv-x="1024" />
<glyph unicode="&#xa0;" horiz-adv-x="1024" />
<glyph unicode="!" horiz-adv-x="423" d="M20 -59.5q-6 18.5 17 51.5q27 41 55.5 80t59.5 84q63 25 97 23.5t46 -32.5q-27 -37 -52.5 -74.5t-56.5 -76.5q-35 -41 -70.5 -61.5t-64.5 -16.5q-25 4 -31 22.5zM390 433q-7 11 3 32q27 63 66 123l176 262t178 262q29 43 57.5 89.5t67.5 105.5q29 2 55.5 6t48.5 2 q25 -2 27 -19.5t-12 -44.5q-10 -16 -20.5 -31.5t-22.5 -31.5q-109 -154 -216.5 -308.5t-213.5 -308.5q-16 -25 -34 -48t-38 -46t-41.5 -36t-46.5 -17q-27 -2 -34 9z" />
<glyph unicode="&#x26;" horiz-adv-x="1376" d="M93.5 8q-17.5 41 12.5 111q33 78 114 160.5t196 160.5q78 53 159.5 102.5t161.5 98.5q47 29 97.5 58.5t103.5 60.5q20 41 40.5 81t39.5 79q29 66 75 133t101 137q41 51 85 75.5t103 28.5q174 14 213 -86q23 -59 -24 -122.5t-176 -153.5q-41 -29 -85 -55.5t-85 -53.5 q-37 -25 -75 -48t-81 -52q-49 -90 -69.5 -166t-20.5 -147q201 117 380 242.5t359 269.5q14 -16 25.5 -27.5t13.5 -26.5q-2 -18 -23.5 -42.5t-54.5 -47.5q-125 -88 -245.5 -174t-247.5 -172q-45 -33 -94.5 -63.5t-108.5 -67.5q0 -16 -2 -33.5t2 -31.5q23 -57 80 -90t125 -58 q41 -14 83 -25.5t83 -21.5q-12 -29 -37 -45t-47 -16q-55 4 -110.5 8t-96.5 20q-76 27 -133.5 65t-85.5 97q-4 6 -12.5 9t-18.5 9q-41 -20 -78 -38.5t-76 -38.5t-76.5 -42t-76.5 -38q-109 -51 -197 -69.5t-143 -6.5t-72.5 53zM244 152q-59 -90 18 -123q131 29 264.5 103.5 t278.5 164.5q16 72 32.5 136.5t30.5 127.5q4 14 1 26.5t-5 28.5q-72 -43 -132 -78.5t-120 -72.5q-37 -23 -73.5 -47.5t-71.5 -48.5q-72 -53 -129 -108.5t-94 -108.5zM1155 885q82 39 148.5 86t126.5 104q57 61 38 92q-10 20 -39 26.5t-90 -11.5q-51 -53 -83.5 -91t-53 -71 t-31 -63.5t-16.5 -71.5z" />
<glyph unicode="," horiz-adv-x="260" d="M100 23.5q0 9.5 10.5 23.5t24 28.5t17.5 20.5q12 25 8 35t-11.5 18.5t-11.5 16.5t6 31q23 27 45 39q16 8 36 13t30 1q29 -14 39 -43q14 -23 3 -53.5t-36 -61.5q-27 -31 -68.5 -53.5t-66.5 -24.5q-25 0 -25 9.5z" />
<glyph unicode="." horiz-adv-x="233" d="M141 161.5q2 14.5 4 28.5q8 27 34 45.5t65 14.5q6 -4 21.5 -12.5t21.5 -24.5q4 -10 -1 -26.5t-15.5 -34t-26 -32t-29.5 -20.5q-27 -12 -49.5 -3t-22.5 38q-4 12 -2 26.5z" />
<glyph unicode="/" horiz-adv-x="591" d="M28.5 -52.5q-5.5 25.5 16.5 58.5q25 41 50.5 80t56.5 76q90 98 176 194.5t178 192.5q213 225 428 446.5t416 452.5q8 10 20.5 20.5t22.5 20.5q14 4 28.5 9t24.5 5q70 4 75 -23.5t-55 -88.5q-256 -264 -507.5 -525.5t-501.5 -527.5q-82 -86 -155 -172t-150 -172 q-20 -23 -42 -43.5t-53 -24.5q-23 -4 -28.5 21.5z" />
<glyph unicode="0" horiz-adv-x="878" d="M123 104q-6 63 55 136q76 88 160 178q72 78 143.5 155.5t143.5 155.5q23 25 40 40t34.5 22.5t36 7.5t42.5 -6q14 -4 25.5 -10.5t23.5 -12.5q61 41 114.5 75t107.5 64q59 35 113.5 49.5t101.5 -2.5q41 -14 47 -39.5t-23 -72.5q-23 -47 -61 -94q-295 -360 -692 -629 q-39 -27 -80 -49.5t-80 -38.5q-102 -47 -172 -25.5t-80 96.5zM281 129q12 -12 32.5 -7t42.5 15q4 2 9.5 4t9.5 6q240 131 436.5 301t359.5 375q8 10 10.5 22.5t8.5 26.5q-63 -10 -118.5 -40.5t-108.5 -71.5q-137 -102 -268.5 -208t-248.5 -228q-29 -29 -60.5 -54.5 t-59.5 -54.5q-25 -23 -40.5 -49.5t-4.5 -36.5z" />
<glyph unicode="1" horiz-adv-x="411" d="M-10 -119q8 31 23.5 65t35.5 68q70 123 164 245t188 245q20 29 41 55.5t45 54.5q55 66 85 124.5t14 101.5q49 53 93 100t89 94q39 47 88 56q37 6 59.5 -10.5t12.5 -39.5q-12 -31 -37 -61q-74 -104 -147.5 -205.5t-151.5 -206.5q-72 -96 -140.5 -189t-140.5 -190 q-66 -88 -119 -174t-69 -174q-88 -16 -115.5 -8t-17.5 49z" />
<glyph unicode="2" horiz-adv-x="884" d="M170 209q2 47 36 89t105 83q43 25 85 45t87 43q90 43 179.5 85t179.5 87q63 31 126.5 63.5t129.5 79.5q-10 10 -13.5 21.5t-15.5 15.5q-51 23 -116.5 32t-147.5 -1q-35 -4 -66.5 -8t-64.5 -6q-68 -4 -76 16t33 92q10 4 20.5 10.5t18.5 6.5q129 16 242.5 13t211.5 -26 q61 -12 94 -46t44 -81q8 -29 -16.5 -64.5t-78.5 -64.5q-98 -55 -197.5 -106t-199.5 -103q-86 -43 -170 -83t-170 -83q-23 -10 -46.5 -26.5t-43.5 -28.5q-6 -29 11.5 -33t39.5 -4q66 -2 105 -2t72.5 3t75.5 9.5t116 16.5q43 6 86 11t84 9q23 2 38 -5t1 -36q-45 -31 -91.5 -46 t-93.5 -25q-90 -23 -144 -36t-98 -18.5t-91.5 -6.5t-122.5 1q-72 2 -115 26t-43 81z" />
<glyph unicode="3" horiz-adv-x="1015" d="M78 61q-4 6 1 12.5t16 12.5t26.5 11t30.5 9q133 35 268 90.5t270 104.5q59 23 116.5 44.5t108.5 41.5q20 31 9 35t-25 6q-78 6 -159 9t-158 12q-29 2 -58.5 8t-47 17t-13.5 30.5t43 52.5q70 45 141.5 83t143 75t141 78t135.5 94q10 29 -6.5 33t-38.5 0q-86 -8 -177 -30 t-186 -69q-29 -8 -46 1t-23 25.5t-2 34t20 27.5q53 37 104.5 52.5t100.5 31.5q113 33 207 39t178 -4q31 -4 53.5 -18.5t42.5 -30.5q16 -10 6 -35.5t-38 -46.5q-49 -39 -99.5 -75t-103.5 -70q-70 -45 -140.5 -85t-138.5 -81q-18 -29 -6 -32t27 -5q61 -8 126.5 -11t125.5 -14 q37 -6 70.5 -17t64.5 -26q10 -6 18 -19.5t-2 -31.5q-66 -53 -125 -82t-116 -47q-182 -63 -363.5 -130t-361.5 -114q-47 -12 -89.5 -16t-70.5 20z" />
<glyph unicode="4" horiz-adv-x="821" d="M343 558q24 38 83 73q109 63 215.5 124.5t216.5 116.5q84 45 165 91.5t161 99.5q35 23 67.5 34t56 10t34 -14.5t1.5 -37.5q-10 -29 -30.5 -59.5t-42.5 -61.5q-27 -35 -58.5 -72t-66.5 -71q-53 -53 -79 -100.5t-17 -90.5q-86 -41 -141.5 -91t-102.5 -110 q-78 -102 -157 -203.5t-156 -205.5q-23 -27 -46.5 -52.5t-68.5 -41.5q-74 -23 -23 73q53 98 131 199.5t158 206.5q23 29 43 56.5t49 66.5q-84 -4 -155.5 -7.5t-139.5 -5.5q-29 0 -52 4.5t-40 14.5q-29 16 -5 54zM627 614q57 4 103 6.5t97 4.5q53 47 82 73.5t45.5 46t24.5 37 t20 47.5q-92 -45 -182 -91t-190 -124z" />
<glyph unicode="5" horiz-adv-x="956" d="M266.5 162.5q1.5 17.5 30.5 40.5q117 18 200 35.5t147.5 39t116.5 49t107 66.5q-37 35 -96 40t-135 -5q-57 -8 -115.5 -17.5t-115.5 -19.5q-35 -6 -55.5 -6t-31 8t-14.5 28.5t-6 57.5q80 51 161 101.5t161 103.5q70 45 138 92t146 101q29 20 62.5 31.5t62.5 11.5h62 q-8 -12 -15 -21q-27 -35 -17.5 -62.5t48.5 -25.5q72 2 126 4t84 -1t29 -12t-42 -30q-72 -23 -139.5 -39t-134 -28.5t-132 -23.5t-133.5 -24q-47 -29 -100.5 -59.5t-108.5 -83.5q37 4 66.5 6t60.5 6q98 10 173 -2t142 -35q18 -4 33 -15t25 -23q16 -18 -0.5 -48t-57.5 -63 q-41 -35 -86 -60.5t-90 -37.5q-104 -31 -208.5 -60.5t-204.5 -52.5q-39 -10 -70 -3t-59 15q-16 4 -14.5 21.5z" />
<glyph unicode="6" horiz-adv-x="868" d="M129 156.5q14 54.5 86 124.5q160 158 328 306t354 283q35 25 74 45.5t73 36.5q57 23 93.5 17t42.5 -49q-16 -12 -28.5 -24.5t-23.5 -16.5q-86 -31 -160.5 -82.5t-146.5 -110.5q-102 -88 -202.5 -176t-204.5 -178q-96 -82 -129 -168q-6 -16 -1 -30.5t15 -24.5 q12 -10 35.5 -2t46.5 26q33 23 59.5 47.5t61.5 46.5q59 45 120.5 89t127.5 83q156 94 280 76q29 -4 30 -28.5t-28 -51.5q-47 -43 -97 -86t-104 -78q-68 -45 -138 -81.5t-142 -71.5q-35 -20 -75 -32.5t-77 -35.5q-16 -10 -45.5 -13t-62.5 -1t-64 6t-51 10q-16 4 -24.5 16.5 t-16.5 26.5q-20 47 -6 101.5z" />
<glyph unicode="7" horiz-adv-x="911" d="M85 -104.5q-11 22.5 7 47.5q35 47 69 94t77 88q80 78 163.5 153.5t169.5 149.5q117 98 230.5 193.5t228.5 193.5q29 25 58.5 54.5t68.5 66.5q-72 12 -139.5 8t-138.5 -14q-66 -10 -127.5 -13.5t-120.5 -5.5q-39 0 -46 14.5t-7 71.5q12 4 26 10.5t25 8.5 q147 12 295.5 23.5t296.5 19.5q43 4 81.5 -3t77.5 -16q12 -4 16.5 -17t8.5 -28q-86 -76 -170 -150.5t-170 -146.5q-115 -98 -230.5 -193t-232.5 -192q-98 -84 -190.5 -171t-165.5 -185q-8 -10 -19.5 -22.5t-21.5 -22.5q-18 -18 -39 -30.5t-43 -10.5q-27 2 -38 24.5z" />
<glyph unicode="8" horiz-adv-x="937" d="M98.5 89q12.5 52 53.5 110q55 82 135 166q72 78 147.5 153.5l153.5 153.5q-16 23 -33.5 46t-38.5 48q39 53 89 87t102 62q174 94 321.5 113t269.5 -20q23 -8 36.5 -23.5t27.5 -32.5q33 -42 -14 -112q-25 -33 -73 -81t-106.5 -97.5t-119 -95.5t-107.5 -74q-35 -23 -41 -54 v-2q0 -29 -10 -58.5t-35 -62.5q-92 -111 -198.5 -201.5t-239.5 -152.5q-244 -115 -314 33q-18 43 -5.5 95zM250 106q-23 -51 5 -71.5t87 6.5q129 57 233.5 142t176.5 198q45 72 46 128t-48 89q-94 -31 -152.5 -82t-112.5 -106q-66 -70 -129 -139.5t-100 -147.5 q-4 -12 -6 -17zM680 772q2 -20 13.5 -32.5t26.5 -21.5t31.5 -16.5t30.5 -15.5q76 -41 105 -125q25 25 60.5 56.5t69.5 61.5t62.5 53.5t38.5 33.5q33 33 60.5 65.5t31.5 73.5q-25 18 -55.5 23.5t-66 2.5t-74.5 -10.5t-78 -15.5q-66 -12 -131.5 -44t-124.5 -89z" />
<glyph unicode="9" horiz-adv-x="804" d="M37 -2q41 45 92 75.5t98 65.5q137 94 273.5 187.5t271.5 189.5q53 39 103.5 82t97.5 86q45 41 50 75t-11 72q-33 -47 -55.5 -79.5t-41.5 -61.5q-59 -94 -178 -141q-92 -37 -161.5 -41t-106.5 39q-39 43 -19.5 106.5t97.5 139.5q53 51 112 100q31 23 63 46.5t64 47.5 q4 23 5.5 43.5t5.5 46.5q16 8 36.5 17.5t30.5 9.5q72 0 127.5 -16.5t87.5 -61.5q31 -47 56.5 -97t31.5 -116q10 -117 -145 -235q-96 -74 -193.5 -147t-195.5 -140q-100 -70 -202.5 -133.5t-205.5 -128.5q-33 -20 -66.5 -36t-66.5 -28q-67 -24 -55 33zM602 626.5 q12 -14.5 41 -3.5q49 12 95 36.5t81 65.5q47 53 79.5 107.5t14.5 109.5q-59 -43 -106 -75.5t-90 -65.5q-41 -31 -66.5 -66t-44.5 -69q-16 -25 -4 -39.5z" />
<glyph unicode="?" horiz-adv-x="1110" d="M211 -216q-12 15 10 34q25 20 64 34.5t65 10.5q20 -4 21 -21q0 -23 -23 -41q-10 -10 -25.5 -17t-27.5 -11q-10 -4 -17.5 -4t-17.5 -2q-37 2 -49 17zM381 123q29 59 64.5 120.5t97.5 127.5q74 76 149.5 148.5t167.5 139.5q76 57 149.5 113.5t149.5 114.5q106 82 211 162.5 t197 173.5q104 104 -8 98q-98 -6 -205 -33.5t-230 -81.5q-113 -53 -210 -124.5t-177 -157.5q-63 -68 -113.5 -134.5t-84.5 -132.5q-16 -33 -49 -49t-64 -12q-27 4 -37 19.5t6 43.5q76 131 182.5 257t284.5 245q72 47 141.5 84t141.5 64q160 59 299 86.5t246 3.5 q39 -6 57 -21q59 -37 -14 -135q-82 -104 -209 -199q-86 -68 -174 -135t-176 -135q-59 -47 -120 -93t-122 -93q-219 -171 -346 -355q-23 -29 -40.5 -55t-39.5 -53q-10 -14 -33.5 -28.5t-40.5 -18.5q-16 -4 -28.5 0t-20.5 10q-10 8 -2 35z" />
<glyph unicode="@" horiz-adv-x="1007" d="M119.5 139q17.5 76 156.5 205q152 139 319 238.5t349 154.5q92 29 163 28t118 -42q31 -27 39 -69t-6.5 -92t-49 -106.5t-90.5 -111.5q-29 -27 -63.5 -45t-63.5 -18q-35 0 -68.5 3t-70.5 5q-68 -47 -137.5 -87t-145.5 -63q-92 -25 -131 6q-35 31 -15.5 87.5t85.5 115.5 q61 51 121 96q66 47 118 77t99 42t92 9t94 -21q0 -16 -11 -36.5t-20.5 -41t-7.5 -36t31 -19.5q41 18 59.5 44.5t30.5 53.5q10 27 19.5 52.5t5.5 45.5q-2 41 -36 54.5t-93 3.5q-57 -10 -113.5 -35t-114.5 -51q-123 -57 -229.5 -135t-202.5 -170q-150 -143 -47 -203 q35 -20 78 -21q61 -2 124.5 -2t139.5 23q35 10 66.5 16t60.5 10q10 2 19.5 -5t5.5 -13q-4 -10 -17.5 -19.5t-25.5 -19.5q-10 -8 -19.5 -12t-19.5 -8q-180 -66 -318.5 -72t-224.5 59q-70 49 -52.5 125zM594 254q6 -6 25.5 -3t35.5 11q76 37 120 87t73 118q-72 -35 -129 -73 t-105 -89q-12 -12 -18 -29.5t-2 -21.5z" />
<glyph unicode="A" horiz-adv-x="1697" d="M-8 -47q12 59 55 125q55 78 112.5 154.5t114.5 154.5q37 47 72 91t64 83q2 23 -9.5 35t-22.5 22.5t-17.5 25.5t10.5 44q41 8 79.5 14.5t84.5 14.5q25 29 48 53.5t46 52.5q156 193 310.5 383.5t309.5 382.5q20 27 42 55.5t26 51.5q10 59 52 111.5t89 103.5q41 45 83 88 t85 88q40 39 76 39q11 0 22 -4q25 -10 30 -34t-13 -48q-12 -16 -23.5 -30.5t-25.5 -31.5q-215 -266 -426 -528t-424 -530q-37 -45 -73.5 -90.5t-59.5 -92.5q22 -6 44 -6q76 0 154 78q121 121 239 238.5t240 234.5q207 195 414 386.5t414 383.5q29 27 63 51q41 33 75 33 q19 0 36 -10q20 -12 20 -32q0 -18 -16 -42q-8 -12 -17.5 -24.5t-17.5 -22.5q-164 -217 -327.5 -434t-325.5 -434q-43 -59 -83 -119t-87 -127q31 2 53.5 0t44.5 2q72 10 139.5 23.5t137.5 23.5q23 4 49.5 8t40.5 -18q-70 -45 -133.5 -60.5t-126.5 -31.5q-66 -16 -131.5 -29.5 t-132.5 -30.5q-23 -29 -44.5 -55.5t-37.5 -52.5q-188 -293 -279 -584q-40 -120 -40 -219q0 -96 52 -172q42 -55 104 -86q47 -23 115 -24q22 0 46 3q16 4 32.5 1t46.5 -7q-35 -18 -53 -30.5t-35 -16.5q-48 -8 -90 -8q-56 1 -102 15q-80 24 -137 79q-79 77 -95 185 q-5 33 -5 69q0 81 26 174q35 135 97.5 272.5t142.5 276.5q18 33 34.5 64.5t34.5 66.5q-88 -4 -175 -22.5t-175 -40.5q-35 -8 -62.5 -26.5t-54.5 -47.5q-80 -84 -159.5 -167t-159.5 -169q-70 -72 -135.5 -140.5t-130.5 -138.5q-25 -29 -60 -55q-31 -23 -61.5 -38t-59.5 -11 q-33 8 -53 23.5t-10 56.5zM270 189.5q0 -11.5 2 -31.5q106 121 219 228t207 230q-18 2 -33 2q-25 0 -47 -6q-34 -10 -65 -49q-72 -90 -140.5 -177t-138.5 -177q-4 -8 -4 -19.5zM1030 782q84 6 161 20.5t161 37.5q18 16 27.5 25t13.5 18q141 195 280 387t279 389q4 2 -2 6 t-11 8q-10 -6 -19 -11t-13 -11q-211 -203 -420 -402.5t-418 -404.5q-10 -10 -18.5 -25.5t-20.5 -36.5z" />
<glyph unicode="B" horiz-adv-x="2697" d="M137 182v7q0 65 36 133q38 72 98.5 140t136 129.5t151.5 106.5q121 72 241 140.5t247 115.5q72 29 143.5 62t142.5 61q72 29 143.5 55.5t143.5 55.5l65.5 65.5t55 63.5t32 60.5t-7.5 54.5q37 29 77 55t63 55q33 41 56.5 84t45.5 84q16 25 25.5 49.5t21.5 50.5 q72 37 111 39h6q34 0 53 -20q6 -8 -3 -27.5t-21 -38.5q-29 -41 -68 -83t-51 -78q6 -20 31.5 -13.5t48.5 10.5q47 8 95 18.5t89 14.5q186 14 386 82t417 166q12 6 26.5 18.5t34.5 28.5q-8 8 -13 17.5t-15 13.5q-47 20 -104.5 28.5t-122 8.5t-133 -4t-136.5 -11 q-190 -14 -390 -45.5t-417 -93.5q-16 -4 -27.5 -4t-21.5 2q-4 0 -5 3t3 7q4 6 10 15.5t10 11.5q31 14 61.5 27.5t57.5 19.5q193 45 380 84t364 55q117 10 229.5 15t226.5 12q12 1 23 1q42 0 72 -13q38 -16 69 -37q20 -16 19 -43t-15 -62q-18 -59 -98 -98q-63 -29 -125 -54.5 t-123 -53.5q-29 -12 -60.5 -25.5t-76.5 -34.5q55 -18 102 -32.5t88 -32.5q101 -41 157 -112q49 -62 49 -154q0 -13 -1 -27q-6 -150 -127 -308.5t-356 -316.5q-317 -211 -647 -358q-500 -218 -933 -318q-312 -72 -588 -72q-107 0 -208 11q-248 29 -250 233zM246 279 q-7 -30 -7 -56q0 -33 12 -58q21 -44 73 -73q80 -41 190 -47q47 -3 98 -3q67 0 140 5q313 20 654 115.5t716 261.5q188 84 367.5 186.5t353.5 229.5q268 201 286 381q1 16 1 32q0 31 -5 58q-8 41 -37 71q-118 135 -328 169q-59 9 -126 9q-175 0 -410 -63 q-72 -18 -143.5 -34.5t-151.5 -51.5q-43 -45 -72.5 -85t-41.5 -77q12 -4 32.5 0t39 7.5t30.5 1t10 -20.5q-27 -27 -54.5 -39t-55 -21.5t-56 -19.5t-57.5 -31q-55 -53 -94 -108t-76 -110.5t-78 -113t-102 -114.5q-18 14 -17.5 35.5t12 45t28 48.5t26.5 47q10 25 31.5 52.5 t43 54t38 52t14.5 48.5q-10 0 -18.5 1t-16.5 -3q-195 -70 -389.5 -155t-390.5 -197q-74 -43 -145.5 -92.5t-143.5 -100.5q-84 -59 -124 -118.5t-56 -118.5z" />
<glyph unicode="C" horiz-adv-x="2689" d="M171 288q38 152 200 324q111 117 229.5 220.5t253.5 195.5q133 92 263 183.5t267 168.5q309 174 615.5 331t621.5 282q66 27 133.5 46t131.5 29q30 4 57 4q51 0 91 -15q60 -23 65 -103v-10q1 -28 -9 -57q-12 -34 -47 -68q-35 -37 -70.5 -73t-76.5 -69 q-236 -197 -480.5 -377t-500.5 -350q-49 -33 -103.5 -61.5t-107.5 -50.5q-55 -23 -100 -23t-70 35q-17 26 -17 57q0 50 44 113q35 51 81 98t99 88q104 80 205.5 160t203.5 160q39 29 63.5 35t47.5 -7q23 -10 18.5 -32.5t-30.5 -42.5q-74 -57 -149 -112.5t-150 -113.5 q-66 -51 -127.5 -104t-114.5 -115q-16 -18 -27.5 -37.5t-29.5 -46.5q63 0 121.5 25.5t113.5 62.5q119 82 237 165t236 169q80 57 159 115.5t157 118.5q90 70 176 139.5t145 161.5q4 41 -18 55q-19 12 -52 12h-10q-82 -2 -170 -26.5t-178 -63.5q-231 -98 -457.5 -208.5 t-455.5 -239.5q-373 -207 -727 -465q-113 -84 -219.5 -173t-202.5 -188q-35 -37 -69 -73.5t-62 -77.5q-73 -101 -91 -187q-5 -24 -5 -47q0 -58 34 -104q43 -61 107.5 -99t159.5 -47q57 -4 115 -4q54 -1 108 3q112 8 235 30q45 8 133.5 30.5t206 55.5t254.5 74t278.5 83 t280 84t256 78.5t206.5 64.5t136 44q78 27 157 50.5t155 45.5q12 -23 0.5 -35t-33.5 -22q-84 -37 -211 -85t-281.5 -102.5t-328.5 -110.5t-352.5 -110.5t-351.5 -103.5t-324.5 -86t-274.5 -60.5t-201 -27.5q-39 -2 -76 -2q-124 -1 -225 25q-131 34 -215 133q-67 78 -67 177 q0 40 11 84z" />
<glyph unicode="D" horiz-adv-x="3358" d="M312 -142q-9 27 -10 59q0 51 24 114q39 96 96 189t143 183q174 186 352.5 364.5t382.5 344.5q45 35 89.5 71t87.5 70q51 39 101 75t103 77q12 -10 24.5 -16.5t12.5 -16.5q4 -16 -2 -35.5t-16 -36.5q-59 -84 -119.5 -164.5t-124.5 -162.5q-47 -66 -100 -131.5t-103 -130.5 q-117 -150 -203.5 -298.5t-140.5 -299.5q-10 -29 -21 -59.5t-54 -57.5q-29 8 -30 30.5t7 51.5q41 141 106.5 281.5t176.5 283.5q90 121 182 244t203 266q-39 -23 -56.5 -32t-27.5 -19q-219 -182 -424 -372.5t-385 -401.5q-57 -66 -98.5 -133.5t-73.5 -135.5q-27 -55 -27 -96 q-1 -21 7 -39q22 -51 98 -67q63 -13 130 -13q52 0 106 8q124 18 255 52q236 61 472.5 142t475.5 173q162 61 324 124t323 134q119 53 238 106.5t236.5 113t234.5 127t231 151.5q84 61 159 130t147 142q47 49 78 111q32 62 44 124q7 37 8 71q0 23 -4 45q-8 54 -40 83 q-45 45 -102.5 78t-131.5 49q-172 37 -360 38h-22q-177 0 -365 -15q-381 -31 -774.5 -117t-804.5 -233q-82 -29 -164 -64t-164 -74q-74 -35 -127 -66.5t-97 -67t-85 -81t-90 -108.5q-39 -12 -42 5t1 40q23 72 78 132t133 112q104 66 206.5 113.5t206.5 88.5 q170 66 339 121.5t337 96.5q342 86 669.5 144t639.5 62q69 2 137 2q50 0 100 -1q116 -3 230 -17q78 -10 145.5 -33.5t122.5 -58.5q72 -43 102 -121q20 -52 21 -113q1 -31 -5 -64q-16 -99 -80.5 -213t-182.5 -226q-131 -123 -275.5 -217.5t-298.5 -176.5 q-360 -193 -718.5 -344t-721.5 -286q-190 -70 -377.5 -133.5t-373.5 -108.5q-197 -45 -391 -68q-32 -4 -62 -4q-21 0 -41 2q-50 4 -96 15q-90 19 -114 89z" />
<glyph unicode="E" horiz-adv-x="1794" d="M184 276v7q0 132 154 262q147 119 309 200q55 29 111.5 56.5t128.5 62.5q-23 20 -39.5 32.5t-24.5 27.5q-23 41 -49 77.5t-39 83.5q-8 33 -8 64q-1 65 35 125q52 88 164 174q182 139 383 231q150 72 297 122t292 83q362 82 704 124q300 37 587 37q41 0 82 -1 q63 0 120.5 -9.5t110.5 -25.5q35 -10 61.5 -32.5t49.5 -47.5q12 -16 15 -39.5t7 -52.5q0 -10 -9 -13t-19.5 -3t-19.5 2t-11 4q-37 43 -87 67.5t-111.5 37t-130.5 13.5h-28q-56 0 -112 -3q-211 -12 -421 -32t-431 -57q-225 -37 -451.5 -95t-468.5 -169q-195 -90 -360 -225 q-90 -72 -122 -131q-24 -45 -24 -97q0 -16 2 -34q18 -94 91 -146q41 -29 91 -36q12 -2 25 -2q43 0 101 18q85 25 163 32q42 4 83 4q35 0 69 -3q51 -4 89 -21.5t54 -54.5q2 -8 2 -21.5t-6 -21.5q-14 -12 -32.5 -25.5t-32.5 -15.5q-80 -15 -160 -25q-34 -4 -67 -4q-43 0 -82 8 q-25 6 -51.5 9.5t-49.5 7.5q-24 4 -49 4q-22 0 -46 -3q-50 -7 -105 -34q-90 -43 -179.5 -87t-179.5 -91q-35 -18 -68.5 -43t-66.5 -51q-141 -117 -141 -221q0 -33 14 -64q25 -53 70 -90t116 -49q78 -13 161 -13q145 0 308 39q96 25 160 41.5t117 34t111.5 39t146.5 53.5 q182 84 357 164t354 182q12 14 17 11.5t3 -17t-11 -33t-24 -34.5q-41 -43 -87 -64.5t-95 -50.5q-59 -35 -126 -68.5t-138 -70.5q-104 -63 -202.5 -105.5t-203.5 -74.5q-61 -27 -107 -42.5t-90 -25.5t-94.5 -21.5t-124.5 -27.5q-147 -35 -275 -35q-116 0 -216 29 q-111 31 -173.5 101.5t-66.5 188.5z" />
<glyph unicode="F" horiz-adv-x="1820" d="M70 -2q2 20 4 42.5t14 45.5q25 43 71 110.5t94 146.5t90 163t60 160q10 41 22.5 84t23.5 84q74 53 146.5 85.5t145 55t144 41t145.5 43.5q49 49 107.5 100t111.5 119q-76 -10 -141.5 -26.5t-128.5 -28.5q-27 -4 -53.5 -11.5t-51.5 -11.5q-47 -10 -57 4q-4 6 -4 18 q0 19 10 54q2 4 5 8t8 14q33 16 66.5 34t68.5 34q246 117 486.5 229.5t488.5 229.5q53 25 105 51.5t106 65.5q29 23 52 22.5t32 -18.5q8 -18 -0.5 -43t-30.5 -43q-25 -18 -50.5 -36t-54.5 -36q-92 -63 -184 -127t-184 -127q2 -18 12 -24.5t24.5 -5.5t31 5t28.5 9 q276 59 549.5 119.5t554.5 131.5q160 41 318.5 94.5t324.5 135.5q27 14 54.5 25.5t53.5 21.5q46 18 58 4q7 -8 6 -27q0 -16 -4 -41q-43 -35 -88 -51t-88 -35q-223 -88 -440.5 -155.5t-434.5 -118.5q-270 -63 -535.5 -125.5t-535.5 -120.5q-61 -12 -113.5 -38.5t-98.5 -61.5 t-90 -78t-89 -92q33 2 58.5 1t47.5 3q178 28 343 28h12q170 -1 336 -8q53 -4 104 -11t105 -15q10 -2 21 -5t18.5 -10.5t7.5 -20.5t-13 -34q-25 -14 -44 -18t-36.5 -4t-33 3t-31.5 5q-143 12 -292 12q-263 0 -546 -37q-20 -2 -40.5 -6t-41.5 -4q-80 -6 -146.5 -46 t-131.5 -112q-35 -37 -85 -93t-108.5 -121.5t-121 -135t-122 -134t-110.5 -120t-86 -92.5q-35 -35 -73 -68.5t-76 -68.5q-25 -23 -52.5 -21t-27.5 25zM210 190h2q9 0 52 48q27 29 70 76.5t94 104t106.5 119t106.5 120t94 104.5t70 78q8 10 7 21t1 22q-57 -8 -115.5 -31 t-117.5 -51q-78 -41 -99 -111q-20 -59 -54 -121.5t-71 -123t-73 -113.5t-56 -92q-23 -46 -17 -50zM1352 1440q2 -14 12 -17.5t22.5 -1.5t24.5 7.5t23 9.5q59 12 90 75q-43 -4 -85 -24t-87 -49z" />
<glyph unicode="G" horiz-adv-x="2334" d="M-98 -229q18 86 82 190q70 121 163 237.5t197 233.5q215 240 446.5 465t477.5 449q346 315 705.5 615t738.5 587q92 72 187 134t198 118q104 57 195 84q63 18 123 18q27 0 54 -4q113 -14 137 -89q7 -19 7 -40q0 -66 -56 -160q-98 -168 -256 -330q-424 -430 -950 -763 q-29 -16 -56.5 -32t-53.5 -32q-29 -14 -46.5 -20.5t-31 -3t-24.5 14.5t-25 34q16 12 31.5 24t31.5 23q295 172 555 373.5t490 441.5q84 86 149.5 170t106.5 174q21 44 21 74q0 26 -16 43q-21 21 -65 21q-28 0 -65 -9q-59 -14 -122 -40t-122 -65q-98 -59 -194.5 -121.5 t-186.5 -131.5q-596 -459 -1151 -945.5t-1047 -1010.5q-133 -143 -250.5 -286.5t-197.5 -293.5q-16 -31 -30.5 -62.5t-20.5 -60.5q-8 -36 -8 -66q0 -92 71 -129q43 -24 107 -24q76 0 182 33q143 43 284.5 114.5t282.5 157.5q328 199 630 420t601 461q41 35 83 70.5t65 87.5 q-66 -4 -134.5 -18.5t-138 -33t-139.5 -37t-133 -26.5q-25 -2 -31 14.5t0 37t19.5 39.5t27.5 24q229 55 456.5 105t455.5 91q14 2 34.5 5t39 4t30.5 -1t10 -10q-8 -47 -51 -61q-27 -8 -58.5 -18.5t-62.5 -20.5t-57.5 -22.5t-44.5 -26.5q-35 -35 -55.5 -56.5t-55.5 -54.5 q-129 -129 -241.5 -260t-194.5 -270q-55 -98 -85 -186.5t-32 -170.5v-19q0 -28 4 -50q6 -31 28 -49.5t60 -20.5h8q36 0 91 14q10 2 17.5 0t23.5 -4q-10 -12 -19.5 -28.5t-19.5 -22.5q-72 -39 -129 -42h-14q-48 0 -85 17q-104 50 -104 168q0 168 113 375q6 14 18 38 t21.5 44.5t10.5 32.5t-14 6q-25 -18 -51 -36.5t-53 -37.5q-174 -119 -344 -236.5t-344 -234.5q-135 -90 -271.5 -163.5t-273.5 -131.5q-109 -45 -206 -70q-90 -24 -176 -24h-13q-102 0 -168 35t-90 97q-14 35 -14 78q0 32 8 69z" />
<glyph unicode="H" horiz-adv-x="1513" d="M113 -477q86 170 171 341t173 349q14 -23 20 -37t5 -31.5t-11 -44t-31 -73.5q-23 -53 -46 -109.5t-56 -130.5q57 55 102 106.5t82 101.5t71 98t71 95q72 94 138 188.5t130 188.5q66 98 138.5 196.5t131.5 203.5q-26 3 -52 3q-52 0 -104 -10q-80 -16 -159 -32 q-33 -6 -80 -17.5t-92 -25t-80 -28.5t-41 -34q-4 -16 -5 -37.5t-1 -40.5q-2 -20 0 -37.5t4 -37.5q0 -8 -7 -20.5t-16 -22.5q-8 -12 -27.5 -10.5t-23.5 14.5q-12 53 -35.5 101t-25.5 110q4 20 32.5 39.5t66.5 35t79 26.5t70 17q92 23 181 40.5t179 33.5q47 10 94 15.5 t90 13.5q53 37 79 72.5t48 70.5q186 274 371.5 545.5t374.5 546.5q10 18 26.5 35.5t30.5 31.5q28 9 46 9q11 0 19 -4q18 -11 33 -33q-94 -152 -210.5 -302.5t-221.5 -303.5q-104 -154 -207.5 -308.5t-214.5 -318.5q33 -5 66 -5q29 0 58 4q61 9 126 25q111 127 197 256 t182 258q94 131 184.5 261.5t184.5 267.5q16 0 34.5 3t26.5 -3q10 -10 15.5 -25.5t-3.5 -32.5q-18 -39 -45.5 -77.5t-54.5 -79.5q-141 -199 -279.5 -392.5t-273.5 -383.5q0 -33 23.5 -36t46.5 -3q109 4 215 9t215 9q27 0 63 1h14q28 0 52 -3q31 -4 48 -12t9 -27 q-8 -12 -37.5 -17t-69.5 -7q-27 -1 -55 -1h-28h-28q-27 0 -50 -1q-57 -4 -114.5 -7.5t-116.5 -7.5q-66 -4 -127.5 -10t-118.5 -10q-57 -41 -86 -87t-58 -85q-35 -53 -93 -138.5t-119.5 -175.5t-120 -175t-93.5 -138q-10 -16 -22 -31.5t-25 -31.5q-35 -43 -88 -48 q-27 -2 -39 13.5t-2 36.5q10 16 19.5 31.5t19.5 31.5q39 55 96.5 140t119 175.5t118.5 175.5t96 140q20 29 47 66.5t43 66.5q-26 5 -53 5q-26 0 -56 -5q-58 -10 -124 -29q-68 -76 -121 -153.5t-108 -155.5q-172 -250 -349.5 -495.5t-384.5 -493.5q-29 -35 -58.5 -69 t-64.5 -68q-46 -50 -78 -56q-6 -1 -14 -1q-28 0 -71 22z" />
<glyph unicode="I" horiz-adv-x="999" d="M-89 -178.5q1 10.5 7 20.5q10 10 27.5 21.5t29.5 15.5q31 8 63 12.5t66 10.5q29 4 57.5 10t61.5 12q23 25 40.5 45.5t31.5 40.5q342 455 647 900.5t584 893.5q27 41 52.5 80t55.5 80q47 66 115 120t154 101q104 57 202.5 93t194.5 57q198 41 362 42h13q157 0 297 -23 q35 -4 54 -20q10 -9 10 -26q0 -15 -7 -35q-78 4 -150.5 11.5t-148.5 10.5q-27 1 -54 1q-50 0 -103 -4q-81 -6 -175 -25q-268 -287 -530 -573.5t-514 -573t-488.5 -574.5t-449.5 -579q25 -10 52.5 -21.5t61.5 -25.5q-37 -16 -60.5 -28.5t-39.5 -16.5q-115 -23 -224.5 -43 t-217.5 -39q-23 -4 -40.5 1t-29.5 13q-8 4 -7 14.5zM1171 1098q-6 -4 0.5 -8.5t12.5 -14.5q33 39 62.5 71t51.5 62q55 78 124 154t149 151q25 23 50.5 47.5t47.5 49.5q92 100 180 200.5t181 202.5q41 47 82 94.5t86 100.5q-25 -4 -39.5 -5t-28.5 -5q-160 -61 -282 -150.5 t-203 -214.5q-119 -184 -238 -366.5t-236 -368.5z" />
<glyph unicode="J" horiz-adv-x="1628" d="M122 -356q-6 15 -6 34q0 35 23 84q51 111 147.5 223.5t213.5 229.5q41 41 85 80t85 80q45 41 83 71.5t78 65.5q236 197 479.5 375t512.5 332q41 23 71.5 48t55.5 56q113 139 228.5 278.5t197.5 274.5q27 47 51 94t41 90q6 18 6 32q0 24 -20 34q-13 5 -30 5q-29 0 -73 -15 q-39 -12 -81 -31t-83 -41q-80 -47 -156.5 -93t-154.5 -100q-281 -188 -532.5 -389.5t-493.5 -419.5q-98 -88 -184 -177t-158 -181q-80 -105 -80 -166q0 -68 96 -84q23 -4 51.5 0t45.5 4q35 2 29.5 -18t-25.5 -47q-29 0 -39.5 -1t-38.5 -1q-31 0 -63.5 -3t-61.5 1 q-139 19 -139 110q0 86 123 236q104 129 239 258q268 248 554 477t599 444q80 55 163 106.5t169 98.5q80 47 153.5 71.5t143.5 35.5q33 4 60 4q74 0 103 -32q18 -20 18 -51q0 -39 -28 -97q-51 -104 -124.5 -213t-161.5 -220q-43 -57 -88 -114.5t-92 -120.5q39 4 72.5 7 t64.5 3q33 0 63.5 -1t55.5 -9q43 -12 43 -52q0 -5 -1 -10q-6 -49 -65 -118q-49 -55 -123 -68q-4 10 0 23.5t11.5 28t17.5 29.5t16 30q18 32 18 49q0 8 -3 12q-11 17 -58 12q-51 -4 -110.5 -22.5t-126.5 -58.5q-16 -16 -31.5 -32t-32.5 -32q-186 -211 -371.5 -418 t-377.5 -418q-94 -102 -194.5 -202.5t-207.5 -202.5q-47 -47 -105.5 -93t-117.5 -87q-90 -63 -177 -102q-77 -34 -141 -34q-8 0 -16 1q-76 4 -95 47zM258 -269.5q0 -17.5 10.5 -26.5t36.5 -9q47 2 100.5 33.5t100.5 70.5q78 66 155.5 132.5t145.5 136.5q170 174 334 349 t329 351q59 66 118 136.5t141 166.5q-61 -35 -92 -52.5t-54 -33.5q-78 -53 -152.5 -106.5t-146.5 -106.5q-231 -172 -436 -350t-383 -371q-59 -61 -106.5 -121.5t-73.5 -119.5q-10 -20 -18.5 -41t-8.5 -38.5z" />
<glyph unicode="K" d="M-53 -514q23 33 42 60.5t40 54.5q16 23 35.5 38t48.5 27q23 10 48 26.5t42 33.5q180 180 344 360t317 363q-10 18 -29.5 10t-35.5 -19q-53 -29 -106.5 -60.5t-106.5 -57.5q-68 -35 -135.5 -64t-135.5 -57q-23 -10 -45 -15.5t-45 -9.5q-22 -4 -38 -4q-51 0 -60 32 q-2 6 -2 13q0 40 59 107q260 291 609 440q74 31 128 33h10q48 0 85 -17q10 -4 17 -13t16 -15q8 -8 19 -13.5t26 -15.5q49 51 90 98t78 94q254 307 489.5 614.5t470.5 614.5q78 102 155 202.5t154 201.5q16 20 35 39.5t35 38.5q13 1 25 1q36 -1 46 -11q12 -14 -18 -54 q-53 -72 -112.5 -145.5t-114.5 -145.5q-215 -281 -428 -558t-430 -558q-47 -63 -102.5 -127.5t-116.5 -142.5q178 84 290 200q88 92 188.5 162t201.5 144q20 14 44.5 19t43.5 7q12 0 17 -10t13 -21q-80 -80 -166 -146t-174 -130q-131 -92 -262 -181t-262 -179 q-23 -16 -48.5 -33t-45.5 -33q-45 -39 -74 -78q-25 -33 -25 -64q0 -5 1 -10q10 -117 29.5 -228t84.5 -198q41 -55 107.5 -86.5t169.5 -31.5h15q28 0 50 -6q28 -8 60 -11q2 -2 0 -7t-4 -11q-122 -37 -216 -37q-10 0 -22 1q-102 5 -180 44q-66 33 -107 84t-59 119 q-18 59 -32.5 118.5t-31.5 125.5q-27 -23 -45 -36.5t-30 -27.5q-98 -109 -191.5 -216.5t-193.5 -213.5q-90 -96 -185.5 -188.5t-193.5 -184.5q-23 -23 -52.5 -41t-56.5 -22q-16 -2 -29.5 1zM242 270q27 -12 62.5 -1.5t74.5 26.5q141 61 279.5 143t285.5 176q-10 51 -30.5 77 t-54.5 29h-9q-31 0 -75 -18q-50 -20 -122 -63q-117 -68 -215 -148.5t-178 -177.5q-8 -10 -11 -21t-7 -22z" />
<glyph unicode="L" horiz-adv-x="1894" d="M-317 -653q-7 13 -7 28q0 28 25 62q166 199 351.5 342t404.5 213q96 29 186 98q328 250 643.5 510t620.5 549q217 207 414.5 427t371.5 466q57 78 104.5 157.5t81.5 165.5q36 90 36 155q0 28 -7 51q-22 77 -145 114q-41 12 -85 12q-16 0 -34 -2q-62 -6 -125 -26 q-303 -96 -557 -283.5t-459 -487.5q-31 -47 -55.5 -96t-52.5 -96q-16 -27 -42 -32t-38 14q-10 18 -15.5 40.5t11.5 47.5q59 92 115.5 183t123.5 175q199 244 434.5 399.5t497.5 239.5q111 37 209 37q11 0 23 -1q108 -5 192 -77q94 -82 106 -196q2 -17 3 -34q0 -102 -62 -233 q-47 -102 -110.5 -195.5t-130.5 -185.5q-205 -276 -439.5 -521t-488.5 -474q-205 -186 -413 -359.5t-423 -338.5q-39 -31 -80 -62t-82 -78q41 -23 87.5 -34t92.5 -17t92 -11t89 -18q86 -23 173 -41t173 -36q92 -16 182 -32t183 -32q94 -14 186 -25.5t188 -21.5 q94 -10 189.5 -15t191.5 -10q64 -3 126 -3q31 0 63 1h30q77 0 152 -8q57 0 131 2t150.5 6t151.5 12.5t136 18.5q12 -2 0 -16.5t-32.5 -29.5t-43 -28.5t-34.5 -13.5q-72 -18 -146.5 -25.5t-145.5 -9.5q-47 -1 -90 -1h-41q-60 1 -104 3q-215 10 -428 19.5t-426 25.5 q-115 10 -222 29.5t-218 40.5q-174 33 -347 67.5t-351 67.5q-35 8 -73 8t-73 4q-23 3 -46 3q-52 0 -104 -16q-74 -23 -155 -87q-137 -104 -274.5 -203.5t-276.5 -201.5q-37 -27 -74.5 -52.5t-76.5 -48.5q-23 -13 -42 -13q-29 0 -46 34z" />
<glyph unicode="M" horiz-adv-x="3366" d="M-78 -193q23 66 51.5 133.5t81.5 141.5q68 88 133.5 175t137.5 173q227 281 433 555.5t398 554.5q37 51 63.5 102.5t59.5 110.5q33 8 54 8q36 0 35 -24q0 -11 -7 -27q-14 -29 -31.5 -60.5t-42.5 -64.5q-207 -299 -427 -595t-462 -595q-76 -92 -134 -175t-75 -124 q16 20 25.5 30.5t17 19t17.5 18.5t26 31q37 41 73 78.5t71 76.5q156 182 317.5 361.5t337.5 357.5q96 96 197.5 189.5t206.5 185.5q49 45 104 85t117 70q43 21 82 29q23 5 42 4q12 0 24 -2q28 -6 39 -25.5t-3 -52.5q-20 -57 -51 -114.5t-70 -116.5q-98 -152 -199.5 -301.5 t-205.5 -300.5q-59 -92 -121.5 -182.5t-122.5 -182.5q-94 -147 -119 -284q-4 -16 -1 -30.5t7 -37.5q29 23 54.5 40t44.5 34q96 92 192.5 181t190.5 181q123 119 242.5 237t242.5 234q31 27 72 60q74 61 122 81q40 16 89 16q10 0 20 -1q60 -4 60 -52v-9q-6 -31 -12.5 -63 t-12.5 -62q-12 -53 -23.5 -105.5t-21.5 -105.5q-7 -46 -7 -87q0 -79 24 -141q38 -96 124 -161q109 -83 274 -83q199 0 480 121q84 35 167 76t167 82q74 35 147.5 70t141.5 69q14 -16 1.5 -30.5t-32.5 -26.5q-424 -272 -836 -391q-160 -47 -283.5 -47t-224.5 35 q-295 100 -295 387q0 76 21 166q12 47 23.5 93t21.5 91q4 20 6 41.5t-6 28.5q-8 4 -25.5 -4.5t-37 -21.5t-40 -28.5t-34.5 -27.5q-152 -129 -285 -263.5t-264 -269.5q-66 -70 -132.5 -139.5t-137.5 -138.5q-39 -35 -83 -71t-92 -65q-53 -35 -95 -40q-10 -1 -18 -1 q-30 0 -52 13q-40 26 -40 78q0 19 5 41q45 182 182 380q80 117 164 231t162 228q72 104 142.5 206.5t135.5 205.5q33 53 59.5 103t53.5 100q4 14 10 34.5t-8 18.5q-68 -31 -121 -73t-106 -83q-147 -123 -277.5 -253t-259.5 -263q-186 -197 -353 -392.5t-329 -393.5 q-53 -63 -107.5 -126t-111.5 -126q-20 -25 -47 -41.5t-56 -20.5q-31 -4 -47 8.5t-8 40.5z" />
<glyph unicode="N" horiz-adv-x="2181" d="M177 307q-7 12 5 35q16 29 32.5 55.5t39.5 55.5q117 154 235.5 307t233.5 307q86 117 167 231.5t167 237.5q16 6 38.5 16.5t43.5 14.5q17 3 30 3q41 0 41 -32q0 -16 -10 -39q-27 -66 -56.5 -131t-62.5 -131q-121 -258 -231.5 -510t-200.5 -504q-37 -98 -60.5 -192 t-23.5 -181v-12q0 -88 56 -139q47 -43 125 -42q18 0 40 2q106 13 232 91q287 178 504 418q154 170 306 339t292 343q80 102 153.5 204.5t149.5 207.5q47 66 82 133t65 133q38 92 54 171q5 25 5 49q0 50 -22 91q-4 8 -2 19.5t0 31.5q27 -2 49.5 0t30.5 -8q43 -44 55 -104 q4 -18 4 -38q0 -47 -20 -106q-29 -98 -83 -198.5t-126 -204.5q-158 -233 -342 -458.5t-391 -450.5q-72 -78 -144.5 -155t-148.5 -153q-152 -152 -342 -274q-154 -100 -303 -137q-97 -23 -174 -23q-86 0 -148 29q-111 52 -110 192v15q2 115 39.5 239.5t93.5 257.5 q68 160 135.5 321t134.5 322q4 6 0 14t-8 31q-135 -182 -262 -350t-258 -342q-18 -4 -40 -9t-40 -5q-23 0 -30 12z" />
<glyph unicode="O" horiz-adv-x="1783" d="M-121 -371q-4 22 -4 44q-1 31 7 63q14 56 44 117q125 270 332 536q180 229 379 445.5t422 427.5q109 102 209 206.5t192 217.5q178 219 400 403q135 111 267 165q111 46 222 46q20 0 41 -2q176 -12 213 -158q10 -46 10 -95q0 -126 -65 -269q-23 -55 -50.5 -111 t-56.5 -111q-104 -190 -241.5 -369t-286.5 -360q-281 -330 -602.5 -617.5t-696.5 -535.5q-86 -57 -174 -106t-180 -78q-78 -25 -144 -26h-6q-61 0 -109 18q-50 18 -82 56t-40 93zM17 -266q-4 -21 -4 -41q0 -38 14 -72q29 -59 93 -71q14 -3 29 -3q55 0 130 35q72 35 142.5 75 t139.5 85q182 121 351 255t331 279q254 225 469 465t406 496q213 285 319 567q35 92 46 175q4 29 4 58q0 51 -13 99q-8 36 -34 56q-21 16 -61 17q-8 0 -18 -1q-25 -14 -51 -31.5t-51 -24.5q-92 -25 -172 -79t-152 -119q-109 -98 -213 -195.5t-209 -193.5 q-92 -82 -163.5 -167t-137.5 -177q-37 -51 -71.5 -101.5t-67.5 -103.5q-53 -84 -97 -166t-67 -164q-10 -39 -9 -70q0 -19 3 -36q10 -43 53 -72q14 -10 31 -14.5t29 -14.5q4 -4 4 -16t2 -31q-37 4 -64.5 5t-50.5 7q-137 34 -137 152q0 55 29 127q16 43 35.5 90t48.5 119 q-39 -35 -58.5 -50.5t-31.5 -29.5q-117 -121 -223.5 -245t-202.5 -253q-88 -121 -168 -242.5t-138 -244.5q-33 -71 -44 -133z" />
<glyph unicode="P" horiz-adv-x="2043" d="M-35 -926.5q-4 13.5 2 29.5q23 82 64 165t94 169q131 211 264 421t268 421q29 43 61 86t62 84q23 31 44.5 62.5t47.5 68.5q-29 10 -62 10q-19 0 -38 -3q-55 -9 -108 -18q-51 -8 -93 -8q-13 0 -25 1q-52 3 -100 16q-65 18 -65 79q0 21 8 48q41 133 176 260 q68 66 140.5 131t150.5 125q307 229 622.5 437t647.5 390q37 20 73.5 39.5t69.5 38.5q15 2 26 2q47 0 47 -34q0 -5 -1 -11q-4 -20 -16.5 -44t-34.5 -44q-109 -119 -219.5 -236t-221.5 -235q-160 -172 -316.5 -341t-315.5 -341q-8 -10 -15.5 -21.5t-15.5 -21.5q8 -4 12 -9.5 t10 -3.5q367 100 739.5 230.5t757.5 312.5q154 74 305.5 158t297.5 188q61 45 120.5 94.5t114.5 98.5q41 35 54.5 67.5t9.5 61.5q-4 82 -70 112q-53 27 -108.5 49.5t-114.5 39.5q-47 14 -97.5 20t-103.5 10q-217 16 -443 22q-47 1 -93 2q-182 0 -379 -20 q-106 -10 -215 -29.5t-230 -58.5q-96 -31 -188 -68.5t-183 -105.5q-31 -4 -42 7.5t-1 29.5q12 23 32 47.5t42 40.5q41 29 84 50.5t86 39.5q156 66 299 98.5t283 49.5q256 31 488 31h7q236 0 459 -25q117 -12 229.5 -29.5t210.5 -54.5q70 -29 112 -75t52 -120q1 -10 1 -20 q0 -131 -173 -287q-82 -74 -169 -137.5t-183 -122.5q-209 -129 -419 -228.5t-421 -185.5q-309 -125 -609 -228t-597 -181q-25 -6 -48 -15.5t-48 -17.5q-84 -82 -143.5 -164t-116.5 -164q-205 -301 -396.5 -599t-357.5 -597q-6 -10 -18.5 -21.5t-22.5 -21.5q-33 -10 -37 3.5z M492 710q6 -26 59 -30q38 -4 77 -4q60 0 124 9q106 15 221 46q16 12 30.5 23.5t22.5 21.5q236 274 493 539.5t502 537.5q8 8 12.5 18.5t16.5 37.5q-53 -29 -94 -49.5t-76 -42.5q-41 -27 -82 -54.5t-84 -52.5q-201 -117 -390 -246t-376 -270q-72 -55 -143.5 -115.5 t-136.5 -122.5q-43 -39 -78 -82t-64 -83q-35 -47 -35 -73q0 -4 1 -8z" />
<glyph unicode="Q" horiz-adv-x="1691" d="M-4 -129q4 80 32.5 165t88.5 173q147 221 348 428q209 211 426 412.5t444 396.5q96 80 193.5 155.5t195.5 151.5q33 25 67 47.5t69 44.5q100 61 189 83q40 10 76 10q45 0 85 -15q30 -12 66 -12q34 0 73 10q31 8 58.5 8t56.5 4q8 1 16 1q37 0 66 -16q34 -20 54 -52 q20 -35 20 -81q0 -40 -17 -81q-47 -111 -118.5 -214.5t-160.5 -207.5q-150 -178 -319.5 -338t-349.5 -319q-111 -96 -221.5 -186.5t-223.5 -184.5q-29 -23 -54 -45t-50 -45q-23 -68 -23 -123t2 -111q0 -27 7.5 -50t15.5 -46.5t11 -50.5t-3 -59q-37 6 -59.5 12t-37.5 18.5 t-24.5 31.5t-17.5 52q-12 43 -19.5 88t-17.5 88q-23 10 -43 -2t-41 -26q-43 -29 -85 -58.5t-87 -58.5q-78 -51 -158 -92t-164 -70q-82 -29 -150 -31h-11q-60 0 -105 20q-49 21 -76 65q-24 41 -24 101v9zM129 -156q8 -53 48 -70q16 -7 36 -7q32 0 76 16q66 23 133 53.5 t133 67.5q104 57 201.5 123.5t187.5 144.5q25 45 40 90t28.5 89t28 87t38.5 88q49 28 77 28q8 0 14 -2q30 -9 49 -28q0 -20 -8.5 -41.5t-17.5 -43t-13 -41t6 -36.5q16 10 31.5 18.5t29.5 20.5q225 176 435 364.5t411 387.5q225 225 381 469q10 20 21.5 39.5t19.5 40.5 q18 46 18 79q0 41 -27 62q-24 19 -66 19q-43 0 -105 -21q-82 -29 -162 -72t-158 -94q-256 -170 -479 -362.5t-428 -409.5q-20 -23 -38.5 -45t-35.5 -45q-61 -84 -105 -163t-61 -150q-11 -43 -11 -83q0 -26 4 -51q11 -63 59 -116q4 -4 2 -15.5t0 -31.5q-31 10 -54.5 14 t-38.5 14q-61 47 -77 121q-8 33 -8 69q0 46 12 99q47 209 235 404q338 358 750 665q78 57 159.5 110.5t161.5 108.5q2 4 1 8.5t1 8.5q-16 -4 -32.5 -8.5t-32.5 -14.5q-57 -27 -127 -65q-102 -59 -194.5 -132t-184.5 -151q-426 -356 -821 -747q-82 -82 -158 -168t-152 -174 q-53 -63 -99 -130t-77 -137q-31 -68 -49 -132q-12 -41 -12 -80q0 -21 4 -42z" />
<glyph unicode="R" horiz-adv-x="2496" d="M-17 -411.5q-1 14.5 5 32t15 36.5t20 38q51 90 124.5 183t159.5 192q84 92 170 186l172 188q20 23 36.5 44.5t39.5 50.5q-90 -8 -181 -26.5t-184 -35.5q-25 -5 -44 -5q-20 0 -32 6q-22 11 1 52q29 29 58.5 38.5t51.5 13.5q72 16 143.5 28.5t143.5 22.5q43 8 84 13t90 13 q299 276 588 545t567 543h-14q-54 -1 -119 -27q-74 -30 -143 -59q-82 -33 -163 -67.5t-165 -75.5q-78 -37 -152.5 -78t-150.5 -86q-72 -43 -142.5 -89t-142.5 -94q-22 -6 -34 -6q-18 0 -18 12q0 5 3 13q4 12 15.5 27.5t27.5 29.5q68 55 144.5 107.5t160.5 99.5 q147 86 292.5 151.5t289.5 125.5q430 173 788 255q312 72 569 72q37 0 74 -2q106 -4 185.5 -28.5t124.5 -77.5q29 -29 39 -76q1 -7 1 -14q0 -115 -237 -283q-147 -104 -303 -192.5t-318 -165.5q-287 -139 -557 -245t-536 -190q-78 -25 -155 -49t-152 -49q-16 -4 -36 -10 t-67 -19q41 -23 78 -23.5t70 -2.5q26 -3 54 -3h14h23q23 0 46 -1q31 -2 61.5 -2t59.5 -4q33 -4 61.5 -10.5t57.5 -10.5q31 -4 60.5 -9t57.5 -11q29 -6 56.5 -12.5t54.5 -14.5t52.5 -16.5l49.5 -16.5q25 -10 50.5 -18t48.5 -19q23 -8 42 -16t42 -18q25 -10 49 -18.5t49 -18.5 q23 -10 46.5 -19.5t51.5 -21.5q20 -10 2 -17.5t-52 -10.5q-26 -2 -54 -2h-19q-39 1 -57 5q-55 16 -110.5 33.5t-108.5 36.5q-145 49 -309 82.5t-369 38.5q-74 2 -142.5 8t-140.5 10q-18 0 -40.5 -1t-61.5 -5q-129 -129 -249 -254t-222.5 -245t-182 -232.5t-128.5 -216.5 q-53 -35 -78 -40t-39 5q-10 8 -11 22.5zM1081 731q20 2 37 3t35 7q242 70 489.5 153t509.5 193q125 53 254 113t258 123q135 68 267.5 144.5t251.5 168.5q100 74 138 126q24 33 24 60q0 16 -9 31q-8 16 -24.5 28.5t-32.5 25.5q-37 27 -91 40t-118 17q-32 2 -66 2 q-36 0 -72 -2q-74 -4 -149 -12q-115 -10 -238 -33t-270 -76q-53 -43 -151.5 -128t-217 -193.5t-247.5 -228t-244 -229.5t-204 -199t-130 -134z" />
<glyph unicode="S" horiz-adv-x="2074" d="M335.5 -311q6.5 35 43.5 69q49 49 106.5 90t120.5 76q86 45 170 87t172 85q51 27 111 62q-4 47 -27.5 75.5t-56.5 51.5q-72 51 -144.5 97t-148.5 93q-66 39 -122 85t-85 114q-19 47 -19 99q0 33 8 67q20 90 116 202q61 74 139 133.5t158 112.5q113 74 227 129 q406 203 798 354.5t783 251.5q103 27 193 34q42 3 83 3q47 0 93 -4q109 -6 127 -96q4 -18 4 -37q0 -46 -24 -95q-34 -69 -126 -147q-150 -129 -319 -223q-111 -59 -219.5 -116.5t-219.5 -104.5q-223 -100 -443 -178t-437 -133q-53 -14 -105 -20q-30 -3 -59 -3q-20 0 -39 2 q-8 2 -16.5 6t-12.5 13q-4 10 -2 24.5t0 26.5q0 8 8.5 32.5t28.5 28.5q18 2 43 0t39 -4q10 -1 23 -1q19 0 43 2q41 3 86 16q305 82 615 200.5t628 296.5q76 43 148.5 90t142.5 105q102 86 114 138q2 7 2 13q0 41 -75 54q-34 7 -73 7q-16 0 -32 -1q-58 -4 -119 -13 q-154 -23 -314.5 -69.5t-326.5 -106.5q-256 -92 -510 -195.5t-512 -242.5q-86 -47 -170 -98t-161 -111q-147 -106 -197 -200q-27 -51 -27 -100q0 -41 19 -79q12 -31 35.5 -56.5t52.5 -45.5q88 -70 194 -123t191.5 -124.5t128.5 -184.5q111 45 232.5 91t243.5 90t238.5 84 t216 70.5t175.5 50t116 25.5q27 -8 20 -23.5t-41 -34.5t-90 -41.5t-128 -43.5q-33 -10 -125 -41t-225 -79t-296 -109.5t-337 -130.5q-35 -39 -66.5 -74t-66.5 -68q-141 -135 -292 -210.5t-308 -116.5q-29 -6 -52.5 -3t-40.5 7q-33 8 -26.5 43zM522 -242q86 33 136.5 54.5 t82 40t56 39t59.5 53.5q-47 -14 -77.5 -25.5t-63.5 -30t-77 -49.5t-116 -82z" />
<glyph unicode="T" horiz-adv-x="1196" d="M444 -16q14 27 31 53t33 55q45 80 87 161t85 163q18 31 36.5 61.5t35.5 61.5q12 23 26.5 45t27.5 44.5t20.5 44t4.5 42.5q-2 10 7.5 26.5t19.5 30.5q29 47 44.5 95t25.5 96q0 104 -12.5 218.5t-23.5 215t-12 175.5v6q0 70 23 95q37 16 71 31.5t64 26.5q154 47 300.5 84.5 t291.5 64.5q272 49 531.5 83t515.5 56q109 11 216 21q55 5 106 5q48 0 93 -5q16 -4 31 -8t31 -9q-33 -33 -54.5 -37t-43.5 -8q-233 -29 -466 -54.5t-470 -53.5q-41 -6 -84 -11.5t-84 -11.5q-4 -10 -8 -14q-16 -29 -36 -55.5t-40 -53.5q-150 -197 -300.5 -389t-301.5 -389 q-180 -227 -339 -451.5t-296 -451.5q-6 -12 -12.5 -23.5t-16.5 -23.5q-43 -63 -96 -70q-39 -4 -57.5 12.5t-4.5 45.5zM901 688q23 -4 36 11.5t24 29.5q127 166 253.5 333t255.5 335q78 104 157 208.5t161 215.5q-121 -23 -244 -49.5t-252 -61.5q-31 -8 -64.5 -17.5 t-64 -19.5t-54.5 -21.5t-36 -21.5q-18 -20 -29.5 -63t-13.5 -76q-2 -23 -10 -111t-25 -198q2 0 2 2q-2 -12 -4 -28.5t-6 -35.5q-12 -86 -25.5 -162.5t-27.5 -123.5q-10 -49 -19.5 -88t-13.5 -58z" />
<glyph unicode="U" horiz-adv-x="1277" d="M-16 -158q-1 9 -1 19q0 45 16 98q19 64 52 133q55 115 124 229.5t153 235.5q86 123 170 244t176 243q160 211 321.5 421t323.5 421q16 23 38.5 44.5t41.5 43.5q33 4 55 4q33 0 41 -9q4 -4 4 -10q0 -18 -31 -56q-33 -41 -67.5 -80t-65.5 -80q-229 -295 -450 -586 t-420 -584q-63 -96 -123.5 -189t-110.5 -185q-41 -72 -66.5 -140.5t-29.5 -130.5q-4 -23 11.5 -46t33.5 -19q14 4 37 20.5t48.5 39t50 48t44.5 45.5q127 129 250 258t244 261q150 158 293 314.5t293 315.5q117 127 231.5 252t206.5 254q6 8 13 15.5t16 15.5q20 23 52 38 t60 19h9q31 0 31 -19q0 -8 -5 -18q-16 -29 -35.5 -60.5t-42.5 -62.5q-166 -236 -329.5 -466t-329.5 -465q-147 -207 -251.5 -402.5t-156.5 -382.5q-2 -8 -7 -15t-9 -15q-74 -43 -102.5 -48.5t-24.5 27.5q6 63 27 123q35 94 81 190.5t113 200.5q119 180 237.5 361.5 t250.5 384.5q-172 -186 -325 -355.5t-306 -335.5q-106 -115 -216 -227.5t-220 -226.5q-27 -27 -58 -53.5t-61 -51.5q-75 -62 -147 -86q-33 -11 -59 -11q-31 0 -54 15q-23 14 -32 36t-13 46z" />
<glyph unicode="V" horiz-adv-x="2088" d="M215 -1282q16 100 60 209.5t110 224.5q111 195 222.5 387.5t228.5 388.5q127 215 258 428t252 426q154 274 298 544.5t254 539.5q18 47 34 92t26 88q2 12 2 21q0 40 -38 40q-29 0 -81 -24q-104 -45 -197.5 -109.5t-181.5 -136.5q-362 -297 -620 -629q-74 -94 -137.5 -188 t-110.5 -191q-48 -92 -72 -176q-18 -63 -18 -122q0 -19 2 -37q4 -23 5 -47.5t5 -61.5q-33 -12 -59.5 -24.5t-42.5 -12.5q-16 -2 -34 4t-18 21q-7 47 -7 95q1 80 19 166q30 138 136 302q125 195 281.5 379t345.5 364q104 98 218.5 190.5t237.5 176.5q104 72 204.5 113 t195.5 47q9 1 18 0q112 0 112 -87q0 -9 -1 -20q-6 -35 -14.5 -71.5t-24.5 -75.5q-53 -121 -106.5 -241t-118.5 -243q-184 -358 -390 -716.5t-424 -720.5q-63 -106 -130.5 -213t-133.5 -215q-12 -23 -25.5 -47.5t-31.5 -63.5q29 23 44 32t21 17q190 250 395.5 495t422.5 488 q324 365 673 714t736 687q242 211 485.5 415t499.5 406q51 41 104 78t107 74q10 8 23.5 11t27.5 7q2 -31 -25.5 -55.5t-56.5 -48.5q-109 -92 -215.5 -181t-216.5 -182q-285 -238 -559.5 -479t-540.5 -491q-209 -197 -402.5 -395.5t-379.5 -403.5q-231 -256 -445.5 -511 t-410.5 -517q-160 -211 -313.5 -419t-272.5 -419q-18 -33 -32.5 -52t-33 -31.5t-42 -17.5t-58.5 -7q-8 -2 -14 0t-15 4q-4 0 -5 2t-9 6z" />
<glyph unicode="W" horiz-adv-x="2473" d="M309 -580q4 27 14.5 59t32.5 60q53 80 108.5 160t121.5 158q174 209 351 415.5t357 415.5q160 188 320 374.5t289 379.5q37 57 72.5 111.5t52.5 107.5q13 43 13 74q0 36 -18 53q-18 18 -60 18q-37 0 -91 -14q-47 -10 -94 -24.5t-95 -36.5q-362 -174 -650 -405.5 t-482 -539.5q-39 -66 -53.5 -123t-30.5 -116q-4 -10 -15.5 -23.5t-19.5 -17.5q-16 -8 -34.5 -12.5t-30.5 0.5q-23 6 -24 28.5t3 46.5q18 123 95 251t198 259q180 199 393 362t455 296q76 41 153.5 74.5t153.5 60.5q100 35 179 35q10 0 20 -1q86 -5 131 -48t45 -118t-58 -173 q-70 -123 -158.5 -245t-193.5 -245q-160 -190 -322.5 -376.5t-324.5 -374.5q-78 -92 -151.5 -180.5t-149.5 -180.5q-16 -18 -28.5 -37.5t-26.5 -42.5q41 14 64.5 37t45.5 45q147 164 297 326t297 325q23 25 46.5 44.5t54.5 23.5q33 4 53 -3t18 -34q0 -18 -7 -40.5t-17 -45.5 l-142 -338q-35 -85 -52 -163q-12 -53 -12 -102q0 -23 3 -44q4 -41 16.5 -77t36.5 -62q34 -39 90 -40q24 1 54 9q96 26 202 123q90 82 162 168q119 147 229.5 292.5t202.5 293.5q102 164 199.5 324.5t171.5 320.5q4 8 11 17t24 26q10 -30 10 -63q0 -20 -4 -42 q-10 -56 -43 -116q-45 -86 -90 -172.5t-99 -174.5q-129 -211 -273 -418.5t-327 -418.5q-29 -31 -57.5 -61.5t-62.5 -59.5q-135 -113 -277 -129q-36 -5 -68 -5q-143 0 -198 93q-33 56 -42 122q-3 22 -3 45q0 47 12 101q12 72 34.5 145.5t43.5 145.5q8 23 10 68 q-59 -49 -98 -92t-80 -84q-135 -147 -272.5 -292t-276.5 -292q-23 -23 -39 -47.5t-39 -46.5q-23 -23 -45 -45.5t-49 -44.5q-29 -23 -57.5 -35.5t-53 -13.5t-39 9.5t-12.5 32.5z" />
<glyph unicode="X" horiz-adv-x="1288" d="M-195 -365q33 35 68 71t72 75q31 35 66.5 68.5t70.5 67.5t65.5 70t51.5 76q78 53 131 119t110 131q39 41 73 84t69 86q12 14 21 20.5t19.5 8.5t21.5 3t26 5q-78 -98 -152 -187t-145 -192q10 0 14 -1t8 1q37 29 73 58.5t75 58.5q39 27 63.5 51.5t40 49t23.5 52t14 60.5 q16 68 34.5 118t41.5 118q35 98 92 195t123 198q47 72 93 142.5t95 146.5q23 4 46.5 8t39.5 0q29 -6 34 -27.5t-15 -50.5q-20 -31 -46 -61.5t-53 -61.5q-268 -338 -342 -670q-2 -8 15.5 0.5t46.5 27.5t62.5 46t64.5 57q137 133 270 264.5t256 270.5q12 4 25.5 9t25.5 7t22 2 q42 0 42 -29q0 -34 -47 -79q-176 -166 -345 -335t-356 -331q-20 -16 -39.5 -35.5t-48.5 -46.5q0 -23 -1 -49t7 -49q57 -207 240 -319q186 -115 428 -152q160 -24 339 -25q92 0 189 7q63 4 131 20t136 29q27 4 48 5t21 -26q-8 -23 -25.5 -32t-33.5 -15q-102 -41 -193.5 -55.5 t-177.5 -18.5q-63 -3 -124 -3q-134 1 -260 13q-183 18 -343 70q-162 53 -280.5 146.5t-188.5 228.5q-12 23 -22.5 46.5t-20.5 41.5q-27 4 -45 -9t-35 -26q-160 -137 -320.5 -274t-320.5 -277q-79 -67 -110 -67t-54 71z" />
<glyph unicode="Y" horiz-adv-x="1454" d="M442 -784q10 49 31 100q47 121 122 245t161 251q205 305 421 608t472 610q10 12 16 23.5t14 23.5q10 6 15 15q6 2 6 10q-6 -8 -10.5 -14.5t-8.5 -12.5q-18 -10 -38.5 -21.5t-32.5 -23.5q-86 -86 -167 -171t-163 -171q-76 -74 -148.5 -147.5t-146.5 -145.5 q-33 -31 -67.5 -60.5t-69.5 -58.5q-70 -57 -133.5 -89.5t-114.5 -42.5q-19 -3 -37 -3q-28 0 -51 9q-37 16 -53 57q-8 24 -8 51q0 32 12 70q22 67 78 145q115 162 229.5 322.5t251.5 326.5q186 221 357 442.5t343 444.5q39 49 67 101.5t66 113.5q-37 -14 -62.5 -22.5 t-47.5 -20.5q-176 -100 -320.5 -223t-273.5 -258q-121 -125 -217 -252t-174 -254q-35 -53 -55.5 -106.5t-49.5 -110.5q-2 -2 -10 -9t-12 -10q-23 -6 -35 -9t-22.5 -2t-20.5 8.5t-29 19.5q80 160 190.5 322.5t258.5 330.5q96 111 200.5 212.5t221.5 199.5q139 119 303 211 q33 18 69.5 35.5t69.5 27.5q68 18 108 20.5t54 -12t7 -45t-32 -73.5q-29 -51 -59.5 -102.5t-69.5 -102.5q-168 -215 -334.5 -428t-341.5 -428q-121 -147 -232.5 -292.5t-207.5 -293.5q-43 -68 -73 -133q-27 -57 -27 -105v-12q-2 -16 5 -26.5t11 -20.5q39 4 67.5 26.5 t51.5 43.5q111 102 219.5 203.5t210.5 207.5q195 203 390.5 404t424.5 393q47 41 93 66.5t96 35.5q27 4 37 -11t-7 -38q-14 -20 -28.5 -39.5t-30.5 -40.5q-223 -291 -447.5 -578.5t-443.5 -578.5q-158 -209 -291 -411.5t-248 -407.5q-35 -66 -62.5 -129t-57.5 -129 q-27 -57 -89 -78q-31 -9 -53 -9q-8 0 -15 1q-26 4 -22 25z" />
<glyph unicode="Z" horiz-adv-x="2174" d="M72 47q-5 10 -5 22q-1 22 17 50q26 43 94 76q135 61 268.5 123.5t264.5 121.5q248 111 492.5 217.5t492.5 216.5q158 70 314.5 139.5t313.5 139.5q53 23 110.5 50.5t129.5 80.5q-53 2 -96 4h-22q-33 0 -68 -4q-231 -31 -463 -63.5t-465 -67.5q-104 -16 -212 -35.5 t-210 -30.5q-98 -10 -191.5 -12t-185.5 -2q-49 0 -48 23.5t42 99.5q23 4 44.5 7t39.5 1q63 -7 130 -7q78 -1 163 9q158 18 324 47q326 57 639 102.5t616 67.5q47 3 92 3h21q54 -1 108 -3q16 0 31.5 -1t25.5 -9q10 -10 18.5 -25.5t4.5 -33.5q-8 -25 -34.5 -44.5t-61.5 -35.5 q-193 -92 -383.5 -182.5t-384.5 -180.5q-141 -66 -283.5 -125t-286.5 -122q-236 -104 -472 -210t-474 -212q-47 -23 -100 -49.5t-133 -67.5q92 12 158.5 25.5t132.5 29.5q233 59 462.5 116.5t464.5 117.5q53 14 104.5 26.5t100.5 22.5q45 8 87 10h5q38 0 60 -27 q-20 -12 -38 -25t-34 -18q-111 -35 -220.5 -68.5t-215.5 -62.5q-256 -66 -505 -130t-501 -124q-53 -14 -104 -18q-34 -3 -67 -3q-16 0 -32 1q-27 2 -48 15.5t-27 33.5z" />
<glyph unicode="a" d="M-207 175q0 56 76 124q25 23 48.5 41t47.5 37q106 78 214 142.5t222 113.5q59 27 116.5 44t115.5 32q32 7 58 7q95 0 100 -91q4 -29 -18.5 -53.5t-70.5 -34.5q-8 0 -18 9t-23.5 20.5t-32 17.5t-42.5 0q-53 -10 -106.5 -28.5t-104.5 -45.5q-43 -23 -72 -40t-55.5 -34.5 t-55 -37t-69.5 -44.5q-6 -4 -26.5 -17t-41 -27.5t-35 -29t-10.5 -22.5q135 35 262 88t232 125q31 20 60.5 32.5t54 17.5t42 2t23.5 -11q0 -16 -10 -37.5t-28.5 -45t-43 -46.5t-53.5 -41q0 -18 11 -30.5t27.5 -19.5t32 -10t25.5 -3q70 4 122 13t126 25q135 29 236.5 55.5 t195.5 54.5t195.5 59.5t238.5 70.5q66 18 119 32.5t111 24.5q8 2 21 2t26.5 -1t21.5 -3t4 -4q-18 -23 -49 -41t-51 -28q-35 -16 -78 -33t-84 -27q-150 -43 -262.5 -77.5t-219 -66.5t-221 -63.5t-266.5 -68.5q-41 -10 -78.5 -16.5t-74.5 -10.5q-53 -6 -101.5 -6t-86 10 t-64.5 35t-39 68q-94 -37 -183 -73t-181 -73q-41 -17 -78 -25q-23 -5 -46 -5q-13 0 -26 2q-80 6 -80 66z" />
<glyph unicode="b" horiz-adv-x="1671" d="M-123 12q2 40 55 101q74 92 143.5 183t143.5 183q12 16 40 50t60 73q57 63 115 127q49 53 106.5 111.5t110.5 103.5q152 135 305.5 268.5t307.5 262.5q74 61 152.5 117.5t158.5 109.5q59 40 119 66q56 24 117 24h10q8 -6 17 -13t15 -18q26 -43 26 -84q1 -21 -7 -41 q-20 -59 -111 -145q-86 -82 -180 -148.5t-192 -125.5q-156 -96 -308.5 -187.5t-308.5 -179.5q-100 -57 -184 -127t-154 -156q-37 -49 -84 -95t-69 -101q8 -8 18 -7t20.5 5t19.5 11t19 11q66 35 130.5 69t129.5 62q74 31 142 52q66 22 124 24h10q51 0 89 -20q41 -22 64 -74 q205 27 397 52.5t385 47.5q66 10 130 10t136 -16q-33 -18 -51.5 -30.5t-32.5 -16.5q-37 -10 -76 -18.5t-75 -14.5q-145 -23 -286.5 -43t-285.5 -45q-51 -8 -103 -23.5t-106 -29.5q-57 -14 -116 -68q-129 -121 -265.5 -179t-275.5 -83q-29 -4 -54.5 1t-43.5 15q-25 16 -25 44 q0 11 4 23q14 44 68 81q86 61 172 102t174 76q35 12 72.5 24.5t91.5 28.5q-25 8 -34 13.5t-18 5.5q-104 -10 -208.5 -56.5t-206.5 -105.5q-117 -66 -229.5 -141.5t-204.5 -180.5q-10 -10 -22.5 -16t-27.5 -14q-4 -4 -9 -3t-17 -3q-27 29 -27 66v5zM1081 1157 q84 53 165 100.5t159 95.5t151.5 101t141.5 117q12 12 21.5 29t25.5 40q-55 -16 -98 -36.5t-88 -49.5q-117 -78 -227.5 -162.5t-215.5 -181.5q-10 -6 -14 -18t-21 -35z" />
<glyph unicode="c" horiz-adv-x="1476" d="M-258 20q-2 11 -2 23q0 61 63 143q29 39 64 76t72 70q162 141 338 250.5t366 189.5q23 10 44.5 17.5t43.5 11.5q26 4 49 4q29 -1 52 -7q42 -12 51 -59q2 -13 2 -27q1 -40 -17 -84q-24 -58 -92 -112q-53 -41 -108.5 -79t-110.5 -72q-39 -23 -69.5 -23t-45.5 25 q16 41 53 66.5t74 53.5q45 35 90.5 69t88.5 71q10 10 14 27.5t2 27.5q0 8 -11.5 13t-23.5 1q-35 -10 -69.5 -21t-69.5 -28q-170 -80 -327 -184.5t-296 -237.5q-33 -29 -65.5 -62.5t-40.5 -76.5q4 -35 29.5 -51.5t63.5 -20.5q17 -2 35 -2q23 0 48 3q45 5 90 14q35 6 116 32.5 t189.5 65.5t237.5 86t262 97t263 97.5t238.5 87.5t189.5 66.5t118 34.5q33 8 69 16q10 2 19 2q24 0 43 -14q12 -10 8 -29.5t-27 -29.5t-57.5 -22.5t-70 -23t-69.5 -20.5t-57 -16q-39 -12 -118.5 -40t-185 -64t-228.5 -77.5t-249 -84.5t-247.5 -84t-224 -74t-178.5 -55.5 t-111 -28.5q-53 -10 -104 -11h-20q-40 0 -80 3q-97 9 -111 77z" />
<glyph unicode="d" horiz-adv-x="1837" d="M-234 70.5q7 25.5 22 53.5t38.5 56.5t50.5 52.5q168 168 355.5 309.5t398.5 252.5q41 23 81 42t87 42q10 16 24.5 34.5t24.5 38.5q88 154 212 295.5t267 276.5q53 47 113 90q41 29 69.5 31t51.5 -19q37 -28 37 -71q0 -36 -25 -82q-35 -63 -70 -127t-82 -125 q-72 -96 -152.5 -189.5t-166.5 -187.5q-23 -25 -53.5 -46.5t-57.5 -43.5q-25 -25 -49 -49.5t-47 -47.5q-6 -22 -6 -41q-1 -28 13 -46q22 -30 52 -48q41 -23 83 -41t89 -28q85 -18 180 -18q94 -1 198 17q210 34 460 95q29 6 71 18.5t86 22.5t82 18t60 8q12 0 -5 -20.5 t-36 -30.5q-55 -31 -137 -57.5t-162 -48.5q-96 -23 -201.5 -49.5t-207 -46t-192.5 -29.5q-51 -6 -93 -6q-34 0 -62 4q-129 18 -227.5 66.5t-161.5 150.5q-59 -45 -105 -82t-91 -72q-100 -82 -207 -155.5t-219 -133.5q-47 -27 -95.5 -47t-95.5 -39q-31 -10 -62.5 -17t-59 -8 t-49 7t-27.5 27q-8 18 -1 43.5zM-20 164q7 -1 13 -1q40 -1 79 21q45 24 90 49q150 86 291 191.5t270 222.5q32 35 32 63q0 5 -1 9q-2 4 -15.5 5t-23.5 -3q-20 -6 -38 -16.5t-38 -20.5q-139 -76 -268 -168t-254 -194q-20 -16 -43 -36t-43.5 -40.5t-34.5 -42t-16 -39.5z M983 928q2 -6 21 4q72 45 128 101.5t105 115.5q66 78 130 159t103 183q-80 -61 -155.5 -130t-139 -140.5t-112.5 -141t-78 -131.5q-4 -14 -2 -20z" />
<glyph unicode="e" horiz-adv-x="1382" d="M236 329q-4 13 -4 27q0 41 30 99q10 18 13.5 34.5t5.5 34t4 34.5t12 38q92 59 182 129t207 139q110 48 180 56q17 2 34 3q52 0 101 -18q55 -20 85 -56q16 -19 16 -49q0 -26 -12 -59q-31 -37 -69 -56t-75 -34q-197 -72 -368 -90q-31 -4 -60.5 -8t-64.5 -8q-53 -51 -84 -89 q-25 -30 -24 -59q0 -7 1 -14q8 -35 38 -51q27 -15 67 -15h10q88 4 190.5 14.5t208 27t207.5 38t190 45.5q68 20 121.5 36t99.5 31t92 31.5t101 37.5q27 10 53.5 18t53.5 18q25 -4 18.5 -29.5t-33.5 -39.5q-129 -70 -296 -123t-339 -93t-334.5 -64.5t-281.5 -37.5 q-33 -3 -64 -3q-24 0 -48 2q-52 5 -93 28q-57 27 -71 75zM614 666q76 10 121 17t77 16.5t60.5 24.5t75.5 44q-26 45 -73 45q-17 0 -37 -6q-74 -22 -224 -141z" />
<glyph unicode="f" horiz-adv-x="870" d="M-345 -413.5q3 20.5 11 36.5q10 23 29.5 47.5t32.5 46.5q74 115 148.5 228.5t141.5 228.5q16 27 34 59.5t31 66.5t18 64.5t-5 51.5q14 12 25.5 24.5t21.5 18.5q41 27 73 49t57.5 44.5t47 50.5t44.5 65q123 201 276.5 391t316.5 381q55 63 118 123.5t126 119.5 q41 39 73 51.5t58 2.5q31 -15 31 -45q0 -27 -33 -68q-102 -127 -204.5 -253t-208.5 -251q-121 -141 -245 -277t-247 -276q-16 -18 -28.5 -35.5t-26.5 -33.5q6 -16 33.5 -13.5t74.5 9.5q57 8 158.5 18t211 23.5t205 29t140.5 31.5q23 8 45.5 13t36.5 5t17 -7t-11 -23 q-33 -33 -66.5 -49.5t-58.5 -26.5q-53 -20 -150.5 -35.5t-207 -30t-212 -27t-163.5 -26.5q-35 -8 -75 -15.5t-75 -19.5q-47 -51 -82.5 -102t-67.5 -103.5t-62.5 -103.5t-67.5 -102q-72 -98 -134.5 -196.5t-131.5 -203.5q-18 4 -40 3t-28 10q-8 10 -5 30.5z" />
<glyph unicode="g" horiz-adv-x="1486" d="M-18 234q6 34 47 83q35 43 73.5 84t79.5 82q154 143 318 272.5t344 239.5q82 51 167 93t169 83q66 33 127 45q53 11 102 11h16q135 -4 165 -67q9 -19 9 -46q0 -61 -47 -162q-51 -18 -75 -18q-7 0 -11 2q-20 6 -10 41q0 8 4 15t8 16q15 45 15 75q0 29 -15 43 q-16 17 -59 17q-31 0 -74 -8q-39 -8 -80 -22.5t-84 -33.5q-125 -59 -241 -131q-201 -123 -380 -265t-345 -302q-20 -20 -39 -41t-31 -38t-17 -31.5t3 -22.5q68 18 158 56t189 92.5t202.5 119t199.5 133.5q16 2 33 5t31 -1q48 -11 48 -37q0 -23 -28 -71q-23 -39 -45 -78 t-45 -80q-10 -18 -28.5 -54t-26.5 -54q7 -1 17 -1q20 0 52 5q50 8 116.5 24.5t145.5 40t156 49.5q47 14 108.5 37t128 48.5t130 51t116 45t85 29.5t37.5 6q0 -27 -4.5 -38t-22.5 -21q-33 -14 -132.5 -57t-241.5 -98.5t-315 -117t-351 -110.5q-33 -14 -58.5 -23.5t-46 -20.5 t-40 -27.5t-40.5 -45.5q-45 -66 -104.5 -123t-130.5 -110q-47 -35 -92 -54q-31 -13 -56 -13q-12 0 -24 3q-39 10 -42 41v10q0 27 13 62q23 55 60.5 102t105.5 88q66 39 129 76t129 76q43 59 81 117.5t38 122.5q-84 -47 -163 -90.5t-157 -83.5q-127 -68 -260 -119 q-53 -22 -91 -22q-6 0 -12 1q-42 4 -69 33q-22 22 -22 50v12zM344 -98q29 8 49.5 21.5t26.5 41.5q-31 -6 -51.5 -20t-24.5 -43z" />
<glyph unicode="h" horiz-adv-x="1462" d="M10 137q10 27 26.5 54.5t35.5 54.5q106 156 221 313q39 57 84 121q35 47 65 88q27 35 53 68t40 49q35 33 60.5 63.5t51.5 59.5q53 55 101.5 111.5t99.5 111.5q219 236 458.5 451.5t481.5 433.5q61 53 127.5 104t134.5 98q58 42 114 56q21 6 42 5q31 0 57 -14 q47 -27 50 -75v-5q0 -46 -44 -108q-37 -51 -78 -101.5t-82 -97.5q-276 -305 -592.5 -552.5t-672.5 -454.5q-104 -59 -184 -127t-150 -160q-78 -104 -150.5 -208.5t-121.5 -221.5q39 31 78.5 62.5t78.5 62.5q82 63 162 126.5t166 123.5q95 68 149 72h8q50 0 93 -46 q41 -39 80 -76.5t80 -72.5q69 -58 173 -58q73 0 164 29q72 23 144 50.5t143 54.5q27 10 52.5 18t52.5 14q6 2 12 -3t8 -9q0 -4 -3 -14t-9 -15q-16 -12 -31.5 -24t-32.5 -23q-119 -68 -233.5 -107.5t-229.5 -56.5q-44 -7 -84 -7q-110 0 -186 51q-43 31 -83 64.5t-81 66.5 q-18 12 -34.5 24t-32.5 23q-59 -16 -106.5 -51t-90.5 -70q-88 -72 -175 -145.5t-175 -145.5q-33 -27 -64.5 -52.5t-66.5 -49.5q-37 -27 -70 -32t-61 5q-33 15 -33 50q0 19 10 44zM879 1108q25 10 35 13t20 9q299 186 568.5 405.5t510.5 475.5q43 47 81 98.5t73 100.5 q16 18 22 37.5t-10 29.5q-37 -16 -59.5 -25t-40 -19.5t-36 -25t-50.5 -38.5q-90 -70 -196.5 -162t-218.5 -193.5t-221.5 -206t-203.5 -198.5t-165.5 -173t-108.5 -128z" />
<glyph unicode="i" horiz-adv-x="1107" d="M169 252q-6 17 -6 37q0 47 32 110q29 53 59.5 109.5t83.5 116.5q33 16 61.5 13t34.5 -13q8 -10 -2 -32t-31 -50q-16 -23 -30.5 -46.5t-30.5 -47.5q-29 -47 -44 -97q-9 -30 -9 -51q0 -13 4 -22q35 -14 78 -14q7 1 14 1q51 2 104 13q180 31 360.5 86t366.5 127 q29 12 63 28.5t67.5 33.5t67.5 32.5t63 25.5q8 2 20 3t21.5 -4t10.5 -14t-11 -24q-29 -20 -47.5 -33.5t-34.5 -21.5q-502 -252 -977 -334q-51 -10 -99.5 -10t-89.5 6q-80 14 -99 72zM436 798.5q-2 16.5 6.5 36t28.5 37.5q4 6 14.5 11.5t16.5 5.5q59 -4 59 -55 q0 -10 -8 -22.5t-20.5 -24t-26 -18.5t-23.5 -7q-23 0 -34 10t-13 26.5z" />
<glyph unicode="j" horiz-adv-x="931" d="M-973.5 -1170.5q-7.5 15.5 2.5 29.5q98 147 205 293t258 281q131 119 233.5 239.5t200.5 247.5q59 78 132 204t184 325q25 43 42 77.5t42 85.5q14 23 31.5 33t31.5 12t26.5 -1t18.5 -5q12 -6 8 -29.5t-10 -39.5q-29 -59 -61.5 -117.5t-65.5 -118.5 q-59 -109 -111.5 -191.5t-97.5 -149t-84 -119t-69 -101.5q-8 -12 -14.5 -24.5t-18.5 -30.5q66 20 175.5 80.5t239.5 141.5t271 175t273 185t244.5 170t184.5 130q41 4 50.5 -8t-15.5 -33q-57 -47 -137 -105t-172 -124t-192.5 -135.5t-198.5 -134.5q-47 -33 -118 -77 t-149.5 -93t-159.5 -98.5t-150.5 -91.5t-123 -72.5t-73.5 -40.5q-59 -31 -107.5 -71t-89.5 -89q-117 -137 -230.5 -272.5t-230.5 -272.5q-14 -16 -27.5 -30.5t-29.5 -28.5q-20 -20 -52 -29.5t-48 0.5q-10 8 -17.5 23.5zM457 774q-2 14 0 29.5t4 32.5q4 14 17.5 28.5 t33.5 22.5q27 10 44 9t32 -11q10 -6 10 -21.5t-9 -34t-26 -35t-37 -26.5q-29 -12 -48 -11t-21 17z" />
<glyph unicode="k" horiz-adv-x="1009" d="M-27 172q47 88 117 170q49 55 76 86t48.5 56.5t48 55t77.5 85.5q45 51 70.5 78.5t45 50t44 50t69.5 77.5q41 47 82 98q35 43 76 93t76 93q37 39 64.5 68t53 54.5t49 50t50.5 55.5q111 129 224.5 256t223.5 256q106 121 217 237.5t240 224.5q41 35 83 65t89 46 q49 18 98 19q35 -2 41 -29l2 -10q0 -23 -24 -52q-39 -51 -78 -100t-80 -98q-199 -229 -442.5 -453.5t-511.5 -445.5q-37 -27 -97.5 -88.5t-125 -130t-122 -132t-85.5 -94.5q-66 -74 -96.5 -108.5t-45 -51t-20.5 -23.5t-20.5 -24.5t-46 -52.5t-95.5 -106l-61 -74 q20 -10 34.5 2t28.5 23q12 8 23.5 18t23.5 20q96 72 189.5 145t189.5 144q46 34 80 34h2q35 -1 66 -30q2 -2 -2 -14q-18 -31 -55.5 -56.5t-77 -51t-77.5 -54.5t-63 -63q-4 -8 -8 -16.5t-8 -18.5q23 -18 59.5 -29.5t81.5 -14.5q27 -2 55 -2q18 0 37 1q47 2 90 10q37 8 65 13 t63.5 14.5t90 26t144.5 50.5q20 8 40.5 19.5t37 17.5t25 1t3.5 -29q-45 -47 -105 -80t-129 -55.5t-144.5 -38t-149.5 -25.5q-53 -6 -115 -7h-20q-52 0 -100 4q-58 5 -108 19.5t-83 38.5q-59 -35 -102 -79t-86 -85q-35 -33 -69 -64.5t-69 -59.5q-16 -16 -39.5 -28.5 t-46.5 -23.5q-25 -11 -45 -11q-22 0 -36 12q-16 13 -16 33q0 17 11 38zM1376 1651q2 4 13.5 14t24.5 20.5t24.5 20.5t15.5 14q16 8 29.5 19.5t25.5 21.5q129 119 249 242t224 254q8 10 12.5 24.5t14.5 38.5q-37 -29 -62.5 -47t-43.5 -39q-127 -121 -242 -245.5t-215 -257.5 q-8 -6 -25 -23l-8 -8t-16 -19.5t-15.5 -20.5t-5.5 -9z" />
<glyph unicode="l" horiz-adv-x="1032" d="M284 334q-8 26 -8 58q0 33 9 71q6 25 9 40t7 30.5t11 34t20 48.5q10 31 27.5 64t33.5 61q21 33 41 64q53 84 109.5 159.5t113.5 151.5q137 184 291 359.5t328 349.5q109 109 221.5 214t231.5 208q90 78 186 148.5t194 139.5q59 41 119 67q50 22 97 22q9 0 18 -1 q72 -6 72 -47q0 -33 -45 -88q-66 -78 -130.5 -154.5t-134.5 -154.5q-205 -229 -426 -448.5t-446 -438.5q-117 -117 -249 -215t-288 -213q-61 -43 -95 -70.5t-54.5 -51t-35.5 -50t-36 -67.5q-20 -53 -38.5 -94.5t-22.5 -88.5q-1 -9 -1 -17q-1 -50 21 -85q24 -42 72 -62 q43 -19 103 -18h13q68 2 150 25q166 47 320 137q70 39 156.5 87t189.5 105q20 0 17 -12t-16.5 -26.5t-28.5 -27.5t-21 -18q-98 -78 -202 -140t-206 -108t-201.5 -72t-193.5 -28h-18q-68 0 -122 14q-62 16 -104 50.5t-58 87.5zM708.5 1020.5q-10.5 -16.5 8.5 -27.5 q14 8 31.5 17.5t31.5 21.5q76 59 154 119.5t149 126.5q262 244 507 493.5t481 507.5q47 53 90 107.5t90 107.5q-4 4 -10.5 7.5t-10.5 7.5q-33 -18 -65.5 -34.5t-61.5 -39.5q-94 -72 -188 -144.5t-182 -150.5q-113 -100 -219.5 -203.5t-210.5 -207.5q-168 -166 -309.5 -335 t-264.5 -345q-10 -12 -20.5 -28.5z" />
<glyph unicode="m" horiz-adv-x="1921" d="M54 203.5q-7 17.5 16 50.5q33 49 64.5 97t70.5 100q39 53 62.5 82.5t43 54t43 55.5t64.5 84q18 23 53 41t61 16q47 0 47 -24q0 -16 -20 -41q-16 -23 -29.5 -41.5t-24.5 -33.5t-22.5 -31.5t-23.5 -37.5q47 35 72.5 52.5t48.5 34.5q29 23 55.5 42t58.5 37q39 16 61.5 21.5 t37.5 1.5q35 -6 40 -21.5t-18 -48.5q-31 -49 -61.5 -96t-55.5 -94q-10 -18 -20 -42t-14.5 -44.5t1 -32.5t23.5 -12q86 35 156.5 81t142.5 91q45 27 88 54.5t88 51.5q33 18 66 28.5t57.5 11.5t37.5 -8t11 -28q-2 -16 -9 -36.5t-11 -38.5t-4 -32q-1 -33 21 -52q32 -27 100 -31 q22 -2 45 -2q64 1 138 13q101 16 206 34q111 20 224.5 47t225.5 49q10 2 25.5 6t29 5t20.5 0t5 -7q-33 -39 -69.5 -53t-65.5 -22q-152 -43 -297 -79t-281 -57q-33 -4 -63.5 -9t-63.5 -9q-76 -12 -136 -12q-70 0 -119 16q-91 29 -107 119q-2 10 -6 15t-13 9q-20 -2 -62 -25.5 t-88 -54t-88 -58.5t-61 -40q-68 -39 -126 -61.5t-102 -28.5q-14 -2 -27 -2q-26 0 -44 8q-26 12 -32 43q-1 8 -1 16q0 25 9 54q12 39 20 76q2 6 4.5 15t2.5 16.5t-5.5 12.5t-17.5 3q-12 0 -44 -24.5t-70 -59.5t-77.5 -74t-66.5 -68q-10 -12 -21.5 -24t-25.5 -23 q-23 -23 -63 -38t-56 -11q-27 6 -34 23.5z" />
<glyph unicode="n" horiz-adv-x="1579" d="M184 375q23 47 51.5 95t59.5 95q25 33 39 52.5t27.5 38t29 39t41.5 57.5q18 4 39 10t37 2q35 -6 38 -25.5t-18 -50.5q-14 -20 -18 -26.5t-7 -9.5t-7 -9t-19 -27q-10 -16 -2 -14t22.5 11.5t32 20.5t25.5 17q27 18 50.5 37t49.5 35q75 43 130 43q13 0 25 -2q62 -12 62 -84 q0 -23 -3 -44.5t-7 -43.5q-2 -15 -2 -29q0 -64 38 -97q46 -40 138 -42q47 0 98.5 7t102.5 20q141 31 280.5 64.5t280.5 68.5q43 10 88 18t86 14q10 2 20.5 -2t8.5 -14q-16 -35 -42 -46t-48 -17q-127 -35 -251 -70t-249 -68q-59 -16 -119.5 -27.5t-120.5 -21.5 q-90 -17 -161 -17q-102 1 -164 35q-106 58 -125 228v25.5t-14 11.5q-59 -31 -102.5 -73t-88.5 -83q-41 -39 -81 -78t-83 -77q-30 -28 -64 -46q-23 -12 -47 -13q-11 0 -22 3q-52 11 -52 52q0 24 17 57z" />
<glyph unicode="o" horiz-adv-x="860" d="M24 215q6 43 37 96q20 31 43 61.5t52 59.5q51 55 104.5 110.5t112.5 116.5q12 10 38.5 10.5t41.5 -1.5q111 -18 215 -40t221 -26q45 -5 92 -5q36 0 74 3q88 6 174 14q20 0 43 -6q10 -8 2 -24q-2 -6 -10.5 -14.5t-16.5 -12.5q-16 -6 -33.5 -13t-31.5 -7 q-78 -12 -151 -17.5t-154 -11.5q-73 -4 -143 -5h-16q-61 0 -116 7q-12 -23 -19.5 -37t-13.5 -26.5t-13 -25.5t-19 -30q-59 -94 -143.5 -161.5t-194.5 -102.5q-44 -13 -79 -13q-12 0 -22 1q-42 5 -60 31q-15 20 -16 51zM154 238q23 4 43 3.5t39 6.5q72 29 126 79t93 111 q16 25 23 47.5t-9 34.5q-18 12 -44 2t-52 -30q-72 -53 -127 -114.5t-92 -139.5z" />
<glyph unicode="p" horiz-adv-x="1468" d="M-498 -616q25 70 46.5 138t48 139t64.5 144.5t97 151.5q59 82 129 161t162 152q66 53 114 106.5t85 110.5q37 55 71.5 110.5t73.5 111.5q10 14 31.5 30.5t38.5 20.5q14 4 30.5 1t16.5 -11q0 -35 -23 -84q-20 -35 -46.5 -72t-61.5 -84q61 27 113.5 50.5t101.5 39.5 q135 51 260 86q27 8 53.5 9t48.5 -3q52 -10 52 -48q0 -40 -58 -101q-57 -61 -126.5 -112.5t-145.5 -98.5q-49 -31 -100.5 -60.5t-100.5 -58.5q0 -23 22.5 -18.5t47.5 8.5q168 41 339 90t331.5 100t304 102.5t254.5 100.5q14 4 33.5 9t38 7t31.5 0t11 -14q-10 -25 -33.5 -44 t-52.5 -30q-55 -25 -152.5 -63.5t-223 -82.5t-272 -91t-299 -89t-304.5 -75t-287 -49q-53 -6 -108.5 -13.5t-114.5 -15.5q-72 -98 -129 -189.5t-117 -183.5q-41 -66 -82 -133t-86 -135q-8 -10 -25.5 -21.5t-27.5 -15.5q-18 -6 -34.5 -6t-28.5 2q-16 4 -11 21zM-246 -207 q41 41 73 95.5t62 101.5q-61 -51 -98 -106.5t-37 -90.5zM-106 23l6 -5l8 15zM150 182q117 23 229.5 72t247.5 135q66 43 132 91t103 120q-2 8 -14 9t-30.5 -2t-39 -9t-35.5 -12q-72 -25 -142.5 -54.5t-141.5 -62.5q-121 -55 -200.5 -126t-108.5 -161z" />
<glyph unicode="q" horiz-adv-x="1130" d="M-364 -813q-11 18 4 47q6 14 18 31q90 135 177 269t177 269q35 55 74 111.5t86 112.5q16 20 23.5 36.5t8.5 32t-1 28.5t-4 30q20 20 51 40.5t58.5 42t47.5 47.5q16 21 16 48q0 6 -1 12q-25 -16 -46.5 -30.5t-43.5 -30.5q-29 -18 -56.5 -39t-56.5 -37q-70 -43 -119 -51 q-13 -3 -25 -3q-30 0 -47 17q-21 20 -21 47q0 10 2 21q11 41 54 94q8 8 16.5 15t16.5 15q102 102 217 196.5t238 180.5q96 66 179 93q49 15 95 15q31 0 60 -7q8 -4 14 -10.5t12 -12.5q0 -2 -2 -8t-6 -16q-16 -4 -32.5 -12.5t-28.5 -6.5q-10 1 -20 1q-54 0 -114 -27 q-71 -31 -139 -84q-94 -76 -185 -154t-183 -158q-18 -16 -29.5 -35.5t-26.5 -35.5q18 -18 41 -7t43 25l344 276q35 29 67 58t66 57q31 25 55.5 29t45.5 -2q20 -6 20 -23q0 -14 -16 -37q-23 -35 -47.5 -70.5t-53.5 -70.5q-39 -53 -77.5 -103.5t-79.5 -103.5 q-10 -14 -15.5 -28.5t-13.5 -28.5q12 -4 52 5t93.5 25.5t116 37t120.5 41t109.5 40t82.5 29.5q117 47 220 97.5t201 78.5q10 2 24.5 5t28 3t24.5 -1t14 -5q2 -10 -42 -36.5t-104.5 -58.5t-124 -60.5t-102.5 -42.5q-43 -18 -104.5 -42t-131 -49.5t-142.5 -51t-138.5 -49 t-117.5 -41t-81 -27.5q-10 -92 -72.5 -185.5t-146.5 -187.5q-121 -135 -245 -269.5t-228 -275.5q-20 -27 -47 -43t-56 -18t-40 16zM96 -248q96 74 144.5 142.5t81.5 138.5q-72 -66 -124.5 -134.5t-101.5 -146.5z" />
<glyph unicode="r" horiz-adv-x="1181" d="M109 264q10 25 23 48.5t30 47.5q55 86 113.5 172.5t117.5 172.5q35 4 53.5 4t21.5 -14.5t-9.5 -45.5t-36.5 -88q74 43 141 80q77 41 133 43h5q53 0 81 -39q27 -31 54.5 -58.5t74.5 -37.5q98 -23 207 -24h7q106 0 229 28q31 6 76 20.5t85.5 25.5t68.5 14t22 -13 q-20 -18 -33.5 -32.5t-26.5 -20.5q-135 -57 -259 -86q-92 -22 -178 -22q-30 0 -58 3q-59 4 -116.5 12.5t-107 24t-90.5 40t-67 65.5h-8q-37 0 -70 -16q-37 -18 -68 -46q-53 -47 -105 -96l-104 -98q-23 -20 -42 -43t-44 -43q-25 -25 -49 -30t-47 -1q-28 9 -28 32q0 10 4 21z " />
<glyph unicode="s" horiz-adv-x="841" d="M-174 -26q4 34 47 67q51 41 103.5 79t105.5 73q35 23 75 43t81 45q1 11 1 21q-1 28 -9 44q-12 22 -15 43q-2 9 -2 21q0 18 5 43q9 41 56 102q53 66 118 109t138 67q18 6 42 10t40.5 1t20.5 -17t-19 -45q-10 -14 -43.5 -24.5t-58.5 -24.5q-78 -41 -119 -83t-51 -77 q-4 -16 -2 -30.5t6 -30t8 -35.5t4 -47q260 92 439.5 153.5t287 94t148.5 35.5t24 -23q-53 -41 -103 -57.5t-99 -32.5q-117 -41 -233.5 -80t-233.5 -80q-35 -10 -68 -25.5t-65 -27.5q-47 -16 -83 -44t-69 -67q-59 -78 -135 -132t-168 -93q-43 -21 -80 -25q-11 -1 -22 -1 q-24 0 -43 7q-33 10 -29 44z" />
<glyph unicode="t" horiz-adv-x="888" d="M-119 -70q2 47 21.5 100.5t60.5 110.5q35 53 70 103.5t76 101.5q123 150 246.5 298.5t244.5 295.5q6 6 18.5 21.5t26.5 31t24.5 30.5t14.5 21l-195 -6q-25 4 -45 8.5t-31.5 13.5t-9 27.5t22.5 51.5q27 16 50.5 23t43 8t39 0t37.5 -1q57 2 102 13.5t86 34t80 58.5t82 89 q131 162 276.5 317.5t295.5 313.5q66 70 139.5 132t159.5 116q79 47 149 69q42 14 80 14q25 0 49 -6q36 -7 36 -35q0 -23 -28 -55q-45 -51 -91 -101t-97 -97q-186 -178 -384 -346t-409 -328q-31 -23 -60.5 -46.5t-60.5 -47.5q-6 -6 -12 -15.5t-16 -23.5q98 6 198.5 27.5 t200.5 43.5q49 10 100.5 25.5t101.5 28t99 16.5q14 1 28 1q35 0 68 -7q-35 -18 -58 -34.5t-42 -20.5q-147 -41 -304 -96.5t-304 -92.5q-55 -16 -109.5 -25.5t-117.5 -21.5q-39 -47 -74 -88t-69 -81t-69.5 -82t-74.5 -87q-80 -98 -159 -195.5t-157 -195.5 q-41 -53 -77.5 -104.5t-67.5 -102.5q-23 -39 -38 -78t-25 -73q-5 -19 -5 -32q0 -32 26 -36q5 -1 11 0q37 0 103 27q45 18 80.5 34.5t69.5 34t69 38t82 48.5q100 66 174 114t136 88t122.5 78t134.5 85q39 25 69.5 46t61.5 40.5t64.5 37t74.5 31.5q16 2 16.5 -8t-8 -25.5 t-20.5 -30.5t-20 -24q-109 -70 -209.5 -134t-200.5 -127.5t-204.5 -131t-219.5 -143.5q-27 -18 -63.5 -40t-73.5 -40t-67.5 -33.5t-47.5 -23.5q-66 -31 -121 -41q-28 -5 -51.5 -5.5t-43.5 5.5q-40 10 -62 40q-19 25 -20 62q0 7 1 14zM1298 1622q240 176 409 328.5t251 265.5 q-51 -10 -94 -40t-84 -62q-135 -111 -251 -232t-231 -260z" />
<glyph unicode="u" horiz-adv-x="1159" d="M99 242q18 60 57 127q41 72 93 141.5t109 138.5q55 14 83 14q19 -1 27 -7q5 -4 4 -12q0 -20 -32 -62q-57 -72 -109 -141.5t-77 -139.5q-6 -16 -9 -32.5t-7 -32.5q41 4 65.5 25.5t42.5 43.5q70 84 142.5 165t152.5 159q64 17 93 17q10 0 16 -2q20 -8 4 -54 q-2 -8 -5.5 -15.5t-7.5 -15.5q-22 -56 -22 -88q0 -26 14 -37.5t47 -11.5q41 0 113 18q47 12 81 20.5t64.5 15.5t65.5 14.5t84 19.5t85 21.5t68.5 18.5t65.5 20.5t76 25.5q20 6 39.5 12t36.5 8q10 2 14 -5t8 -13q2 -4 -7 -14.5t-15 -14.5q-27 -16 -68 -32.5t-64 -26.5 q-70 -25 -130 -44.5t-119.5 -36.5t-126 -35.5t-148.5 -39.5q-102 -29 -181 -29q-1 1 -3 1q-80 0 -127 43q-6 4 -17.5 6t-25.5 6q-41 -45 -80 -87t-80 -83q-98 -93 -177 -113q-20 -5 -36 -5q-50 0 -72 44q-13 25 -13 55q0 23 8 50z" />
<glyph unicode="v" horiz-adv-x="1392" d="M70 123q18 53 34.5 105.5t51.5 109.5q23 39 38 67.5t29.5 53t29.5 50t38 60.5q16 29 46 49.5t60 26.5q53 10 61.5 -3t-20.5 -52q-25 -37 -39 -59.5t-26.5 -41t-25.5 -40t-38 -58.5q-16 -25 -24.5 -48.5t-22.5 -51.5q31 14 49.5 27.5t30.5 26.5t22.5 26.5t22.5 25.5 q29 29 53.5 55.5t53.5 55.5q27 29 55.5 55.5t50.5 50.5q53 33 84 34t45 -9q20 -16 43 -38.5t49.5 -43t60 -36t81.5 -17.5q57 0 138 7t173 19.5t191.5 28.5t191.5 37q47 10 93 18q15 3 28 3q26 0 43 -11q-59 -29 -103.5 -47t-93.5 -33.5t-109.5 -29t-150.5 -29.5 q-111 -20 -218.5 -28.5t-223.5 -12.5h-19q-66 0 -105 12q-44 14 -72 31.5t-46 32t-47 14.5q-76 -66 -133.5 -127t-114.5 -125q-33 -35 -62.5 -70.5t-64.5 -70.5q-35 -37 -77 -55q-29 -13 -53 -13q-10 0 -19 2q-25 8 -36.5 22.5t-2.5 43.5z" />
<glyph unicode="w" horiz-adv-x="1464" d="M98 137q-2 12 -2 24q0 29 12 63q18 48 48 100q25 43 44 75.5t37.5 63.5t36.5 61.5t41 71.5q10 16 28.5 30.5t37.5 18.5q29 10 43 6q12 -4 17 -19.5t-3 -31.5q-14 -35 -34.5 -69.5t-43.5 -69.5q-18 -31 -29.5 -51.5t-21.5 -39t-21.5 -38t-27.5 -49.5q-6 -10 -14 -24.5 t-14.5 -29t-7.5 -24.5t9 -10q27 6 56.5 31.5t44.5 41.5q37 41 71.5 85t69.5 87q29 35 56.5 71t62.5 71q14 16 43 30.5t47 18.5q16 2 26.5 -9.5t10.5 -25.5q2 -14 -9.5 -34.5t-19.5 -39.5q-31 -66 -45 -99.5t-2 -51.5q37 -4 58.5 13t39.5 36q23 23 46.5 46t39.5 46 q27 37 58 59.5t59.5 32.5t54 7t41.5 -19q72 -70 189 -83q37 -4 78 -4q88 0 192 19q66 14 148 42t153 44q20 4 36.5 3t41.5 -11q12 -4 -1 -15.5t-45 -24.5t-75 -28.5t-86 -30t-83 -25.5t-64 -15q-160 -35 -295 -35h-27q-70 2 -130 21.5t-126 35.5q-18 -10 -42.5 -35.5 t-49.5 -46.5q-23 -18 -41 -36.5t-39 -36.5q-84 -66 -133 -82q-19 -6 -37 -7l-61 17q-23 14 -43 35q-8 2 -24.5 -9.5t-36 -29.5t-39 -37.5t-33.5 -34.5q-98 -86 -176 -99q-13 -2 -24 -2q-57 0 -71 56z" />
<glyph unicode="x" horiz-adv-x="1183" d="M-14 98q-2 8 5 22.5t18 30t25.5 29t26.5 17.5q59 18 105.5 51t97.5 82q0 39 9.5 102.5t39.5 153.5q4 16 22.5 32.5t41.5 20.5q35 8 51 8t19.5 -7t-3 -23.5t-14.5 -43.5q-6 -16 -10 -34.5t-6 -34t0 -25.5t8 -10q49 29 84 60.5t63.5 63.5t56 65.5t62.5 64.5q16 -4 40 -5 t30 -13q6 -8 -2 -30t-21 -38q-41 -47 -84 -91t-88 -89q-35 -33 -57.5 -52.5t-61.5 -52.5q-8 -35 -8 -62q0 -34 12 -56q22 -40 72 -76q62 -49 157.5 -49t223.5 49q61 25 129 63.5t135.5 85.5t135 99.5t131.5 105.5q51 39 77.5 59.5t42 29.5t25.5 11t29 2q8 -4 -3.5 -25.5 t-23.5 -33.5q-29 -39 -74 -74q-117 -104 -233.5 -188t-230 -143.5t-225.5 -87.5q-92 -24 -182 -24q-19 0 -38 1q-98 4 -160.5 40t-97.5 97q-10 16 -16.5 23.5t-18.5 29.5q-14 -8 -32.5 -20t-38 -25.5t-38 -26t-32.5 -20.5q-23 -14 -45.5 -28.5t-44.5 -26.5 q-31 -16 -58.5 -10t-27.5 26z" />
<glyph unicode="y" horiz-adv-x="1308" d="M98 184q-12 15 -12 37q0 37 33 92q18 31 41.5 62t46.5 63q27 37 39 53.5t20 30t19.5 30.5t38.5 54q45 63 82 77q12 4 23 4q28 0 58 -23q-37 -66 -67.5 -109t-60 -84t-62.5 -88t-72 -117q-4 -6 4.5 -6t21.5 5t27.5 11.5t20.5 10.5q178 115 355 225.5t337 251.5 q41 29 80 45q19 8 36 8t32 -8q26 -15 26 -43q0 -18 -12 -43q-43 -86 -85 -173t-83 -173q-8 -16 -13 -33.5t-16 -42.5q33 10 56.5 18.5t50.5 18.5q37 18 114.5 54t163.5 75t164 75t115 54q27 12 53.5 19.5t48.5 -11.5q10 -16 -2 -28.5t-28 -22.5q-76 -41 -163 -80t-165 -80 q-16 -10 -73.5 -37.5t-123 -59.5t-123 -59.5t-75.5 -35.5q-53 -27 -90 -63t-72 -83q-96 -141 -215 -276q-47 -57 -102 -82q-52 -23 -105 -23h-8q-49 3 -49 39q0 17 10 41q23 47 55.5 94.5t79.5 88.5q41 39 84 75.5t90 69.5q55 41 91 84t59 92q37 78 73.5 157t71.5 154 q-27 10 -50.5 -3t-39.5 -25q-104 -68 -206.5 -135.5t-209.5 -137.5q-53 -35 -106.5 -61.5t-106.5 -40.5q-34 -8 -59 -8q-46 0 -66 26z" />
<glyph unicode="z" horiz-adv-x="1314" d="M-137 -655v13q0 64 35 132q39 74 102 145q55 59 115.5 113.5t124.5 108.5q127 102 259 188t273 164q47 27 73.5 42t43 34.5t28 50.5t27.5 90q-2 12 -16.5 11t-34 -8t-39.5 -18.5t-35 -19.5q-78 -47 -154.5 -98t-144.5 -117q-67 -63 -107 -63q-12 0 -22 6q-22 12 -22 35 q0 32 43 86q51 61 102 121.5t100 121.5q29 35 54.5 68t50.5 65q-6 12 -17.5 15.5t-24.5 0.5t-26.5 -8.5t-25.5 -9.5q-76 -23 -153 -50t-150 -52q-26 -8 -43 -8t-25 8q-18 16 -12 59q20 10 36.5 20.5t34.5 16.5q125 43 250 85t248 83q18 4 36.5 9.5t35.5 7.5h10q39 0 53 -28 q3 -7 4 -16q0 -28 -37 -65q-41 -43 -75.5 -89t-69.5 -93q-2 -2 0 -21q29 12 59.5 24.5t59.5 22.5q55 19 95 19q20 -1 37 -5q50 -14 58 -73q4 -23 1 -47.5t-5 -50.5q31 10 83 30.5t114.5 44t130 49t129 49t112 42t76.5 28.5q18 -23 5 -40t-37 -29q-35 -18 -71 -32.5 t-73 -31.5q-23 -10 -66.5 -29.5t-98 -42t-114 -49t-113.5 -49t-97 -42t-66 -29.5q-90 -123 -193.5 -234.5t-216 -216t-231.5 -205t-237 -198.5q-25 -18 -50.5 -36t-50.5 -34q-47 -28 -83 -28q-9 0 -17 2q-41 8 -45 55zM-25 -584q70 39 172.5 118t209 174t204 195.5 t160.5 184.5q-154 -86 -279 -174t-235 -188q-43 -37 -82 -77t-74 -81q-31 -37 -53.5 -75t-22.5 -77z" />
<glyph unicode="&#xc0;" horiz-adv-x="1697" d="M-8 -47q12 59 55 125q55 78 112.5 154.5t114.5 154.5q37 47 72 91t64 83q2 23 -9.5 35t-22.5 22.5t-17.5 25.5t10.5 44q41 8 79.5 14.5t84.5 14.5q25 29 48 53.5t46 52.5q156 193 310.5 383.5t309.5 382.5q20 27 42 55.5t26 51.5q10 59 52 111.5t89 103.5q41 45 83 88 t85 88q53 51 98 35q25 -10 30 -34t-13 -48q-12 -16 -23.5 -30.5t-25.5 -31.5q-215 -266 -426 -528t-424 -530q-37 -45 -73.5 -90.5t-59.5 -92.5q98 -29 198 72q121 121 239 238.5t240 234.5q207 195 414 386.5t414 383.5q29 27 63 51q63 51 111 23q37 -23 4 -74 q-8 -12 -17.5 -24.5t-17.5 -22.5q-164 -217 -327.5 -434t-325.5 -434q-43 -59 -83 -119t-87 -127q31 2 53.5 0t44.5 2q72 10 139.5 23.5t137.5 23.5q23 4 49.5 8t40.5 -18q-70 -45 -133.5 -60.5t-126.5 -31.5q-66 -16 -131.5 -29.5t-132.5 -30.5q-23 -29 -44.5 -55.5 t-37.5 -52.5q-188 -293 -279 -584q-39 -117 -40 -215t52 -176q41 -55 103.5 -86t161.5 -21q16 4 32.5 1t46.5 -7q-35 -18 -53 -30.5t-35 -16.5q-113 -18 -192.5 6.5t-136.5 79.5q-78 76 -94.5 184.5t20.5 243.5q35 135 97.5 272.5t142.5 276.5q18 33 34.5 64.5t34.5 66.5 q-88 -4 -175 -22.5t-175 -40.5q-35 -8 -62.5 -26.5t-54.5 -47.5q-80 -84 -159.5 -167t-159.5 -169q-70 -72 -135.5 -140.5t-130.5 -138.5q-25 -29 -60 -55q-31 -23 -61.5 -38t-59.5 -11q-33 8 -53 23.5t-10 56.5zM270 189.5q0 -11.5 2 -31.5q106 121 219 228t207 230 q-47 6 -80.5 -4t-64.5 -49q-72 -90 -140.5 -177t-138.5 -177q-4 -8 -4 -19.5zM1030 782q84 6 161 20.5t161 37.5q18 16 27.5 25t13.5 18q141 195 280 387t279 389q4 2 -2 6t-11 8q-10 -6 -19 -11t-13 -11q-211 -203 -420 -402.5t-418 -404.5q-10 -10 -18.5 -25.5 t-20.5 -36.5zM2462 2363q0 9 10 23q8 12 22 20q35 18 60.5 15.5t25.5 -29.5q4 -23 2 -47.5t-6 -48.5q-6 -41 -55 -64q-20 -8 -36.5 -4t-18.5 21q-10 57 -4 114z" />
<glyph unicode="&#xc1;" horiz-adv-x="1697" d="M-8 -47q12 59 55 125q55 78 112.5 154.5t114.5 154.5q37 47 72 91t64 83q2 23 -9.5 35t-22.5 22.5t-17.5 25.5t10.5 44q41 8 79.5 14.5t84.5 14.5q25 29 48 53.5t46 52.5q156 193 310.5 383.5t309.5 382.5q20 27 42 55.5t26 51.5q10 59 52 111.5t89 103.5q41 45 83 88 t85 88q53 51 98 35q25 -10 30 -34t-13 -48q-12 -16 -23.5 -30.5t-25.5 -31.5q-215 -266 -426 -528t-424 -530q-37 -45 -73.5 -90.5t-59.5 -92.5q98 -29 198 72q121 121 239 238.5t240 234.5q207 195 414 386.5t414 383.5q29 27 63 51q63 51 111 23q37 -23 4 -74 q-8 -12 -17.5 -24.5t-17.5 -22.5q-164 -217 -327.5 -434t-325.5 -434q-43 -59 -83 -119t-87 -127q31 2 53.5 0t44.5 2q72 10 139.5 23.5t137.5 23.5q23 4 49.5 8t40.5 -18q-70 -45 -133.5 -60.5t-126.5 -31.5q-66 -16 -131.5 -29.5t-132.5 -30.5q-23 -29 -44.5 -55.5 t-37.5 -52.5q-188 -293 -279 -584q-39 -117 -40 -215t52 -176q41 -55 103.5 -86t161.5 -21q16 4 32.5 1t46.5 -7q-35 -18 -53 -30.5t-35 -16.5q-113 -18 -192.5 6.5t-136.5 79.5q-78 76 -94.5 184.5t20.5 243.5q35 135 97.5 272.5t142.5 276.5q18 33 34.5 64.5t34.5 66.5 q-88 -4 -175 -22.5t-175 -40.5q-35 -8 -62.5 -26.5t-54.5 -47.5q-80 -84 -159.5 -167t-159.5 -169q-70 -72 -135.5 -140.5t-130.5 -138.5q-25 -29 -60 -55q-31 -23 -61.5 -38t-59.5 -11q-33 8 -53 23.5t-10 56.5zM270 189.5q0 -11.5 2 -31.5q106 121 219 228t207 230 q-47 6 -80.5 -4t-64.5 -49q-72 -90 -140.5 -177t-138.5 -177q-4 -8 -4 -19.5zM1030 782q84 6 161 20.5t161 37.5q18 16 27.5 25t13.5 18q141 195 280 387t279 389q4 2 -2 6t-11 8q-10 -6 -19 -11t-13 -11q-211 -203 -420 -402.5t-418 -404.5q-10 -10 -18.5 -25.5 t-20.5 -36.5zM2441 2261q-20 23 15 57q47 51 94 95q29 23 55.5 24.5t38.5 -14.5q10 -16 -8 -39q-31 -29 -61.5 -55.5t-63.5 -53.5q-20 -16 -38.5 -19t-31.5 5z" />
<glyph unicode="&#xc2;" horiz-adv-x="1697" d="M-8 -47q12 59 55 125q55 78 112.5 154.5t114.5 154.5q37 47 72 91t64 83q2 23 -9.5 35t-22.5 22.5t-17.5 25.5t10.5 44q41 8 79.5 14.5t84.5 14.5q25 29 48 53.5t46 52.5q156 193 310.5 383.5t309.5 382.5q20 27 42 55.5t26 51.5q10 59 52 111.5t89 103.5q41 45 83 88 t85 88q53 51 98 35q25 -10 30 -34t-13 -48q-12 -16 -23.5 -30.5t-25.5 -31.5q-215 -266 -426 -528t-424 -530q-37 -45 -73.5 -90.5t-59.5 -92.5q98 -29 198 72q121 121 239 238.5t240 234.5q207 195 414 386.5t414 383.5q29 27 63 51q63 51 111 23q37 -23 4 -74 q-8 -12 -17.5 -24.5t-17.5 -22.5q-164 -217 -327.5 -434t-325.5 -434q-43 -59 -83 -119t-87 -127q31 2 53.5 0t44.5 2q72 10 139.5 23.5t137.5 23.5q23 4 49.5 8t40.5 -18q-70 -45 -133.5 -60.5t-126.5 -31.5q-66 -16 -131.5 -29.5t-132.5 -30.5q-23 -29 -44.5 -55.5 t-37.5 -52.5q-188 -293 -279 -584q-39 -117 -40 -215t52 -176q41 -55 103.5 -86t161.5 -21q16 4 32.5 1t46.5 -7q-35 -18 -53 -30.5t-35 -16.5q-113 -18 -192.5 6.5t-136.5 79.5q-78 76 -94.5 184.5t20.5 243.5q35 135 97.5 272.5t142.5 276.5q18 33 34.5 64.5t34.5 66.5 q-88 -4 -175 -22.5t-175 -40.5q-35 -8 -62.5 -26.5t-54.5 -47.5q-80 -84 -159.5 -167t-159.5 -169q-70 -72 -135.5 -140.5t-130.5 -138.5q-25 -29 -60 -55q-31 -23 -61.5 -38t-59.5 -11q-33 8 -53 23.5t-10 56.5zM270 189.5q0 -11.5 2 -31.5q106 121 219 228t207 230 q-47 6 -80.5 -4t-64.5 -49q-72 -90 -140.5 -177t-138.5 -177q-4 -8 -4 -19.5zM1030 782q84 6 161 20.5t161 37.5q18 16 27.5 25t13.5 18q141 195 280 387t279 389q4 2 -2 6t-11 8q-10 -6 -19 -11t-13 -11q-211 -203 -420 -402.5t-418 -404.5q-10 -10 -18.5 -25.5 t-20.5 -36.5zM2326 2238q-7 10 9 37q47 41 78.5 71t62.5 56q41 33 82 39t51 -22q14 -39 19.5 -81t9.5 -85q2 -4 -13.5 -17.5t-25.5 -17.5t-24.5 -5t-22.5 3q-29 16 -58.5 25.5t-78.5 -5.5q-10 -2 -29 -6t-36 -3t-24 11z" />
<glyph unicode="&#xc3;" horiz-adv-x="1697" d="M-8 -47q12 59 55 125q55 78 112.5 154.5t114.5 154.5q37 47 72 91t64 83q2 23 -9.5 35t-22.5 22.5t-17.5 25.5t10.5 44q41 8 79.5 14.5t84.5 14.5q25 29 48 53.5t46 52.5q156 193 310.5 383.5t309.5 382.5q20 27 42 55.5t26 51.5q10 59 52 111.5t89 103.5q41 45 83 88 t85 88q53 51 98 35q25 -10 30 -34t-13 -48q-12 -16 -23.5 -30.5t-25.5 -31.5q-215 -266 -426 -528t-424 -530q-37 -45 -73.5 -90.5t-59.5 -92.5q98 -29 198 72q121 121 239 238.5t240 234.5q207 195 414 386.5t414 383.5q29 27 63 51q63 51 111 23q37 -23 4 -74 q-8 -12 -17.5 -24.5t-17.5 -22.5q-164 -217 -327.5 -434t-325.5 -434q-43 -59 -83 -119t-87 -127q31 2 53.5 0t44.5 2q72 10 139.5 23.5t137.5 23.5q23 4 49.5 8t40.5 -18q-70 -45 -133.5 -60.5t-126.5 -31.5q-66 -16 -131.5 -29.5t-132.5 -30.5q-23 -29 -44.5 -55.5 t-37.5 -52.5q-188 -293 -279 -584q-39 -117 -40 -215t52 -176q41 -55 103.5 -86t161.5 -21q16 4 32.5 1t46.5 -7q-35 -18 -53 -30.5t-35 -16.5q-113 -18 -192.5 6.5t-136.5 79.5q-78 76 -94.5 184.5t20.5 243.5q35 135 97.5 272.5t142.5 276.5q18 33 34.5 64.5t34.5 66.5 q-88 -4 -175 -22.5t-175 -40.5q-35 -8 -62.5 -26.5t-54.5 -47.5q-80 -84 -159.5 -167t-159.5 -169q-70 -72 -135.5 -140.5t-130.5 -138.5q-25 -29 -60 -55q-31 -23 -61.5 -38t-59.5 -11q-33 8 -53 23.5t-10 56.5zM270 189.5q0 -11.5 2 -31.5q106 121 219 228t207 230 q-47 6 -80.5 -4t-64.5 -49q-72 -90 -140.5 -177t-138.5 -177q-4 -8 -4 -19.5zM1030 782q84 6 161 20.5t161 37.5q18 16 27.5 25t13.5 18q141 195 280 387t279 389q4 2 -2 6t-11 8q-10 -6 -19 -11t-13 -11q-211 -203 -420 -402.5t-418 -404.5q-10 -10 -18.5 -25.5 t-20.5 -36.5zM2337 2263q0 6 7 20.5t13 20.5q33 33 77 53.5t71 9.5q23 -6 28 -26q6 -27 22.5 -26t51.5 18q16 8 29.5 16t29.5 12q10 2 13.5 -6t3.5 -14q2 -4 -9.5 -20.5t-19.5 -22.5q-20 -16 -42.5 -30.5t-45 -24t-41 -11.5t-31.5 9q-10 8 -18.5 27.5t-24.5 15.5 q-12 -4 -28.5 -14.5t-30.5 -18.5q-55 -35 -55 12z" />
<glyph unicode="&#xc4;" horiz-adv-x="1697" d="M-8 -47q12 59 55 125q55 78 112.5 154.5t114.5 154.5q37 47 72 91t64 83q2 23 -9.5 35t-22.5 22.5t-17.5 25.5t10.5 44q41 8 79.5 14.5t84.5 14.5q25 29 48 53.5t46 52.5q156 193 310.5 383.5t309.5 382.5q20 27 42 55.5t26 51.5q10 59 52 111.5t89 103.5q41 45 83 88 t85 88q53 51 98 35q25 -10 30 -34t-13 -48q-12 -16 -23.5 -30.5t-25.5 -31.5q-215 -266 -426 -528t-424 -530q-37 -45 -73.5 -90.5t-59.5 -92.5q98 -29 198 72q121 121 239 238.5t240 234.5q207 195 414 386.5t414 383.5q29 27 63 51q63 51 111 23q37 -23 4 -74 q-8 -12 -17.5 -24.5t-17.5 -22.5q-164 -217 -327.5 -434t-325.5 -434q-43 -59 -83 -119t-87 -127q31 2 53.5 0t44.5 2q72 10 139.5 23.5t137.5 23.5q23 4 49.5 8t40.5 -18q-70 -45 -133.5 -60.5t-126.5 -31.5q-66 -16 -131.5 -29.5t-132.5 -30.5q-23 -29 -44.5 -55.5 t-37.5 -52.5q-188 -293 -279 -584q-39 -117 -40 -215t52 -176q41 -55 103.5 -86t161.5 -21q16 4 32.5 1t46.5 -7q-35 -18 -53 -30.5t-35 -16.5q-113 -18 -192.5 6.5t-136.5 79.5q-78 76 -94.5 184.5t20.5 243.5q35 135 97.5 272.5t142.5 276.5q18 33 34.5 64.5t34.5 66.5 q-88 -4 -175 -22.5t-175 -40.5q-35 -8 -62.5 -26.5t-54.5 -47.5q-80 -84 -159.5 -167t-159.5 -169q-70 -72 -135.5 -140.5t-130.5 -138.5q-25 -29 -60 -55q-31 -23 -61.5 -38t-59.5 -11q-33 8 -53 23.5t-10 56.5zM270 189.5q0 -11.5 2 -31.5q106 121 219 228t207 230 q-47 6 -80.5 -4t-64.5 -49q-72 -90 -140.5 -177t-138.5 -177q-4 -8 -4 -19.5zM1030 782q84 6 161 20.5t161 37.5q18 16 27.5 25t13.5 18q141 195 280 387t279 389q4 2 -2 6t-11 8q-10 -6 -19 -11t-13 -11q-211 -203 -420 -402.5t-418 -404.5q-10 -10 -18.5 -25.5 t-20.5 -36.5zM2361 2310q-2 12 1 26.5t3 28.5q6 27 33 45.5t64 14.5q8 -4 23.5 -12.5t21.5 -24.5q6 -10 1 -26.5t-16.5 -34t-27 -32t-29.5 -20.5q-27 -12 -49.5 -3t-24.5 38zM2585 2310q-2 12 1 26.5t3 28.5q6 27 32.5 45.5t63.5 14.5q8 -4 23.5 -12.5t21.5 -24.5 q6 -10 1 -26.5t-16.5 -34t-26.5 -32t-30 -20.5q-27 -12 -49 -3t-24 38z" />
<glyph unicode="&#xc5;" horiz-adv-x="1697" d="M-8 -47q12 59 55 125q55 78 112.5 154.5t114.5 154.5q37 47 72 91t64 83q2 23 -9.5 35t-22.5 22.5t-17.5 25.5t10.5 44q41 8 79.5 14.5t84.5 14.5q25 29 48 53.5t46 52.5q156 193 310.5 383.5t309.5 382.5q20 27 42 55.5t26 51.5q10 59 52 111.5t89 103.5q41 45 83 88 t85 88q53 51 98 35q25 -10 30 -34t-13 -48q-12 -16 -23.5 -30.5t-25.5 -31.5q-215 -266 -426 -528t-424 -530q-37 -45 -73.5 -90.5t-59.5 -92.5q98 -29 198 72q121 121 239 238.5t240 234.5q207 195 414 386.5t414 383.5q29 27 63 51q63 51 111 23q37 -23 4 -74 q-8 -12 -17.5 -24.5t-17.5 -22.5q-164 -217 -327.5 -434t-325.5 -434q-43 -59 -83 -119t-87 -127q31 2 53.5 0t44.5 2q72 10 139.5 23.5t137.5 23.5q23 4 49.5 8t40.5 -18q-70 -45 -133.5 -60.5t-126.5 -31.5q-66 -16 -131.5 -29.5t-132.5 -30.5q-23 -29 -44.5 -55.5 t-37.5 -52.5q-188 -293 -279 -584q-39 -117 -40 -215t52 -176q41 -55 103.5 -86t161.5 -21q16 4 32.5 1t46.5 -7q-35 -18 -53 -30.5t-35 -16.5q-113 -18 -192.5 6.5t-136.5 79.5q-78 76 -94.5 184.5t20.5 243.5q35 135 97.5 272.5t142.5 276.5q18 33 34.5 64.5t34.5 66.5 q-88 -4 -175 -22.5t-175 -40.5q-35 -8 -62.5 -26.5t-54.5 -47.5q-80 -84 -159.5 -167t-159.5 -169q-70 -72 -135.5 -140.5t-130.5 -138.5q-25 -29 -60 -55q-31 -23 -61.5 -38t-59.5 -11q-33 8 -53 23.5t-10 56.5zM270 189.5q0 -11.5 2 -31.5q106 121 219 228t207 230 q-47 6 -80.5 -4t-64.5 -49q-72 -90 -140.5 -177t-138.5 -177q-4 -8 -4 -19.5zM1030 782q84 6 161 20.5t161 37.5q18 16 27.5 25t13.5 18q141 195 280 387t279 389q4 2 -2 6t-11 8q-10 -6 -19 -11t-13 -11q-211 -203 -420 -402.5t-418 -404.5q-10 -10 -18.5 -25.5 t-20.5 -36.5zM2432 2267q-7 31 15 66q12 16 27.5 32.5t32.5 32.5q29 29 64.5 32t51.5 -32q-4 -10 -3 -31.5t-13 -44.5q-10 -18 -27.5 -36.5t-39 -30.5t-42 -18.5t-32.5 -2.5q-27 2 -34 33zM2509 2318q-2 -6 5 -8t15 0q6 4 13.5 13.5t3.5 15.5q-2 4 -4 6t-7 6q-23 0 -26 -18 v-15z" />
<glyph unicode="&#xc7;" horiz-adv-x="2689" d="M171 288q38 152 200 324q111 117 229.5 220.5t253.5 195.5q133 92 263 183.5t267 168.5q309 174 615.5 331t621.5 282q66 27 133.5 46t131.5 29q88 12 148.5 -11t64.5 -103q2 -33 -9.5 -67t-46.5 -68q-35 -37 -70.5 -73t-76.5 -69q-236 -197 -480.5 -377t-500.5 -350 q-49 -33 -103.5 -61.5t-107.5 -50.5q-55 -23 -100 -23t-70 35q-45 68 27 170q35 51 81 98t99 88q104 80 205.5 160t203.5 160q39 29 63.5 35t47.5 -7q23 -10 18.5 -32.5t-30.5 -42.5q-74 -57 -149 -112.5t-150 -113.5q-66 -51 -127.5 -104t-114.5 -115q-16 -18 -27.5 -37.5 t-29.5 -46.5q63 0 121.5 25.5t113.5 62.5q119 82 237 165t236 169q80 57 159 115.5t157 118.5q90 70 176 139.5t145 161.5q4 41 -17.5 55t-62.5 12q-82 -2 -170 -26.5t-178 -63.5q-231 -98 -457.5 -208.5t-455.5 -239.5q-373 -207 -727 -465q-113 -84 -219.5 -173 t-202.5 -188q-35 -37 -69 -73.5t-62 -77.5q-72 -100 -90.5 -186.5t28.5 -151.5q43 -61 107.5 -99t159.5 -47q111 -8 223 -0.5t235 29.5q45 8 133.5 30.5t206 55.5t254.5 74t278.5 83t280 84t256 78.5t206.5 64.5t136 44q78 27 157 50t155 46q12 -23 0.5 -35t-33.5 -22 q-106 -47 -282.5 -111.5t-388.5 -136t-443.5 -143.5t-447.5 -131.5t-401 -102.5t-304 -57q-4 -33 -39 -65q-63 -53 -123.5 -69.5t-81.5 -8.5q-12 4 -1 15t31.5 23.5t40 24.5t21.5 19q14 23 14.5 34t-6.5 21q-139 2 -248.5 37t-181.5 121q-94 109 -56 261z" />
<glyph unicode="&#xc8;" horiz-adv-x="1794" d="M184 276q-4 135 154 269q147 119 309 200q55 29 111.5 56.5t128.5 62.5q-23 20 -39.5 32.5t-24.5 27.5q-23 41 -49 77.5t-39 83.5q-25 102 27.5 189.5t163.5 173.5q182 139 383 231q150 72 297 122t292 83q362 82 704.5 124t668.5 36q63 0 120.5 -9.5t110.5 -25.5 q35 -10 61.5 -32.5t49.5 -47.5q12 -16 15 -39.5t7 -52.5q0 -10 -9 -13t-19.5 -3t-19.5 2t-11 4q-37 43 -87 67.5t-111.5 37t-130.5 13.5t-140 -3q-211 -12 -421 -32t-431 -57q-225 -37 -451.5 -95t-468.5 -169q-195 -90 -360 -225q-90 -72 -122 -131t-22 -131 q18 -94 91 -146q41 -29 91 -36t126 16q86 25 163.5 32t151.5 1q51 -4 89 -21.5t54 -54.5q2 -8 2 -21.5t-6 -21.5q-14 -12 -32.5 -25.5t-32.5 -15.5q-80 -14 -160 -24.5t-149 3.5q-25 6 -51.5 9.5t-49.5 7.5q-45 8 -95 1t-105 -34q-90 -43 -179.5 -87t-179.5 -91 q-35 -18 -68.5 -43t-66.5 -51q-186 -154 -127 -285q25 -53 70 -90t116 -49q213 -35 469 26q96 25 160 41.5t117 34t111.5 39t146.5 53.5q182 84 357 164t354 182q12 14 17 11.5t3 -17t-11 -33t-24 -34.5q-41 -43 -87 -64.5t-95 -50.5q-59 -35 -126 -68.5t-138 -70.5 q-104 -63 -202.5 -105.5t-203.5 -74.5q-61 -27 -107 -42.5t-90 -25.5t-94.5 -21.5t-124.5 -27.5q-281 -66 -491 -6q-111 31 -173.5 101.5t-66.5 188.5zM2847 2363q0 9 10 23q8 12 22 20q35 18 61 15.5t26 -29.5q4 -23 2 -47.5t-7 -48.5q-6 -41 -55 -64q-20 -8 -36.5 -4 t-18.5 21q-10 57 -4 114z" />
<glyph unicode="&#xc9;" horiz-adv-x="1794" d="M184 276q-4 135 154 269q147 119 309 200q55 29 111.5 56.5t128.5 62.5q-23 20 -39.5 32.5t-24.5 27.5q-23 41 -49 77.5t-39 83.5q-25 102 27.5 189.5t163.5 173.5q182 139 383 231q150 72 297 122t292 83q362 82 704.5 124t668.5 36q63 0 120.5 -9.5t110.5 -25.5 q35 -10 61.5 -32.5t49.5 -47.5q12 -16 15 -39.5t7 -52.5q0 -10 -9 -13t-19.5 -3t-19.5 2t-11 4q-37 43 -87 67.5t-111.5 37t-130.5 13.5t-140 -3q-211 -12 -421 -32t-431 -57q-225 -37 -451.5 -95t-468.5 -169q-195 -90 -360 -225q-90 -72 -122 -131t-22 -131 q18 -94 91 -146q41 -29 91 -36t126 16q86 25 163.5 32t151.5 1q51 -4 89 -21.5t54 -54.5q2 -8 2 -21.5t-6 -21.5q-14 -12 -32.5 -25.5t-32.5 -15.5q-80 -14 -160 -24.5t-149 3.5q-25 6 -51.5 9.5t-49.5 7.5q-45 8 -95 1t-105 -34q-90 -43 -179.5 -87t-179.5 -91 q-35 -18 -68.5 -43t-66.5 -51q-186 -154 -127 -285q25 -53 70 -90t116 -49q213 -35 469 26q96 25 160 41.5t117 34t111.5 39t146.5 53.5q182 84 357 164t354 182q12 14 17 11.5t3 -17t-11 -33t-24 -34.5q-41 -43 -87 -64.5t-95 -50.5q-59 -35 -126 -68.5t-138 -70.5 q-104 -63 -202.5 -105.5t-203.5 -74.5q-61 -27 -107 -42.5t-90 -25.5t-94.5 -21.5t-124.5 -27.5q-281 -66 -491 -6q-111 31 -173.5 101.5t-66.5 188.5zM2865 2261q-20 23 14 57q47 51 95 95q29 23 55.5 24.5t38.5 -14.5q10 -16 -8 -39q-31 -29 -61.5 -55.5t-63.5 -53.5 q-20 -16 -39 -19t-31 5z" />
<glyph unicode="&#xca;" horiz-adv-x="1794" d="M184 276q-4 135 154 269q147 119 309 200q55 29 111.5 56.5t128.5 62.5q-23 20 -39.5 32.5t-24.5 27.5q-23 41 -49 77.5t-39 83.5q-25 102 27.5 189.5t163.5 173.5q182 139 383 231q150 72 297 122t292 83q362 82 704.5 124t668.5 36q63 0 120.5 -9.5t110.5 -25.5 q35 -10 61.5 -32.5t49.5 -47.5q12 -16 15 -39.5t7 -52.5q0 -10 -9 -13t-19.5 -3t-19.5 2t-11 4q-37 43 -87 67.5t-111.5 37t-130.5 13.5t-140 -3q-211 -12 -421 -32t-431 -57q-225 -37 -451.5 -95t-468.5 -169q-195 -90 -360 -225q-90 -72 -122 -131t-22 -131 q18 -94 91 -146q41 -29 91 -36t126 16q86 25 163.5 32t151.5 1q51 -4 89 -21.5t54 -54.5q2 -8 2 -21.5t-6 -21.5q-14 -12 -32.5 -25.5t-32.5 -15.5q-80 -14 -160 -24.5t-149 3.5q-25 6 -51.5 9.5t-49.5 7.5q-45 8 -95 1t-105 -34q-90 -43 -179.5 -87t-179.5 -91 q-35 -18 -68.5 -43t-66.5 -51q-186 -154 -127 -285q25 -53 70 -90t116 -49q213 -35 469 26q96 25 160 41.5t117 34t111.5 39t146.5 53.5q182 84 357 164t354 182q12 14 17 11.5t3 -17t-11 -33t-24 -34.5q-41 -43 -87 -64.5t-95 -50.5q-59 -35 -126 -68.5t-138 -70.5 q-104 -63 -202.5 -105.5t-203.5 -74.5q-61 -27 -107 -42.5t-90 -25.5t-94.5 -21.5t-124.5 -27.5q-281 -66 -491 -6q-111 31 -173.5 101.5t-66.5 188.5zM2786.5 2238q-6.5 10 9.5 37q47 41 78.5 71t62.5 56q41 33 82 39t51 -22q14 -39 19.5 -81t9.5 -85q2 -4 -13.5 -17.5 t-25.5 -17.5t-24.5 -5t-22.5 3q-29 16 -58.5 25.5t-79.5 -5.5q-10 -2 -28.5 -6t-36 -3t-24 11z" />
<glyph unicode="&#xcb;" horiz-adv-x="1794" d="M184 276q-4 135 154 269q147 119 309 200q55 29 111.5 56.5t128.5 62.5q-23 20 -39.5 32.5t-24.5 27.5q-23 41 -49 77.5t-39 83.5q-25 102 27.5 189.5t163.5 173.5q182 139 383 231q150 72 297 122t292 83q362 82 704.5 124t668.5 36q63 0 120.5 -9.5t110.5 -25.5 q35 -10 61.5 -32.5t49.5 -47.5q12 -16 15 -39.5t7 -52.5q0 -10 -9 -13t-19.5 -3t-19.5 2t-11 4q-37 43 -87 67.5t-111.5 37t-130.5 13.5t-140 -3q-211 -12 -421 -32t-431 -57q-225 -37 -451.5 -95t-468.5 -169q-195 -90 -360 -225q-90 -72 -122 -131t-22 -131 q18 -94 91 -146q41 -29 91 -36t126 16q86 25 163.5 32t151.5 1q51 -4 89 -21.5t54 -54.5q2 -8 2 -21.5t-6 -21.5q-14 -12 -32.5 -25.5t-32.5 -15.5q-80 -14 -160 -24.5t-149 3.5q-25 6 -51.5 9.5t-49.5 7.5q-45 8 -95 1t-105 -34q-90 -43 -179.5 -87t-179.5 -91 q-35 -18 -68.5 -43t-66.5 -51q-186 -154 -127 -285q25 -53 70 -90t116 -49q213 -35 469 26q96 25 160 41.5t117 34t111.5 39t146.5 53.5q182 84 357 164t354 182q12 14 17 11.5t3 -17t-11 -33t-24 -34.5q-41 -43 -87 -64.5t-95 -50.5q-59 -35 -126 -68.5t-138 -70.5 q-104 -63 -202.5 -105.5t-203.5 -74.5q-61 -27 -107 -42.5t-90 -25.5t-94.5 -21.5t-124.5 -27.5q-281 -66 -491 -6q-111 31 -173.5 101.5t-66.5 188.5zM2693 2310q-2 12 1 26.5t3 28.5q6 27 32.5 45.5t63.5 14.5q8 -4 23.5 -12.5t22.5 -24.5q6 -10 0.5 -26.5t-16.5 -34 t-26.5 -32t-29.5 -20.5q-27 -12 -49.5 -3t-24.5 38zM2916 2310q-2 12 1 26.5t3 28.5q6 27 33 45.5t64 14.5q8 -4 23.5 -12.5t21.5 -24.5q6 -10 1 -26.5t-16.5 -34t-27 -32t-29.5 -20.5q-27 -12 -49.5 -3t-24.5 38z" />
<glyph unicode="&#xcc;" horiz-adv-x="999" d="M-89 -178.5q1 10.5 7 20.5q10 10 27.5 21.5t29.5 15.5q31 8 63 12.5t66 10.5q29 4 57.5 10t61.5 12q23 25 40.5 45.5t31.5 40.5q342 455 647 900.5t584 893.5q27 41 52.5 80t55.5 80q47 66 115 120t154 101q104 57 202.5 93t194.5 57q197 41 361.5 42t310.5 -22 q35 -4 54 -20.5t3 -61.5q-78 4 -150.5 11.5t-148.5 10.5t-157 -2.5t-175 -25.5q-268 -287 -530 -573.5t-514 -573t-488.5 -574.5t-449.5 -579q25 -10 52.5 -21.5t61.5 -25.5q-37 -16 -60.5 -28.5t-39.5 -16.5q-115 -23 -224.5 -43t-217.5 -39q-23 -4 -40.5 1t-29.5 13 q-8 4 -7 14.5zM1171 1098q-6 -4 0.5 -8.5t12.5 -14.5q33 39 62.5 71t51.5 62q55 78 124 154t149 151q25 23 50.5 47.5t47.5 49.5q92 100 180 200.5t181 202.5q41 47 82 94.5t86 100.5q-25 -4 -39.5 -5t-28.5 -5q-160 -61 -282 -150.5t-203 -214.5q-119 -184 -238 -366.5 t-236 -368.5zM2584 2532.5q-1 27.5 1 58.5q-2 4 1 10t7 12q4 4 10 10.5t14 10.5q33 18 59.5 15t26.5 -30q6 -43 -4 -96q-6 -41 -55 -63q-20 -8 -35.5 -4t-17.5 20q-6 29 -7 56.5z" />
<glyph unicode="&#xcd;" horiz-adv-x="999" d="M-89 -178.5q1 10.5 7 20.5q10 10 27.5 21.5t29.5 15.5q31 8 63 12.5t66 10.5q29 4 57.5 10t61.5 12q23 25 40.5 45.5t31.5 40.5q342 455 647 900.5t584 893.5q27 41 52.5 80t55.5 80q47 66 115 120t154 101q104 57 202.5 93t194.5 57q197 41 361.5 42t310.5 -22 q35 -4 54 -20.5t3 -61.5q-78 4 -150.5 11.5t-148.5 10.5t-157 -2.5t-175 -25.5q-268 -287 -530 -573.5t-514 -573t-488.5 -574.5t-449.5 -579q25 -10 52.5 -21.5t61.5 -25.5q-37 -16 -60.5 -28.5t-39.5 -16.5q-115 -23 -224.5 -43t-217.5 -39q-23 -4 -40.5 1t-29.5 13 q-8 4 -7 14.5zM1171 1098q-6 -4 0.5 -8.5t12.5 -14.5q33 39 62.5 71t51.5 62q55 78 124 154t149 151q25 23 50.5 47.5t47.5 49.5q92 100 180 200.5t181 202.5q41 47 82 94.5t86 100.5q-25 -4 -39.5 -5t-28.5 -5q-160 -61 -282 -150.5t-203 -214.5q-119 -184 -238 -366.5 t-236 -368.5zM2554 2466q-20 20 12 57l48.5 48.5t47.5 45.5q25 23 52.5 25t40.5 -14q6 -8 2.5 -18.5t-11.5 -20.5q-33 -29 -62.5 -55.5t-62.5 -53.5q-20 -16 -38.5 -19t-28.5 5z" />
<glyph unicode="&#xce;" horiz-adv-x="999" d="M-89 -178.5q1 10.5 7 20.5q10 10 27.5 21.5t29.5 15.5q31 8 63 12.5t66 10.5q29 4 57.5 10t61.5 12q23 25 40.5 45.5t31.5 40.5q342 455 647 900.5t584 893.5q27 41 52.5 80t55.5 80q47 66 115 120t154 101q104 57 202.5 93t194.5 57q197 41 361.5 42t310.5 -22 q35 -4 54 -20.5t3 -61.5q-78 4 -150.5 11.5t-148.5 10.5t-157 -2.5t-175 -25.5q-268 -287 -530 -573.5t-514 -573t-488.5 -574.5t-449.5 -579q25 -10 52.5 -21.5t61.5 -25.5q-37 -16 -60.5 -28.5t-39.5 -16.5q-115 -23 -224.5 -43t-217.5 -39q-23 -4 -40.5 1t-29.5 13 q-8 4 -7 14.5zM1171 1098q-6 -4 0.5 -8.5t12.5 -14.5q33 39 62.5 71t51.5 62q55 78 124 154t149 151q25 23 50.5 47.5t47.5 49.5q92 100 180 200.5t181 202.5q41 47 82 94.5t86 100.5q-25 -4 -39.5 -5t-28.5 -5q-160 -61 -282 -150.5t-203 -214.5q-119 -184 -238 -366.5 t-236 -368.5zM2461 2486q-7 10 9 37q47 41 78.5 70.5t62.5 56.5q41 33 81 39t50 -23q16 -39 21.5 -80.5t9.5 -84.5q0 -4 -14.5 -17.5t-24.5 -17.5q-12 -4 -26.5 -5t-20.5 3q-29 16 -59.5 25.5t-79.5 -5.5q-10 -2 -28.5 -6t-35 -3t-23.5 11z" />
<glyph unicode="&#xcf;" horiz-adv-x="999" d="M-89 -178.5q1 10.5 7 20.5q10 10 27.5 21.5t29.5 15.5q31 8 63 12.5t66 10.5q29 4 57.5 10t61.5 12q23 25 40.5 45.5t31.5 40.5q342 455 647 900.5t584 893.5q27 41 52.5 80t55.5 80q47 66 115 120t154 101q104 57 202.5 93t194.5 57q197 41 361.5 42t310.5 -22 q35 -4 54 -20.5t3 -61.5q-78 4 -150.5 11.5t-148.5 10.5t-157 -2.5t-175 -25.5q-268 -287 -530 -573.5t-514 -573t-488.5 -574.5t-449.5 -579q25 -10 52.5 -21.5t61.5 -25.5q-37 -16 -60.5 -28.5t-39.5 -16.5q-115 -23 -224.5 -43t-217.5 -39q-23 -4 -40.5 1t-29.5 13 q-8 4 -7 14.5zM1171 1098q-6 -4 0.5 -8.5t12.5 -14.5q33 39 62.5 71t51.5 62q55 78 124 154t149 151q25 23 50.5 47.5t47.5 49.5q92 100 180 200.5t181 202.5q41 47 82 94.5t86 100.5q-25 -4 -39.5 -5t-28.5 -5q-160 -61 -282 -150.5t-203 -214.5q-119 -184 -238 -366.5 t-236 -368.5zM2429 2494q-2 25 4 56q6 27 31.5 45t64.5 14q8 -4 22.5 -12t22.5 -25q4 -10 -1 -26.5t-15 -34t-25.5 -31.5t-29.5 -20q-27 -12 -50.5 -3t-23.5 37zM2652 2494q-2 25 4 56q6 27 32 45t65 14q8 -4 22 -12t23 -25q4 -10 -1.5 -26.5t-15.5 -34t-25.5 -31.5 t-29.5 -20q-27 -12 -50.5 -3t-23.5 37z" />
<glyph unicode="&#xd0;" horiz-adv-x="3358" d="M311.5 -141.5q-24.5 69.5 14.5 172.5q39 96 96 189t143 183q174 186 352.5 364.5t382.5 344.5q45 35 89.5 71t87.5 70q51 39 101 75t103 77q12 -10 24.5 -16.5t12.5 -16.5q4 -16 -2 -35.5t-16 -36.5q-59 -84 -119.5 -164.5t-124.5 -162.5q-47 -66 -100 -131.5 t-103 -130.5q-23 -29 -43 -55.5t-41 -55.5q23 -2 45.5 -2t40.5 -6q8 -2 19.5 -5t21 -9.5t12.5 -14.5t-5 -16q-14 -14 -42 -26.5t-40 -12.5q-29 0 -57.5 -1t-57.5 -1q-61 -98 -110.5 -195.5t-86.5 -197.5q-10 -29 -21 -59.5t-54 -57.5q-29 8 -30 30.5t7 51.5q33 109 78 214 t110 216h-30q-16 0 -24.5 14.5t-12.5 28.5q-2 10 7 27.5t19 29.5q4 8 21.5 14.5t28.5 4.5q18 -2 33.5 -4t31.5 -7q8 14 21 27q90 121 182 244t203 266q-39 -23 -56.5 -32t-27.5 -19q-219 -182 -424 -372.5t-385 -401.5q-57 -66 -98.5 -133.5t-73.5 -135.5 q-41 -84 -19.5 -135t97.5 -67q111 -23 235.5 -5.5t255.5 52.5q236 61 472.5 142t475.5 173q162 61 324 124t323 134q119 53 238 106.5t236.5 113t234.5 127t231 151.5q84 61 159 130t147 142q47 49 78.5 111.5t44 124t4 115t-40.5 83.5q-45 45 -102.5 78t-131.5 49 q-172 37 -359.5 38t-387.5 -15q-381 -31 -774.5 -117t-804.5 -233q-82 -29 -164 -64t-164 -74q-74 -35 -127 -66.5t-97 -67t-85 -81t-90 -108.5q-39 -12 -42 5t1 40q23 72 78 132t133 112q104 66 206.5 113.5t206.5 88.5q170 66 339 121.5t337 96.5q342 86 669.5 144 t639.5 62q121 4 237.5 1t229.5 -17q78 -10 145.5 -33.5t122.5 -58.5q72 -43 102.5 -121t15 -177t-80 -213t-182.5 -226q-131 -123 -275.5 -217.5t-298.5 -176.5q-360 -193 -718.5 -344t-721.5 -286q-190 -70 -377.5 -133.5t-373.5 -108.5q-197 -45 -391 -68 q-53 -6 -102.5 -2t-96.5 15q-90 20 -114.5 89.5z" />
<glyph unicode="&#xd1;" horiz-adv-x="2181" d="M177 307q-7 12 5 35q16 29 32.5 55.5t39.5 55.5q117 154 235.5 307t233.5 307q86 117 167 231.5t167 237.5q16 6 38.5 16.5t43.5 14.5q98 18 61 -68q-27 -66 -56.5 -131t-62.5 -131q-121 -258 -231.5 -510t-200.5 -504q-37 -98 -60.5 -192t-23.5 -181q-4 -96 56 -151 q59 -53 165.5 -40t231.5 91q287 178 504 418q154 170 306 339t292 343q80 102 153.5 204.5t149.5 207.5q47 66 82 133t65 133q39 92 54.5 171t-17.5 140q-4 8 -2 19.5t0 31.5q27 -2 49.5 0t30.5 -8q43 -43 55.5 -103.5t-16.5 -144.5q-29 -98 -83 -198.5t-126 -204.5 q-158 -233 -342 -458.5t-391 -450.5q-72 -78 -144.5 -155t-148.5 -153q-152 -152 -342 -274q-154 -100 -303 -137q-205 -49 -321.5 6t-110.5 207q2 115 39.5 239.5t93.5 257.5q68 160 135.5 321t134.5 322q4 6 0 14t-8 31q-135 -182 -262 -350t-258 -342q-18 -4 -40 -9 t-40 -5q-23 0 -30 12zM1835 1995q0 6 7 20.5t13 20.5q31 33 77 53t73 10q20 -6 27 -26q8 -27 23.5 -26t49.5 17q16 8 30.5 16.5t29.5 12.5q10 2 13 -6t3 -14q2 -4 -8 -20.5t-21 -22.5q-20 -16 -42.5 -30.5t-44 -24t-41 -11.5t-31.5 8q-10 8 -17.5 27.5t-23.5 15.5 q-14 -4 -29.5 -14t-32.5 -19q-53 -35 -55 13z" />
<glyph unicode="&#xd2;" horiz-adv-x="1783" d="M-121 -371q-10 51 3.5 107.5t43.5 116.5q125 270 332 536q180 229 379 445.5t422 427.5q109 102 209 206.5t192 217.5q178 219 400 403q135 111 267 165t263 44q176 -12 213 -158q35 -166 -55 -364q-23 -55 -50.5 -111t-56.5 -111q-104 -190 -241.5 -369t-286.5 -360 q-281 -330 -602.5 -617.5t-696.5 -535.5q-86 -57 -174 -106t-180 -78q-78 -25 -143.5 -26t-115.5 17.5t-82 56.5t-40 93zM17 -265.5q-11 -62.5 10 -113.5q29 -59 93 -71.5t159 32.5q72 35 142.5 75t139.5 85q182 121 351 255t331 279q254 225 469 465t406 496 q213 285 319 567q35 92 46 175t-9 157q-8 37 -33.5 56.5t-79.5 15.5q-25 -14 -51 -31.5t-51 -24.5q-92 -25 -172 -79t-152 -119q-109 -98 -213 -195.5t-209 -193.5q-92 -82 -163.5 -167t-137.5 -177q-37 -51 -71.5 -101.5t-67.5 -103.5q-53 -84 -97 -166t-67 -164 q-16 -63 -6 -106t53 -72q14 -10 31 -14.5t29 -14.5q4 -4 4 -16t2 -31q-37 4 -64.5 5t-50.5 7q-201 49 -108 279q16 43 35.5 90t48.5 119q-39 -35 -58.5 -50.5t-31.5 -29.5q-117 -121 -223.5 -245t-202.5 -253q-88 -121 -168 -242.5t-138 -244.5q-33 -70 -44 -132.5z M2529 2492q3 7 11 23q6 4 11 10t13 10q33 18 60.5 15.5t27.5 -29.5q0 -23 -2 -47.5t-6 -48.5q-2 -41 -53 -64q-20 -8 -37 -4t-19 21q-4 29 -5 56.5t-1 57.5z" />
<glyph unicode="&#xd3;" horiz-adv-x="1783" d="M-121 -371q-10 51 3.5 107.5t43.5 116.5q125 270 332 536q180 229 379 445.5t422 427.5q109 102 209 206.5t192 217.5q178 219 400 403q135 111 267 165t263 44q176 -12 213 -158q35 -166 -55 -364q-23 -55 -50.5 -111t-56.5 -111q-104 -190 -241.5 -369t-286.5 -360 q-281 -330 -602.5 -617.5t-696.5 -535.5q-86 -57 -174 -106t-180 -78q-78 -25 -143.5 -26t-115.5 17.5t-82 56.5t-40 93zM17 -265.5q-11 -62.5 10 -113.5q29 -59 93 -71.5t159 32.5q72 35 142.5 75t139.5 85q182 121 351 255t331 279q254 225 469 465t406 496 q213 285 319 567q35 92 46 175t-9 157q-8 37 -33.5 56.5t-79.5 15.5q-25 -14 -51 -31.5t-51 -24.5q-92 -25 -172 -79t-152 -119q-109 -98 -213 -195.5t-209 -193.5q-92 -82 -163.5 -167t-137.5 -177q-37 -51 -71.5 -101.5t-67.5 -103.5q-53 -84 -97 -166t-67 -164 q-16 -63 -6 -106t53 -72q14 -10 31 -14.5t29 -14.5q4 -4 4 -16t2 -31q-37 4 -64.5 5t-50.5 7q-201 49 -108 279q16 43 35.5 90t48.5 119q-39 -35 -58.5 -50.5t-31.5 -29.5q-117 -121 -223.5 -245t-202.5 -253q-88 -121 -168 -242.5t-138 -244.5q-33 -70 -44 -132.5z M1520 1262q-20 20 12 57l48.5 48.5t47.5 45.5q27 23 55.5 26t38.5 -16q4 -8 2 -16q-4 -6 -6 -12t-6 -11q-33 -29 -61.5 -55t-63.5 -53q-20 -16 -38.5 -19.5t-28.5 5.5zM2451 2429q-20 25 13 57q23 25 47 48.5t49 45.5q27 23 53.5 25t40.5 -14q4 -8 1 -18.5t-11 -20.5 q-33 -29 -61.5 -55.5t-61.5 -53.5q-20 -16 -39.5 -19t-30.5 5z" />
<glyph unicode="&#xd4;" horiz-adv-x="1783" d="M-121 -371q-10 51 3.5 107.5t43.5 116.5q125 270 332 536q180 229 379 445.5t422 427.5q109 102 209 206.5t192 217.5q178 219 400 403q135 111 267 165t263 44q176 -12 213 -158q35 -166 -55 -364q-23 -55 -50.5 -111t-56.5 -111q-104 -190 -241.5 -369t-286.5 -360 q-281 -330 -602.5 -617.5t-696.5 -535.5q-86 -57 -174 -106t-180 -78q-78 -25 -143.5 -26t-115.5 17.5t-82 56.5t-40 93zM17 -265.5q-11 -62.5 10 -113.5q29 -59 93 -71.5t159 32.5q72 35 142.5 75t139.5 85q182 121 351 255t331 279q254 225 469 465t406 496 q213 285 319 567q35 92 46 175t-9 157q-8 37 -33.5 56.5t-79.5 15.5q-25 -14 -51 -31.5t-51 -24.5q-92 -25 -172 -79t-152 -119q-109 -98 -213 -195.5t-209 -193.5q-92 -82 -163.5 -167t-137.5 -177q-37 -51 -71.5 -101.5t-67.5 -103.5q-53 -84 -97 -166t-67 -164 q-16 -63 -6 -106t53 -72q14 -10 31 -14.5t29 -14.5q4 -4 4 -16t2 -31q-37 4 -64.5 5t-50.5 7q-201 49 -108 279q16 43 35.5 90t48.5 119q-39 -35 -58.5 -50.5t-31.5 -29.5q-117 -121 -223.5 -245t-202.5 -253q-88 -121 -168 -242.5t-138 -244.5q-33 -70 -44 -132.5z M2444.5 2445q-6.5 10 9.5 37q47 41 78.5 71t62.5 56q41 33 82 39t51 -22q14 -39 19.5 -81t9.5 -85q2 -4 -13.5 -17.5t-27.5 -17.5q-10 -4 -23.5 -5t-21.5 3q-29 16 -60 25.5t-78 -5.5q-10 -2 -29.5 -6t-36 -3t-23 11z" />
<glyph unicode="&#xd5;" horiz-adv-x="1783" d="M-121 -371q-10 51 3.5 107.5t43.5 116.5q125 270 332 536q180 229 379 445.5t422 427.5q109 102 209 206.5t192 217.5q178 219 400 403q135 111 267 165t263 44q176 -12 213 -158q35 -166 -55 -364q-23 -55 -50.5 -111t-56.5 -111q-104 -190 -241.5 -369t-286.5 -360 q-281 -330 -602.5 -617.5t-696.5 -535.5q-86 -57 -174 -106t-180 -78q-78 -25 -143.5 -26t-115.5 17.5t-82 56.5t-40 93zM17 -265.5q-11 -62.5 10 -113.5q29 -59 93 -71.5t159 32.5q72 35 142.5 75t139.5 85q182 121 351 255t331 279q254 225 469 465t406 496 q213 285 319 567q35 92 46 175t-9 157q-8 37 -33.5 56.5t-79.5 15.5q-25 -14 -51 -31.5t-51 -24.5q-92 -25 -172 -79t-152 -119q-109 -98 -213 -195.5t-209 -193.5q-92 -82 -163.5 -167t-137.5 -177q-37 -51 -71.5 -101.5t-67.5 -103.5q-53 -84 -97 -166t-67 -164 q-16 -63 -6 -106t53 -72q14 -10 31 -14.5t29 -14.5q4 -4 4 -16t2 -31q-37 4 -64.5 5t-50.5 7q-201 49 -108 279q16 43 35.5 90t48.5 119q-39 -35 -58.5 -50.5t-31.5 -29.5q-117 -121 -223.5 -245t-202.5 -253q-88 -121 -168 -242.5t-138 -244.5q-33 -70 -44 -132.5z M2376 2447q2 6 8 20.5t14 20.5q29 33 75 53.5t73 10.5q20 -6 26 -27q8 -27 23.5 -25.5t52.5 17.5q16 8 29.5 16.5t29.5 12.5q8 2 12.5 -6.5t2.5 -14.5q2 -4 -8.5 -20.5t-18.5 -22.5q-20 -16 -43.5 -30.5t-45 -23.5t-41 -11t-32.5 8q-10 8 -17.5 27.5t-23.5 15.5 q-14 -4 -29.5 -14.5t-31.5 -18.5q-53 -35 -55 12z" />
<glyph unicode="&#xd6;" horiz-adv-x="1783" d="M-121 -371q-10 51 3.5 107.5t43.5 116.5q125 270 332 536q180 229 379 445.5t422 427.5q109 102 209 206.5t192 217.5q178 219 400 403q135 111 267 165t263 44q176 -12 213 -158q35 -166 -55 -364q-23 -55 -50.5 -111t-56.5 -111q-104 -190 -241.5 -369t-286.5 -360 q-281 -330 -602.5 -617.5t-696.5 -535.5q-86 -57 -174 -106t-180 -78q-78 -25 -143.5 -26t-115.5 17.5t-82 56.5t-40 93zM17 -265.5q-11 -62.5 10 -113.5q29 -59 93 -71.5t159 32.5q72 35 142.5 75t139.5 85q182 121 351 255t331 279q254 225 469 465t406 496 q213 285 319 567q35 92 46 175t-9 157q-8 37 -33.5 56.5t-79.5 15.5q-25 -14 -51 -31.5t-51 -24.5q-92 -25 -172 -79t-152 -119q-109 -98 -213 -195.5t-209 -193.5q-92 -82 -163.5 -167t-137.5 -177q-37 -51 -71.5 -101.5t-67.5 -103.5q-53 -84 -97 -166t-67 -164 q-16 -63 -6 -106t53 -72q14 -10 31 -14.5t29 -14.5q4 -4 4 -16t2 -31q-37 4 -64.5 5t-50.5 7q-201 49 -108 279q16 43 35.5 90t48.5 119q-39 -35 -58.5 -50.5t-31.5 -29.5q-117 -121 -223.5 -245t-202.5 -253q-88 -121 -168 -242.5t-138 -244.5q-33 -70 -44 -132.5z M2342 2486.5q1 14.5 3 28.5q8 27 33.5 45t64.5 14q8 -4 22.5 -12t20.5 -25q6 -10 1 -26.5t-16 -33.5t-26.5 -31.5t-29.5 -20.5q-25 -12 -48.5 -3t-23.5 38q-2 12 -1 26.5zM2565 2486.5q1 14.5 3 28.5q8 27 33.5 45t64.5 14q8 -4 22.5 -12t21.5 -25q6 -10 0.5 -26.5 t-16.5 -33.5t-26.5 -31.5t-29.5 -20.5q-25 -12 -48.5 -3t-23.5 38q-2 12 -1 26.5z" />
<glyph unicode="&#xd8;" horiz-adv-x="1783" d="M-135 -601q-6 26 16 58q10 18 21.5 37t21.5 35q-16 20 -28.5 45t-16.5 55q-10 51 3.5 107.5t43.5 116.5q125 270 332 536q180 229 379 445.5t422 427.5q109 102 209 206.5t192 217.5q178 219 400 403q135 111 267 165t263 44q29 -2 52.5 -7t45.5 -14q6 6 12.5 11.5 t10.5 11.5q14 4 28.5 9t24.5 5q72 4 76 -23.5t-55 -88.5q-2 -2 -2 -4q6 -12 11 -26.5t9 -31.5q35 -165 -55 -364q-23 -55 -50.5 -110.5t-56.5 -111.5q-104 -190 -241.5 -369t-286.5 -360q-281 -330 -602.5 -617.5t-696.5 -535.5q-86 -57 -174 -106t-180 -78 q-72 -23 -134.5 -26t-115.5 14q-6 -8 -11 -15.5t-11 -15.5q-23 -23 -44.5 -43t-49.5 -25q-23 -4 -29 22zM16 -350q80 90 160 177t164 173q57 61 181 191.5t290 304.5q-78 70 -12 227l84 209q-39 -35 -58.5 -50.5t-31.5 -29.5q-117 -121 -223.5 -245t-202.5 -253 q-88 -121 -168 -242.5t-138 -244.5q-27 -59 -40 -114.5t-5 -102.5zM86 -438q70 -39 193 20q72 35 142.5 75t139.5 85q182 121 351 255t331 279q254 225 469.5 465t405.5 496q213 285 319 567q61 160 47 291q-78 -80 -183.5 -189.5t-229 -239.5t-262 -275.5t-282 -296 t-285.5 -301t-275 -289.5q10 -8 24.5 -12.5t24.5 -12.5q4 -4 4 -16t2 -31q-35 4 -62.5 5t-50.5 7q-106 -111 -201.5 -212t-175 -185t-143 -150.5t-102.5 -107.5q-53 -55 -103.5 -112.5t-97.5 -114.5zM901 592q133 139 280.5 293.5t295 311.5t290 307.5t266.5 282.5 t223 239.5t163 177.5q-25 6 -58 4q-25 -14 -51 -31.5t-51 -24.5q-92 -25 -172 -79t-152 -119q-109 -98 -213 -195.5t-209 -193.5q-92 -82 -163.5 -167t-137.5 -177q-37 -51 -71.5 -101.5t-67.5 -103.5q-53 -84 -97 -166t-67 -164q-14 -53 -8 -94z" />
<glyph unicode="&#xd9;" horiz-adv-x="1277" d="M-16 -158q-4 53 15 117t52 133q55 115 124 229.5t153 235.5q86 123 170 244t176 243q160 211 321.5 421t323.5 421q16 23 38.5 44.5t41.5 43.5q82 10 96 -5t-27 -66q-33 -41 -67.5 -80t-65.5 -80q-229 -295 -450 -586t-420 -584q-63 -96 -123.5 -189t-110.5 -185 q-41 -72 -66.5 -140.5t-29.5 -130.5q-4 -23 11.5 -46t33.5 -19q14 4 37 20.5t48.5 39t50 48t44.5 45.5q127 129 250 258t244 261q150 158 293 314.5t293 315.5q117 127 231.5 252t206.5 254q6 8 13 15.5t16 15.5q20 23 52 38t60 19q53 4 35 -37q-16 -29 -35.5 -60.5 t-42.5 -62.5q-166 -236 -329.5 -466t-329.5 -465q-147 -207 -251.5 -402.5t-156.5 -382.5q-2 -8 -7 -15t-9 -15q-74 -43 -102.5 -48.5t-24.5 27.5q6 63 27 123q35 94 81 190.5t113 200.5q119 180 237.5 361.5t250.5 384.5q-172 -186 -325 -355.5t-306 -335.5 q-106 -115 -216 -227.5t-220 -226.5q-27 -27 -58 -53.5t-61 -51.5q-76 -63 -147.5 -86.5t-112.5 4.5q-23 14 -32 36t-13 46zM1837 2148q0 4 4 10.5t6 12.5q8 8 25 20q33 18 60.5 15.5t25.5 -29.5q2 -23 1 -47.5t-5 -48.5q-6 -41 -56 -64q-20 -8 -35.5 -4t-17.5 21 q-6 29 -7 56.5t-1 57.5z" />
<glyph unicode="&#xda;" horiz-adv-x="1277" d="M-16 -158q-4 53 15 117t52 133q55 115 124 229.5t153 235.5q86 123 170 244t176 243q160 211 321.5 421t323.5 421q16 23 38.5 44.5t41.5 43.5q82 10 96 -5t-27 -66q-33 -41 -67.5 -80t-65.5 -80q-229 -295 -450 -586t-420 -584q-63 -96 -123.5 -189t-110.5 -185 q-41 -72 -66.5 -140.5t-29.5 -130.5q-4 -23 11.5 -46t33.5 -19q14 4 37 20.5t48.5 39t50 48t44.5 45.5q127 129 250 258t244 261q150 158 293 314.5t293 315.5q117 127 231.5 252t206.5 254q6 8 13 15.5t16 15.5q20 23 52 38t60 19q53 4 35 -37q-16 -29 -35.5 -60.5 t-42.5 -62.5q-166 -236 -329.5 -466t-329.5 -465q-147 -207 -251.5 -402.5t-156.5 -382.5q-2 -8 -7 -15t-9 -15q-74 -43 -102.5 -48.5t-24.5 27.5q6 63 27 123q35 94 81 190.5t113 200.5q119 180 237.5 361.5t250.5 384.5q-172 -186 -325 -355.5t-306 -335.5 q-106 -115 -216 -227.5t-220 -226.5q-27 -27 -58 -53.5t-61 -51.5q-76 -63 -147.5 -86.5t-112.5 4.5q-23 14 -32 36t-13 46zM1823 2019q-18 25 14 58q47 51 94 94q29 23 55.5 25t38.5 -15q10 -16 -8 -39q-31 -29 -60.5 -55.5t-62.5 -52.5q-20 -16 -39.5 -19.5t-31.5 4.5z " />
<glyph unicode="&#xdb;" horiz-adv-x="1277" d="M-16 -158q-4 53 15 117t52 133q55 115 124 229.5t153 235.5q86 123 170 244t176 243q160 211 321.5 421t323.5 421q16 23 38.5 44.5t41.5 43.5q82 10 96 -5t-27 -66q-33 -41 -67.5 -80t-65.5 -80q-229 -295 -450 -586t-420 -584q-63 -96 -123.5 -189t-110.5 -185 q-41 -72 -66.5 -140.5t-29.5 -130.5q-4 -23 11.5 -46t33.5 -19q14 4 37 20.5t48.5 39t50 48t44.5 45.5q127 129 250 258t244 261q150 158 293 314.5t293 315.5q117 127 231.5 252t206.5 254q6 8 13 15.5t16 15.5q20 23 52 38t60 19q53 4 35 -37q-16 -29 -35.5 -60.5 t-42.5 -62.5q-166 -236 -329.5 -466t-329.5 -465q-147 -207 -251.5 -402.5t-156.5 -382.5q-2 -8 -7 -15t-9 -15q-74 -43 -102.5 -48.5t-24.5 27.5q6 63 27 123q35 94 81 190.5t113 200.5q119 180 237.5 361.5t250.5 384.5q-172 -186 -325 -355.5t-306 -335.5 q-106 -115 -216 -227.5t-220 -226.5q-27 -27 -58 -53.5t-61 -51.5q-76 -63 -147.5 -86.5t-112.5 4.5q-23 14 -32 36t-13 46zM1705 2040q-7 10 9 37q47 41 79 70.5t62 56.5q41 33 82 39t52 -23q14 -39 19 -81t9 -85q2 -4 -14 -17.5t-27 -17.5q-10 -4 -23.5 -5t-21.5 3 q-29 16 -58.5 25.5t-78.5 -4.5q-10 -2 -29.5 -6t-36 -3t-23.5 11z" />
<glyph unicode="&#xdc;" horiz-adv-x="1277" d="M-16 -158q-4 53 15 117t52 133q55 115 124 229.5t153 235.5q86 123 170 244t176 243q160 211 321.5 421t323.5 421q16 23 38.5 44.5t41.5 43.5q82 10 96 -5t-27 -66q-33 -41 -67.5 -80t-65.5 -80q-229 -295 -450 -586t-420 -584q-63 -96 -123.5 -189t-110.5 -185 q-41 -72 -66.5 -140.5t-29.5 -130.5q-4 -23 11.5 -46t33.5 -19q14 4 37 20.5t48.5 39t50 48t44.5 45.5q127 129 250 258t244 261q150 158 293 314.5t293 315.5q117 127 231.5 252t206.5 254q6 8 13 15.5t16 15.5q20 23 52 38t60 19q53 4 35 -37q-16 -29 -35.5 -60.5 t-42.5 -62.5q-166 -236 -329.5 -466t-329.5 -465q-147 -207 -251.5 -402.5t-156.5 -382.5q-2 -8 -7 -15t-9 -15q-74 -43 -102.5 -48.5t-24.5 27.5q6 63 27 123q35 94 81 190.5t113 200.5q119 180 237.5 361.5t250.5 384.5q-172 -186 -325 -355.5t-306 -335.5 q-106 -115 -216 -227.5t-220 -226.5q-27 -27 -58 -53.5t-61 -51.5q-76 -63 -147.5 -86.5t-112.5 4.5q-23 14 -32 36t-13 46zM1718 2076.5q2 14.5 6 28.5q6 27 32 45.5t65 14.5q6 -4 20 -12.5t25 -24.5q4 -10 -1 -26.5t-15.5 -34t-26 -32t-29.5 -20.5q-27 -12 -50.5 -3 t-23.5 38q-4 12 -2 26.5zM1942 2076.5q2 14.5 6 28.5q6 27 31.5 45.5t64.5 14.5q6 -4 20.5 -12.5t24.5 -24.5q4 -10 -1 -26.5t-15.5 -34t-25.5 -32t-30 -20.5q-27 -12 -50 -3t-23 38q-4 12 -2 26.5z" />
<glyph unicode="&#xdd;" horiz-adv-x="1454" d="M442 -784q10 49 31 100q47 121 122 245t161 251q205 305 421 608t472 610q10 12 16 23.5t14 23.5q10 6 15 15q6 2 6 10q-6 -8 -10.5 -14.5t-8.5 -12.5q-18 -10 -38.5 -21.5t-32.5 -23.5q-86 -86 -167 -171t-163 -171q-76 -74 -148.5 -147.5t-146.5 -145.5 q-33 -31 -67.5 -60.5t-69.5 -58.5q-70 -57 -133.5 -89.5t-114.5 -42t-88 6t-53 56.5q-18 53 4 120.5t78 145.5q115 162 229.5 322.5t251.5 326.5q186 221 357 442.5t343 444.5q39 49 67 101.5t66 113.5q-37 -14 -62.5 -22.5t-47.5 -20.5q-176 -100 -320.5 -223t-273.5 -258 q-121 -125 -217 -252t-174 -254q-35 -53 -55.5 -106.5t-49.5 -110.5q-2 -2 -10 -9t-12 -10q-23 -6 -35 -9t-22.5 -2t-20.5 8.5t-29 19.5q80 160 190.5 322.5t258.5 330.5q96 111 200.5 212.5t221.5 199.5q139 119 303 211q33 18 69.5 35.5t69.5 27.5q68 18 108 20.5t54 -12 t7 -45t-32 -73.5q-29 -51 -59.5 -102.5t-69.5 -102.5q-168 -215 -334.5 -428t-341.5 -428q-121 -147 -232.5 -292.5t-207.5 -293.5q-43 -68 -73.5 -132.5t-26.5 -117.5q-2 -16 5 -26.5t11 -20.5q39 4 67.5 26.5t51.5 43.5q111 102 219.5 203.5t210.5 207.5 q195 203 390.5 404t424.5 393q47 41 93 66.5t96 35.5q27 4 37 -11t-7 -38q-14 -20 -28.5 -39.5t-30.5 -40.5q-223 -291 -447.5 -578.5t-443.5 -578.5q-158 -209 -291 -411.5t-248 -407.5q-35 -66 -62.5 -129t-57.5 -129q-27 -57 -89 -78q-41 -12 -67.5 -8t-22.5 25z M2171 2028q-20 20 12 57q25 25 49.5 48.5t46.5 45.5q27 23 54.5 25t40.5 -15q9 -16 -9 -39q-35 -29 -63.5 -55.5t-63.5 -52.5q-20 -16 -38.5 -19.5t-28.5 5.5z" />
<glyph unicode="&#xe0;" d="M-207 172q-2 57 76 127q25 23 48.5 41t47.5 37q106 78 214 142.5t222 113.5q59 27 116.5 44t115.5 32q152 31 158 -84q4 -29 -18.5 -53.5t-70.5 -34.5q-8 0 -18 9t-23.5 20.5t-32 17.5t-42.5 0q-53 -10 -106.5 -28.5t-104.5 -45.5q-43 -23 -72 -40t-55.5 -34.5t-55 -37 t-69.5 -44.5q-6 -4 -26.5 -17t-41 -27.5t-35 -29t-10.5 -22.5q135 35 262 88t232 125q31 20 60.5 32.5t54 17.5t42 2t23.5 -11q0 -16 -10 -37.5t-28.5 -45t-43 -46.5t-53.5 -41q0 -18 11 -30.5t27.5 -19.5t32 -10t25.5 -3q70 4 122 13t126 25q135 29 236.5 55.5t195.5 54.5 t195.5 59.5t238.5 70.5q66 18 119 32.5t111 24.5q8 2 21 2t26.5 -1t21.5 -3t4 -4q-18 -23 -49 -41t-51 -28q-35 -16 -78 -33t-84 -27q-150 -43 -262.5 -77.5t-219 -66.5t-221 -63.5t-266.5 -68.5q-41 -10 -78.5 -16.5t-74.5 -10.5q-53 -6 -101.5 -6t-86 10t-64.5 35t-39 68 q-94 -37 -183 -73t-181 -73q-41 -16 -78 -24.5t-72 -3.5q-78 6 -80 63zM610 969q-1 6 11 22q8 12 22 21q35 18 60.5 15t25.5 -30q4 -23 2 -47t-6 -49q-2 -23 -17.5 -38t-37.5 -25q-18 -8 -36 -4t-20 20q-10 57 -4 115z" />
<glyph unicode="&#xe1;" d="M-207 172q-2 57 76 127q25 23 48.5 41t47.5 37q106 78 214 142.5t222 113.5q59 27 116.5 44t115.5 32q152 31 158 -84q4 -29 -18.5 -53.5t-70.5 -34.5q-8 0 -18 9t-23.5 20.5t-32 17.5t-42.5 0q-53 -10 -106.5 -28.5t-104.5 -45.5q-43 -23 -72 -40t-55.5 -34.5t-55 -37 t-69.5 -44.5q-6 -4 -26.5 -17t-41 -27.5t-35 -29t-10.5 -22.5q135 35 262 88t232 125q31 20 60.5 32.5t54 17.5t42 2t23.5 -11q0 -16 -10 -37.5t-28.5 -45t-43 -46.5t-53.5 -41q0 -18 11 -30.5t27.5 -19.5t32 -10t25.5 -3q70 4 122 13t126 25q135 29 236.5 55.5t195.5 54.5 t195.5 59.5t238.5 70.5q66 18 119 32.5t111 24.5q8 2 21 2t26.5 -1t21.5 -3t4 -4q-18 -23 -49 -41t-51 -28q-35 -16 -78 -33t-84 -27q-150 -43 -262.5 -77.5t-219 -66.5t-221 -63.5t-266.5 -68.5q-41 -10 -78.5 -16.5t-74.5 -10.5q-53 -6 -101.5 -6t-86 10t-64.5 35t-39 68 q-94 -37 -183 -73t-181 -73q-41 -16 -78 -24.5t-72 -3.5q-78 6 -80 63zM575 852q-20 20 13 57q25 25 48 48.5t48 46.5q27 23 54.5 24.5t39.5 -14.5q4 -8 1 -18.5t-11 -20.5q-33 -29 -61.5 -55.5t-63.5 -53.5q-20 -16 -38.5 -19t-29.5 5z" />
<glyph unicode="&#xe2;" d="M-207 172q-2 57 76 127q25 23 48.5 41t47.5 37q106 78 214 142.5t222 113.5q59 27 116.5 44t115.5 32q152 31 158 -84q4 -29 -18.5 -53.5t-70.5 -34.5q-8 0 -18 9t-23.5 20.5t-32 17.5t-42.5 0q-53 -10 -106.5 -28.5t-104.5 -45.5q-43 -23 -72 -40t-55.5 -34.5t-55 -37 t-69.5 -44.5q-6 -4 -26.5 -17t-41 -27.5t-35 -29t-10.5 -22.5q135 35 262 88t232 125q31 20 60.5 32.5t54 17.5t42 2t23.5 -11q0 -16 -10 -37.5t-28.5 -45t-43 -46.5t-53.5 -41q0 -18 11 -30.5t27.5 -19.5t32 -10t25.5 -3q70 4 122 13t126 25q135 29 236.5 55.5t195.5 54.5 t195.5 59.5t238.5 70.5q66 18 119 32.5t111 24.5q8 2 21 2t26.5 -1t21.5 -3t4 -4q-18 -23 -49 -41t-51 -28q-35 -16 -78 -33t-84 -27q-150 -43 -262.5 -77.5t-219 -66.5t-221 -63.5t-266.5 -68.5q-41 -10 -78.5 -16.5t-74.5 -10.5q-53 -6 -101.5 -6t-86 10t-64.5 35t-39 68 q-94 -37 -183 -73t-181 -73q-41 -16 -78 -24.5t-72 -3.5q-78 6 -80 63zM581 848q-7 10 9 37q47 41 78.5 70.5t62.5 56.5q41 33 81 39t50 -23q16 -39 21.5 -81t9.5 -85q0 -4 -14.5 -17.5t-24.5 -17.5q-14 -4 -27.5 -5t-19.5 3q-29 16 -59.5 25.5t-79.5 -4.5q-10 -2 -28.5 -6 t-35 -3t-23.5 11z" />
<glyph unicode="&#xe3;" d="M-207 172q-2 57 76 127q25 23 48.5 41t47.5 37q106 78 214 142.5t222 113.5q59 27 116.5 44t115.5 32q152 31 158 -84q4 -29 -18.5 -53.5t-70.5 -34.5q-8 0 -18 9t-23.5 20.5t-32 17.5t-42.5 0q-53 -10 -106.5 -28.5t-104.5 -45.5q-43 -23 -72 -40t-55.5 -34.5t-55 -37 t-69.5 -44.5q-6 -4 -26.5 -17t-41 -27.5t-35 -29t-10.5 -22.5q135 35 262 88t232 125q31 20 60.5 32.5t54 17.5t42 2t23.5 -11q0 -16 -10 -37.5t-28.5 -45t-43 -46.5t-53.5 -41q0 -18 11 -30.5t27.5 -19.5t32 -10t25.5 -3q70 4 122 13t126 25q135 29 236.5 55.5t195.5 54.5 t195.5 59.5t238.5 70.5q66 18 119 32.5t111 24.5q8 2 21 2t26.5 -1t21.5 -3t4 -4q-18 -23 -49 -41t-51 -28q-35 -16 -78 -33t-84 -27q-150 -43 -262.5 -77.5t-219 -66.5t-221 -63.5t-266.5 -68.5q-41 -10 -78.5 -16.5t-74.5 -10.5q-53 -6 -101.5 -6t-86 10t-64.5 35t-39 68 q-94 -37 -183 -73t-181 -73q-41 -16 -78 -24.5t-72 -3.5q-78 6 -80 63zM629 936q0 6 7 20.5t13 20.5q31 33 77 52.5t71 10.5q23 -6 28 -26q6 -27 22.5 -26t51.5 18q16 8 30.5 16t28.5 12q10 2 12.5 -6t4.5 -14q2 -4 -9.5 -20.5t-19.5 -22.5q-20 -16 -42.5 -30.5t-45 -24 t-41 -11.5t-31.5 8q-10 8 -18.5 27.5t-24.5 15.5q-14 -4 -29.5 -14t-29.5 -18q-27 -16 -42 -13.5t-13 25.5z" />
<glyph unicode="&#xe4;" d="M-207 172q-2 57 76 127q25 23 48.5 41t47.5 37q106 78 214 142.5t222 113.5q59 27 116.5 44t115.5 32q152 31 158 -84q4 -29 -18.5 -53.5t-70.5 -34.5q-8 0 -18 9t-23.5 20.5t-32 17.5t-42.5 0q-53 -10 -106.5 -28.5t-104.5 -45.5q-43 -23 -72 -40t-55.5 -34.5t-55 -37 t-69.5 -44.5q-6 -4 -26.5 -17t-41 -27.5t-35 -29t-10.5 -22.5q135 35 262 88t232 125q31 20 60.5 32.5t54 17.5t42 2t23.5 -11q0 -16 -10 -37.5t-28.5 -45t-43 -46.5t-53.5 -41q0 -18 11 -30.5t27.5 -19.5t32 -10t25.5 -3q70 4 122 13t126 25q135 29 236.5 55.5t195.5 54.5 t195.5 59.5t238.5 70.5q66 18 119 32.5t111 24.5q8 2 21 2t26.5 -1t21.5 -3t4 -4q-18 -23 -49 -41t-51 -28q-35 -16 -78 -33t-84 -27q-150 -43 -262.5 -77.5t-219 -66.5t-221 -63.5t-266.5 -68.5q-41 -10 -78.5 -16.5t-74.5 -10.5q-53 -6 -101.5 -6t-86 10t-64.5 35t-39 68 q-94 -37 -183 -73t-181 -73q-41 -16 -78 -24.5t-72 -3.5q-78 6 -80 63zM559 933.5q2 14.5 4 29.5q6 27 32.5 45t63.5 14q8 -4 22.5 -12.5t23.5 -24.5q4 -10 -1.5 -26.5t-15.5 -34t-24.5 -31.5t-28.5 -21q-29 -12 -52.5 -2.5t-21.5 37.5q-4 12 -2 26.5zM782 933.5 q2 14.5 4 29.5q6 27 33 45t64 14q8 -4 22.5 -12.5t22.5 -24.5q4 -10 -1 -26.5t-15.5 -34t-25 -31.5t-28.5 -21q-29 -12 -52.5 -2.5t-21.5 37.5q-4 12 -2 26.5z" />
<glyph unicode="&#xe5;" d="M-207 172q-2 57 76 127q25 23 48.5 41t47.5 37q106 78 214 142.5t222 113.5q59 27 116.5 44t115.5 32q152 31 158 -84q4 -29 -18.5 -53.5t-70.5 -34.5q-8 0 -18 9t-23.5 20.5t-32 17.5t-42.5 0q-53 -10 -106.5 -28.5t-104.5 -45.5q-43 -23 -72 -40t-55.5 -34.5t-55 -37 t-69.5 -44.5q-6 -4 -26.5 -17t-41 -27.5t-35 -29t-10.5 -22.5q135 35 262 88t232 125q31 20 60.5 32.5t54 17.5t42 2t23.5 -11q0 -16 -10 -37.5t-28.5 -45t-43 -46.5t-53.5 -41q0 -18 11 -30.5t27.5 -19.5t32 -10t25.5 -3q70 4 122 13t126 25q135 29 236.5 55.5t195.5 54.5 t195.5 59.5t238.5 70.5q66 18 119 32.5t111 24.5q8 2 21 2t26.5 -1t21.5 -3t4 -4q-18 -23 -49 -41t-51 -28q-35 -16 -78 -33t-84 -27q-150 -43 -262.5 -77.5t-219 -66.5t-221 -63.5t-266.5 -68.5q-41 -10 -78.5 -16.5t-74.5 -10.5q-53 -6 -101.5 -6t-86 10t-64.5 35t-39 68 q-94 -37 -183 -73t-181 -73q-41 -16 -78 -24.5t-72 -3.5q-78 6 -80 63zM660 860q-7 31 16 66q12 16 27.5 32.5t31.5 32.5q29 29 65 32t52 -32q-4 -10 -3 -31.5t-13 -44.5q-10 -18 -27.5 -36.5t-39 -30.5t-42 -18.5t-33.5 -2.5q-27 2 -34 33zM735 911q0 -6 7.5 -8t15.5 0 q6 4 13 13.5t3 15.5q-2 4 -5 6t-5 6q-23 0 -27 -18q2 -2 0 -6.5t-2 -8.5z" />
<glyph unicode="&#xe7;" horiz-adv-x="1476" d="M-257.5 20.5q-14.5 67.5 60.5 165.5q29 39 64 76t72 70q162 141 338 250.5t366 189.5q23 10 44.5 17.5t43.5 11.5q59 10 101 -2.5t51 -59.5q8 -53 -15.5 -110.5t-91.5 -112.5q-53 -41 -108.5 -79t-110.5 -72q-39 -23 -69.5 -23t-45.5 25q16 41 53 66.5t74 53.5 q45 35 90.5 69t88.5 71q10 10 14 27.5t2 27.5q0 8 -11.5 13t-23.5 1q-35 -10 -69.5 -21t-69.5 -28q-170 -80 -327 -184.5t-296 -237.5q-33 -29 -65.5 -62.5t-40.5 -76.5q10 -33 36.5 -47t63.5 -17.5t80 2t88 13.5q35 6 115 31.5t189.5 64.5t238.5 86t262 95t262 95.5 t238.5 86.5t189.5 65.5t117 34.5q33 8 68.5 16t62.5 -12q12 -10 8 -29.5t-27 -29.5t-57.5 -22.5t-70 -23t-69.5 -20.5t-57 -16q-49 -16 -160.5 -54t-255 -87.5t-305 -104.5t-312 -105.5t-274.5 -90.5t-192 -56q-4 -16 -12 -29.5t-27 -27.5q-31 -27 -61.5 -44.5t-57 -25.5 t-48 -10t-29.5 2q-12 4 -1 15.5t30.5 23.5t39 24.5t23.5 18.5q8 10 10 18t2 15q-29 -2 -58.5 -1t-57.5 3q-96 10 -110.5 77.5z" />
<glyph unicode="&#xe8;" horiz-adv-x="1382" d="M235.5 329q-14.5 48 26.5 126q10 18 13.5 34.5t5.5 34t4 34.5t12 38q92 59 182 129t207 139q109 49 179.5 56.5t135.5 -15.5q55 -20 85 -56t4 -108q-31 -37 -69 -56t-75 -34q-197 -72 -368 -90q-31 -4 -60.5 -8t-64.5 -8q-53 -51 -84 -89t-23 -73t38 -51.5t77 -14.5 q88 4 190.5 14.5t208 27t207.5 38t190 45.5q68 20 121.5 36t99.5 31t92 31.5t101 37.5q27 10 53.5 18t53.5 18q25 -4 18.5 -29.5t-33.5 -39.5q-129 -70 -296 -123t-339 -93t-334.5 -64.5t-281.5 -37.5q-61 -6 -112.5 -1t-92.5 28q-57 27 -71.5 75zM614 666q76 10 121 17 t77 16.5t60.5 24.5t75.5 44q-35 61 -109.5 39t-224.5 -141zM893 1126q0 4 3 10.5t7 12.5q4 4 10.5 10t12.5 10q35 18 61.5 15.5t26.5 -29.5q2 -23 0 -47.5t-4 -48.5q-4 -23 -19.5 -38t-38.5 -26q-18 -8 -34.5 -4t-18.5 21q-8 55 -6 114z" />
<glyph unicode="&#xe9;" horiz-adv-x="1382" d="M235.5 329q-14.5 48 26.5 126q10 18 13.5 34.5t5.5 34t4 34.5t12 38q92 59 182 129t207 139q109 49 179.5 56.5t135.5 -15.5q55 -20 85 -56t4 -108q-31 -37 -69 -56t-75 -34q-197 -72 -368 -90q-31 -4 -60.5 -8t-64.5 -8q-53 -51 -84 -89t-23 -73t38 -51.5t77 -14.5 q88 4 190.5 14.5t208 27t207.5 38t190 45.5q68 20 121.5 36t99.5 31t92 31.5t101 37.5q27 10 53.5 18t53.5 18q25 -4 18.5 -29.5t-33.5 -39.5q-129 -70 -296 -123t-339 -93t-334.5 -64.5t-281.5 -37.5q-61 -6 -112.5 -1t-92.5 28q-57 27 -71.5 75zM614 666q76 10 121 17 t77 16.5t60.5 24.5t75.5 44q-35 61 -109.5 39t-224.5 -141zM899 1010q-20 23 12 57q25 25 49.5 48.5t47.5 45.5q27 23 54.5 25t39.5 -15q10 -15 -8 -38q-33 -29 -61.5 -55.5t-63.5 -53.5q-20 -16 -39 -19.5t-31 5.5z" />
<glyph unicode="&#xea;" horiz-adv-x="1382" d="M235.5 329q-14.5 48 26.5 126q10 18 13.5 34.5t5.5 34t4 34.5t12 38q92 59 182 129t207 139q109 49 179.5 56.5t135.5 -15.5q55 -20 85 -56t4 -108q-31 -37 -69 -56t-75 -34q-197 -72 -368 -90q-31 -4 -60.5 -8t-64.5 -8q-53 -51 -84 -89t-23 -73t38 -51.5t77 -14.5 q88 4 190.5 14.5t208 27t207.5 38t190 45.5q68 20 121.5 36t99.5 31t92 31.5t101 37.5q27 10 53.5 18t53.5 18q25 -4 18.5 -29.5t-33.5 -39.5q-129 -70 -296 -123t-339 -93t-334.5 -64.5t-281.5 -37.5q-61 -6 -112.5 -1t-92.5 28q-57 27 -71.5 75zM614 666q76 10 121 17 t77 16.5t60.5 24.5t75.5 44q-35 61 -109.5 39t-224.5 -141zM827 1020q-7 10 7 37q47 41 79.5 70.5t63.5 56.5q41 33 81 39t52 -23q14 -39 18.5 -81t10.5 -85q2 -4 -13.5 -17t-25.5 -18q-12 -4 -25.5 -5t-21.5 3q-29 16 -58.5 25.5t-81.5 -4.5q-10 -2 -28.5 -6t-34.5 -3 t-23 11z" />
<glyph unicode="&#xeb;" horiz-adv-x="1382" d="M235.5 329q-14.5 48 26.5 126q10 18 13.5 34.5t5.5 34t4 34.5t12 38q92 59 182 129t207 139q109 49 179.5 56.5t135.5 -15.5q55 -20 85 -56t4 -108q-31 -37 -69 -56t-75 -34q-197 -72 -368 -90q-31 -4 -60.5 -8t-64.5 -8q-53 -51 -84 -89t-23 -73t38 -51.5t77 -14.5 q88 4 190.5 14.5t208 27t207.5 38t190 45.5q68 20 121.5 36t99.5 31t92 31.5t101 37.5q27 10 53.5 18t53.5 18q25 -4 18.5 -29.5t-33.5 -39.5q-129 -70 -296 -123t-339 -93t-334.5 -64.5t-281.5 -37.5q-61 -6 -112.5 -1t-92.5 28q-57 27 -71.5 75zM614 666q76 10 121 17 t77 16.5t60.5 24.5t75.5 44q-35 61 -109.5 39t-224.5 -141zM857 1089.5q3 14.5 5 28.5q6 27 33 45.5t66 14.5q6 -4 20 -12.5t23 -24.5q4 -10 -1.5 -26.5t-15.5 -34t-25.5 -32t-29.5 -20.5q-27 -12 -49.5 -3t-24.5 38q-4 12 -1 26.5zM1080 1089.5q3 14.5 5 28.5q6 27 33 45.5 t66 14.5q6 -4 20.5 -12.5t22.5 -24.5q4 -10 -1 -26.5t-15.5 -34t-26 -32t-29.5 -20.5q-27 -12 -49.5 -3t-24.5 38q-4 12 -1 26.5z" />
<glyph unicode="&#xec;" horiz-adv-x="1107" d="M169 251.5q-19 57.5 26 147.5q29 53 59.5 109.5t83.5 116.5q33 16 61.5 13t34.5 -13q8 -10 -2 -32t-31 -50q-16 -23 -30.5 -46.5t-30.5 -47.5q-29 -47 -44 -97.5t-5 -72.5q41 -16 92 -13.5t104 13.5q180 31 360.5 86t366.5 127q29 12 63 28.5t67.5 33.5t67.5 32.5 t63 25.5q8 2 20 3t21.5 -4t10.5 -14t-11 -24q-29 -20 -47.5 -33.5t-34.5 -21.5q-502 -252 -977 -334q-51 -10 -99.5 -10t-89.5 6q-80 14 -99 71.5zM512 969q-2 6 10 22q8 12 23 21q35 18 60.5 15t25.5 -30q4 -23 2 -47t-6 -49q-2 -23 -17.5 -38t-38.5 -25q-18 -8 -35.5 -4 t-19.5 20q-10 57 -4 115z" />
<glyph unicode="&#xed;" horiz-adv-x="1107" d="M169 252q19 -57 99 -72q41 -6 89.5 -6t99.5 10q475 82 977 334q16 8 34.5 21.5t47.5 33.5q12 14 11 23.5t-10.5 14.5t-21.5 4t-20 -3q-29 -10 -63 -25.5t-67.5 -32.5t-67.5 -33.5t-63 -28.5q-186 -72 -366 -127.5t-361 -85.5q-53 -10 -104 -13.5t-92 13.5q-10 23 5 72.5 t44 97.5q16 25 30.5 48t30.5 46q20 29 30.5 50t2.5 32q-6 10 -34.5 13t-61.5 -13q-53 -59 -84 -115.5t-59 -110.5q-45 -90 -26 -147zM498 852q-20 20 12 57l48.5 48.5t47.5 46.5q27 23 54.5 24.5t39.5 -14.5q4 -8 1 -18.5t-11 -20.5q-33 -29 -61.5 -55.5t-63.5 -53.5 q-20 -16 -38.5 -19t-28.5 5z" />
<glyph unicode="&#xee;" horiz-adv-x="1107" d="M169 252q19 -57 99 -72q41 -6 89.5 -6t99.5 10q475 82 977 334q16 8 34.5 21.5t47.5 33.5q12 14 11 23.5t-10.5 14.5t-21.5 4t-20 -3q-29 -10 -63 -25.5t-67.5 -32.5t-67.5 -33.5t-63 -28.5q-186 -72 -366 -127.5t-361 -85.5q-53 -10 -104 -13.5t-92 13.5q-10 23 5 72.5 t44 97.5q16 25 30.5 48t30.5 46q20 29 30.5 50t2.5 32q-6 10 -34.5 13t-61.5 -13q-53 -59 -84 -115.5t-59 -110.5q-45 -90 -26 -147zM388 848q-7 10 9 37q47 41 79 70.5t63 56.5q41 33 80.5 39t50.5 -23q16 -39 21 -81t9 -85q0 -4 -14 -17.5t-24 -17.5q-14 -4 -27.5 -5 t-20.5 3q-29 16 -59.5 25.5t-79.5 -4.5q-10 -2 -28.5 -6t-35 -3t-23.5 11z" />
<glyph unicode="&#xef;" horiz-adv-x="1107" d="M169 252q19 -57 99 -72q41 -6 89.5 -6t99.5 10q475 82 977 334q16 8 34.5 21.5t47.5 33.5q12 14 11 23.5t-10.5 14.5t-21.5 4t-20 -3q-29 -10 -63 -25.5t-67.5 -32.5t-67.5 -33.5t-63 -28.5q-186 -72 -366 -127.5t-361 -85.5q-53 -10 -104 -13.5t-92 13.5q-10 23 5 72.5 t44 97.5q16 25 30.5 48t30.5 46q20 29 30.5 50t2.5 32q-6 10 -34.5 13t-61.5 -13q-53 -59 -84 -115.5t-59 -110.5q-45 -90 -26 -147zM379 933.5q2 14.5 4 29.5q6 27 32.5 45t63.5 14q8 -4 22.5 -12.5t22.5 -24.5q4 -10 -1 -26.5t-15 -34t-24.5 -31.5t-28.5 -21 q-29 -12 -52.5 -2.5t-21.5 37.5q-4 12 -2 26.5zM602 933.5q2 14.5 4 29.5q6 27 32.5 45t63.5 14q8 -4 22.5 -12.5t23.5 -24.5q4 -10 -1.5 -26.5t-15.5 -34t-24.5 -31.5t-28.5 -21q-29 -12 -52.5 -2.5t-21.5 37.5q-4 12 -2 26.5z" />
<glyph unicode="&#xf1;" horiz-adv-x="1579" d="M184 375q23 47 51.5 95t59.5 95q25 33 39 52.5t27.5 38t29 39t41.5 57.5q18 4 39 10t37 2q35 -6 38 -25.5t-18 -50.5q-14 -20 -18 -26.5t-7 -9.5t-7 -9t-19 -27q-10 -16 -2 -14t22.5 11.5t32 20.5t25.5 17q27 18 50.5 37t49.5 35q92 53 154.5 41t62.5 -84q0 -23 -3 -44.5 t-7 -43.5q-10 -86 36 -126t138 -42q47 0 98.5 7t102.5 20q141 31 280.5 64.5t280.5 68.5q43 10 88 18t86 14q10 2 20.5 -2t8.5 -14q-16 -35 -42 -46t-48 -17q-127 -35 -251 -70t-249 -68q-59 -16 -119.5 -27.5t-120.5 -21.5q-219 -41 -324.5 17.5t-125.5 228.5v25.5 t-14 11.5q-59 -31 -102.5 -73t-88.5 -83q-41 -39 -81 -78t-83 -77q-31 -29 -64.5 -46.5t-68.5 -9.5q-82 18 -35 109zM651 936q0 6 7.5 20.5t13.5 20.5q31 33 77 52.5t70 10.5q23 -6 29 -26q6 -27 22.5 -26t51.5 18q16 8 30.5 16t28.5 12q10 2 12 -6t4 -14q2 -4 -9 -20.5 t-19 -22.5q-20 -16 -43 -30.5t-45.5 -24t-41 -11.5t-30.5 8q-10 8 -18.5 27.5t-24.5 15.5q-14 -4 -29.5 -14t-29.5 -18q-27 -16 -42.5 -13.5t-13.5 25.5z" />
<glyph unicode="&#xf2;" horiz-adv-x="860" d="M23.5 215q5.5 43 37.5 96q20 31 43 61.5t52 59.5q51 55 104.5 110.5t112.5 116.5q12 10 38.5 10.5t41.5 -1.5q111 -18 215 -40t221 -26q78 -8 166 -2t174 14q20 0 43 -6q10 -8 2 -24q-2 -6 -10.5 -14.5t-16.5 -12.5q-16 -6 -33.5 -13t-31.5 -7q-78 -12 -151 -17.5 t-154 -11.5q-74 -4 -143.5 -5t-131.5 7q-12 -23 -19.5 -37t-13.5 -26.5t-13 -25.5t-19 -30q-59 -94 -143.5 -161.5t-194.5 -102.5q-59 -18 -100.5 -12t-61 31.5t-14 68.5zM154 238q23 4 43 3t39 7q72 29 126 79t93 111q16 25 23 47.5t-9 34.5q-18 12 -44 2t-52 -30 q-72 -53 -127 -114.5t-92 -139.5zM537 969q-2 6 10 22q8 12 22 21q35 18 60.5 15t25.5 -30q4 -23 2 -47t-6 -49q-2 -23 -17.5 -38t-37.5 -25q-18 -8 -35.5 -4t-19.5 20q-10 57 -4 115z" />
<glyph unicode="&#xf3;" horiz-adv-x="860" d="M23.5 215q5.5 43 37.5 96q20 31 43 61.5t52 59.5q51 55 104.5 110.5t112.5 116.5q12 10 38.5 10.5t41.5 -1.5q111 -18 215 -40t221 -26q78 -8 166 -2t174 14q20 0 43 -6q10 -8 2 -24q-2 -6 -10.5 -14.5t-16.5 -12.5q-16 -6 -33.5 -13t-31.5 -7q-78 -12 -151 -17.5 t-154 -11.5q-74 -4 -143.5 -5t-131.5 7q-12 -23 -19.5 -37t-13.5 -26.5t-13 -25.5t-19 -30q-59 -94 -143.5 -161.5t-194.5 -102.5q-59 -18 -100.5 -12t-61 31.5t-14 68.5zM154 238q23 4 43 3t39 7q72 29 126 79t93 111q16 25 23 47.5t-9 34.5q-18 12 -44 2t-52 -30 q-72 -53 -127 -114.5t-92 -139.5zM575 852q-20 20 13 57q25 25 48 48.5t48 46.5q27 23 54.5 24.5t39.5 -14.5q4 -8 1 -18.5t-11 -20.5q-33 -29 -61.5 -55.5t-63.5 -53.5q-20 -16 -38.5 -19t-29.5 5z" />
<glyph unicode="&#xf4;" horiz-adv-x="860" d="M23.5 215q5.5 43 37.5 96q20 31 43 61.5t52 59.5q51 55 104.5 110.5t112.5 116.5q12 10 38.5 10.5t41.5 -1.5q111 -18 215 -40t221 -26q78 -8 166 -2t174 14q20 0 43 -6q10 -8 2 -24q-2 -6 -10.5 -14.5t-16.5 -12.5q-16 -6 -33.5 -13t-31.5 -7q-78 -12 -151 -17.5 t-154 -11.5q-74 -4 -143.5 -5t-131.5 7q-12 -23 -19.5 -37t-13.5 -26.5t-13 -25.5t-19 -30q-59 -94 -143.5 -161.5t-194.5 -102.5q-59 -18 -100.5 -12t-61 31.5t-14 68.5zM154 238q23 4 43 3t39 7q72 29 126 79t93 111q16 25 23 47.5t-9 34.5q-18 12 -44 2t-52 -30 q-72 -53 -127 -114.5t-92 -139.5zM487 848q-7 10 9 37q47 41 78.5 70.5t62.5 56.5q41 33 81 39t50 -23q16 -39 21.5 -81t9.5 -85q0 -4 -14.5 -17.5t-24.5 -17.5q-14 -4 -27.5 -5t-19.5 3q-29 16 -59.5 25.5t-80.5 -4.5q-10 -2 -28.5 -6t-34.5 -3t-23 11z" />
<glyph unicode="&#xf5;" horiz-adv-x="860" d="M23.5 215q5.5 43 37.5 96q20 31 43 61.5t52 59.5q51 55 104.5 110.5t112.5 116.5q12 10 38.5 10.5t41.5 -1.5q111 -18 215 -40t221 -26q78 -8 166 -2t174 14q20 0 43 -6q10 -8 2 -24q-2 -6 -10.5 -14.5t-16.5 -12.5q-16 -6 -33.5 -13t-31.5 -7q-78 -12 -151 -17.5 t-154 -11.5q-74 -4 -143.5 -5t-131.5 7q-12 -23 -19.5 -37t-13.5 -26.5t-13 -25.5t-19 -30q-59 -94 -143.5 -161.5t-194.5 -102.5q-59 -18 -100.5 -12t-61 31.5t-14 68.5zM154 238q23 4 43 3t39 7q72 29 126 79t93 111q16 25 23 47.5t-9 34.5q-18 12 -44 2t-52 -30 q-72 -53 -127 -114.5t-92 -139.5zM551 936q0 6 7 20.5t13 20.5q31 33 77 52.5t71 10.5q23 -6 29 -26q6 -27 22 -26t51 18q16 8 30.5 16t29.5 12q10 2 12 -6t4 -14q2 -4 -9 -20.5t-20 -22.5q-20 -16 -42.5 -30.5t-45 -24t-41 -11.5t-30.5 8q-10 8 -18.5 27.5t-24.5 15.5 q-14 -4 -29.5 -14t-30.5 -18q-27 -16 -42 -13.5t-13 25.5z" />
<glyph unicode="&#xf6;" horiz-adv-x="860" d="M23.5 215q5.5 43 37.5 96q20 31 43 61.5t52 59.5q51 55 104.5 110.5t112.5 116.5q12 10 38.5 10.5t41.5 -1.5q111 -18 215 -40t221 -26q78 -8 166 -2t174 14q20 0 43 -6q10 -8 2 -24q-2 -6 -10.5 -14.5t-16.5 -12.5q-16 -6 -33.5 -13t-31.5 -7q-78 -12 -151 -17.5 t-154 -11.5q-74 -4 -143.5 -5t-131.5 7q-12 -23 -19.5 -37t-13.5 -26.5t-13 -25.5t-19 -30q-59 -94 -143.5 -161.5t-194.5 -102.5q-59 -18 -100.5 -12t-61 31.5t-14 68.5zM154 238q23 4 43 3t39 7q72 29 126 79t93 111q16 25 23 47.5t-9 34.5q-18 12 -44 2t-52 -30 q-72 -53 -127 -114.5t-92 -139.5zM518 933.5q2 14.5 4 29.5q6 27 32.5 45t63.5 14q8 -4 22.5 -12.5t23.5 -24.5q4 -10 -1.5 -26.5t-15.5 -34t-24.5 -31.5t-28.5 -21q-29 -12 -52.5 -2.5t-21.5 37.5q-4 12 -2 26.5zM741 933.5q2 14.5 4 29.5q6 27 33 45t64 14 q8 -4 22.5 -12.5t22.5 -24.5q4 -10 -1 -26.5t-15.5 -34t-25 -31.5t-28.5 -21q-29 -12 -52.5 -2.5t-21.5 37.5q-4 12 -2 26.5z" />
<glyph unicode="&#xf7;" horiz-adv-x="464" d="M281 254q-2 12 0 26.5t2 28.5q8 27 34.5 45.5t63.5 14.5q8 -4 22.5 -12.5t20.5 -24.5q6 -10 1 -26.5t-16.5 -34t-26.5 -32t-30 -20.5q-25 -12 -48 -3t-23 38zM297 459q-2 10 6 27.5t19 29.5q6 8 23 14.5t28 4.5q35 -4 70.5 -12.5t70.5 -12.5q27 -4 54.5 -4t52.5 -6 q8 -2 19 -5t20.5 -9.5t12.5 -14.5t-7 -16q-12 -14 -41 -26.5t-41 -12.5q-63 -4 -127 -4t-125 4q-16 0 -23.5 14t-11.5 29zM541 624.5q2 14.5 6 28.5q6 27 31.5 45.5t64.5 14.5q6 -4 20.5 -12.5t24.5 -24.5q4 -10 -1 -26.5t-15 -34t-25.5 -32t-30.5 -20.5q-27 -12 -50 -3 t-23 38q-4 12 -2 26.5z" />
<glyph unicode="&#xf8;" horiz-adv-x="860" d="M-99 -86q-3 16 7 35q16 25 32.5 48t34.5 46q20 23 38 45.5t38 44.5q-29 23 -27.5 70t37.5 108q20 31 43 61.5t52 59.5q51 55 104 110.5t113 116.5q12 10 38.5 10.5t41.5 -1.5q23 -4 45 -8.5t45 -8.5q37 41 71.5 79t69.5 79q6 6 12 11t15 14q6 2 14 5t16 3q82 4 11 -68 q-33 -35 -66 -68.5t-65 -68.5q66 -12 131 -21.5t137 -13.5q78 -8 166 -2t174 14q20 0 43 -6q10 -8 2 -24q-2 -6 -10.5 -14.5t-16.5 -12.5q-16 -6 -33.5 -13t-31.5 -7q-78 -12 -151 -17.5t-154 -11.5q-74 -4 -143.5 -5t-131.5 7q-12 -23 -19.5 -37t-13.5 -26.5t-13 -25.5 t-19 -30q-59 -94 -143.5 -161.5t-194.5 -102.5q-41 -12 -80 -12q-39 -43 -74 -86l-70 -86q-12 -14 -25 -25.5t-32 -15.5q-14 -4 -17 12zM160 250q6 8 20 22q59 63 118.5 125t119.5 123q-10 -4 -22.5 -11t-22.5 -17q-70 -51 -124 -110.5t-89 -131.5zM256 258q66 31 115 77 t84 103q10 14 16 27.5t10 26.5q-57 -59 -113.5 -117t-111.5 -117z" />
<glyph unicode="&#xf9;" horiz-adv-x="1159" d="M99 242.5q18 60.5 57 126.5q41 72 93 141.5t109 138.5q92 23 109.5 7.5t-27.5 -74.5q-57 -72 -109 -141.5t-77 -139.5q-6 -16 -9 -32.5t-7 -32.5q41 4 65.5 25.5t42.5 43.5q70 84 142.5 165t152.5 159q88 23 108.5 14.5t4.5 -53.5q-2 -8 -5.5 -15.5t-7.5 -15.5 q-39 -100 -8 -125.5t160 6.5q47 12 81 20.5t64.5 15.5t65.5 14.5t84 19.5t85 21.5t68.5 18.5t65.5 20.5t76 25.5q20 6 39.5 12t36.5 8q10 2 14 -5t8 -13q2 -4 -7 -14.5t-15 -14.5q-27 -16 -68 -32.5t-64 -26.5q-70 -25 -130 -44.5t-119.5 -36.5t-126 -35.5t-148.5 -39.5 q-104 -29 -184 -28.5t-127 43.5q-6 4 -17.5 6t-25.5 6q-41 -45 -80 -87t-80 -83q-98 -94 -177 -113.5t-108 39.5q-23 45 -5 105.5zM647 969q-2 6 10 22q8 12 23 21q35 18 60.5 15t25.5 -30q4 -23 2 -47t-6 -49q-2 -23 -17.5 -38t-37.5 -25q-18 -8 -36 -4t-20 20 q-10 57 -4 115z" />
<glyph unicode="&#xfa;" horiz-adv-x="1159" d="M99 242.5q18 60.5 57 126.5q41 72 93 141.5t109 138.5q92 23 109.5 7.5t-27.5 -74.5q-57 -72 -109 -141.5t-77 -139.5q-6 -16 -9 -32.5t-7 -32.5q41 4 65.5 25.5t42.5 43.5q70 84 142.5 165t152.5 159q88 23 108.5 14.5t4.5 -53.5q-2 -8 -5.5 -15.5t-7.5 -15.5 q-39 -100 -8 -125.5t160 6.5q47 12 81 20.5t64.5 15.5t65.5 14.5t84 19.5t85 21.5t68.5 18.5t65.5 20.5t76 25.5q20 6 39.5 12t36.5 8q10 2 14 -5t8 -13q2 -4 -7 -14.5t-15 -14.5q-27 -16 -68 -32.5t-64 -26.5q-70 -25 -130 -44.5t-119.5 -36.5t-126 -35.5t-148.5 -39.5 q-104 -29 -184 -28.5t-127 43.5q-6 4 -17.5 6t-25.5 6q-41 -45 -80 -87t-80 -83q-98 -94 -177 -113.5t-108 39.5q-23 45 -5 105.5zM657 852q-20 20 13 57q25 25 48 48.5t48 46.5q27 23 54.5 24.5t39.5 -14.5q4 -8 1 -18.5t-11 -20.5q-33 -29 -61.5 -55.5t-63.5 -53.5 q-20 -16 -38.5 -19t-29.5 5z" />
<glyph unicode="&#xfb;" horiz-adv-x="1159" d="M99 242.5q18 60.5 57 126.5q41 72 93 141.5t109 138.5q92 23 109.5 7.5t-27.5 -74.5q-57 -72 -109 -141.5t-77 -139.5q-6 -16 -9 -32.5t-7 -32.5q41 4 65.5 25.5t42.5 43.5q70 84 142.5 165t152.5 159q88 23 108.5 14.5t4.5 -53.5q-2 -8 -5.5 -15.5t-7.5 -15.5 q-39 -100 -8 -125.5t160 6.5q47 12 81 20.5t64.5 15.5t65.5 14.5t84 19.5t85 21.5t68.5 18.5t65.5 20.5t76 25.5q20 6 39.5 12t36.5 8q10 2 14 -5t8 -13q2 -4 -7 -14.5t-15 -14.5q-27 -16 -68 -32.5t-64 -26.5q-70 -25 -130 -44.5t-119.5 -36.5t-126 -35.5t-148.5 -39.5 q-104 -29 -184 -28.5t-127 43.5q-6 4 -17.5 6t-25.5 6q-41 -45 -80 -87t-80 -83q-98 -94 -177 -113.5t-108 39.5q-23 45 -5 105.5zM538 848q-7 10 9 37q47 41 78.5 70.5t62.5 56.5q41 33 81 39t50 -23q16 -39 21.5 -81t9.5 -85q0 -4 -14.5 -17.5t-24.5 -17.5 q-14 -4 -27.5 -5t-19.5 3q-29 16 -59.5 25.5t-79.5 -4.5q-10 -2 -28.5 -6t-35 -3t-23.5 11z" />
<glyph unicode="&#xfc;" horiz-adv-x="1159" d="M99 242.5q18 60.5 57 126.5q41 72 93 141.5t109 138.5q92 23 109.5 7.5t-27.5 -74.5q-57 -72 -109 -141.5t-77 -139.5q-6 -16 -9 -32.5t-7 -32.5q41 4 65.5 25.5t42.5 43.5q70 84 142.5 165t152.5 159q88 23 108.5 14.5t4.5 -53.5q-2 -8 -5.5 -15.5t-7.5 -15.5 q-39 -100 -8 -125.5t160 6.5q47 12 81 20.5t64.5 15.5t65.5 14.5t84 19.5t85 21.5t68.5 18.5t65.5 20.5t76 25.5q20 6 39.5 12t36.5 8q10 2 14 -5t8 -13q2 -4 -7 -14.5t-15 -14.5q-27 -16 -68 -32.5t-64 -26.5q-70 -25 -130 -44.5t-119.5 -36.5t-126 -35.5t-148.5 -39.5 q-104 -29 -184 -28.5t-127 43.5q-6 4 -17.5 6t-25.5 6q-41 -45 -80 -87t-80 -83q-98 -94 -177 -113.5t-108 39.5q-23 45 -5 105.5zM559 933.5q2 14.5 4 29.5q6 27 32.5 45t63.5 14q8 -4 22.5 -12.5t23.5 -24.5q4 -10 -1.5 -26.5t-15.5 -34t-24.5 -31.5t-28.5 -21 q-29 -12 -52.5 -2.5t-21.5 37.5q-4 12 -2 26.5zM782 933.5q2 14.5 4 29.5q6 27 33 45t64 14q8 -4 22.5 -12.5t22.5 -24.5q4 -10 -1 -26.5t-15.5 -34t-25 -31.5t-28.5 -21q-29 -12 -52.5 -2.5t-21.5 37.5q-4 12 -2 26.5z" />
<glyph unicode="&#xfd;" horiz-adv-x="1308" d="M97.5 184q-31.5 41 21.5 129q18 31 41.5 62t46.5 63q27 37 39 53.5t20 30t19.5 30.5t38.5 54q45 63 82.5 77t80.5 -19q-37 -66 -67.5 -109t-60 -84t-62.5 -88t-72 -117q-4 -6 4.5 -6t21.5 5t27.5 11.5t20.5 10.5q178 115 355 225.5t337 251.5q41 29 80 45t68 0 q43 -25 14 -86q-43 -86 -85 -173t-83 -173q-8 -16 -13 -33.5t-16 -42.5q33 10 56.5 18.5t50.5 18.5q37 18 114.5 54t163.5 75t164 75t115 54q27 12 53.5 19.5t48.5 -11.5q10 -16 -2 -28.5t-28 -22.5q-76 -41 -163 -80t-165 -80q-16 -10 -73.5 -37.5t-123 -59.5t-123 -59.5 t-75.5 -35.5q-53 -27 -90 -63t-72 -83q-96 -141 -215 -276q-47 -57 -102.5 -82t-112.5 -23q-72 4 -39 80q23 47 55.5 94.5t79.5 88.5q41 39 84 75.5t90 69.5q55 41 91 84t59 92q37 78 73.5 157t71.5 154q-27 10 -50.5 -3t-39.5 -25q-104 -68 -206.5 -135.5t-209.5 -137.5 q-53 -35 -106.5 -61.5t-106.5 -40.5q-94 -23 -125.5 18zM803 852q-20 20 12 57l48.5 48.5t47.5 46.5q27 23 54.5 24.5t40.5 -14.5q4 -8 0.5 -18.5t-11.5 -20.5q-33 -29 -61.5 -55.5t-63.5 -53.5q-20 -16 -38.5 -19t-28.5 5z" />
<glyph unicode="&#xff;" horiz-adv-x="1308" d="M97.5 184q-31.5 41 21.5 129q18 31 41.5 62t46.5 63q27 37 39 53.5t20 30t19.5 30.5t38.5 54q45 63 82.5 77t80.5 -19q-37 -66 -67.5 -109t-60 -84t-62.5 -88t-72 -117q-4 -6 4.5 -6t21.5 5t27.5 11.5t20.5 10.5q178 115 355 225.5t337 251.5q41 29 80 45t68 0 q43 -25 14 -86q-43 -86 -85 -173t-83 -173q-8 -16 -13 -33.5t-16 -42.5q33 10 56.5 18.5t50.5 18.5q37 18 114.5 54t163.5 75t164 75t115 54q27 12 53.5 19.5t48.5 -11.5q10 -16 -2 -28.5t-28 -22.5q-76 -41 -163 -80t-165 -80q-16 -10 -73.5 -37.5t-123 -59.5t-123 -59.5 t-75.5 -35.5q-53 -27 -90 -63t-72 -83q-96 -141 -215 -276q-47 -57 -102.5 -82t-112.5 -23q-72 4 -39 80q23 47 55.5 94.5t79.5 88.5q41 39 84 75.5t90 69.5q55 41 91 84t59 92q37 78 73.5 157t71.5 154q-27 10 -50.5 -3t-39.5 -25q-104 -68 -206.5 -135.5t-209.5 -137.5 q-53 -35 -106.5 -61.5t-106.5 -40.5q-94 -23 -125.5 18zM705 933.5q2 14.5 4 29.5q6 27 32.5 45t63.5 14q8 -4 22.5 -12.5t22.5 -24.5q4 -10 -1 -26.5t-15.5 -34t-24.5 -31.5t-29 -21q-29 -12 -52 -2.5t-21 37.5q-4 12 -2 26.5zM928 933.5q2 14.5 4 29.5q6 27 32.5 45 t63.5 14q8 -4 22.5 -12.5t22.5 -24.5q4 -10 -1 -26.5t-15 -34t-24.5 -31.5t-28.5 -21q-29 -12 -52.5 -2.5t-21.5 37.5q-4 12 -2 26.5z" />
<glyph unicode="&#x178;" horiz-adv-x="1454" d="M442 -784q10 49 31 100q47 121 122 245t161 251q205 305 421 608t472 610q10 12 16 23.5t14 23.5q10 6 15 15q6 2 6 10q-6 -8 -10.5 -14.5t-8.5 -12.5q-18 -10 -38.5 -21.5t-32.5 -23.5q-86 -86 -167 -171t-163 -171q-76 -74 -148.5 -147.5t-146.5 -145.5 q-33 -31 -67.5 -60.5t-69.5 -58.5q-70 -57 -133.5 -89.5t-114.5 -42t-88 6t-53 56.5q-18 53 4 120.5t78 145.5q115 162 229.5 322.5t251.5 326.5q186 221 357 442.5t343 444.5q39 49 67 101.5t66 113.5q-37 -14 -62.5 -22.5t-47.5 -20.5q-176 -100 -320.5 -223t-273.5 -258 q-121 -125 -217 -252t-174 -254q-35 -53 -55.5 -106.5t-49.5 -110.5q-2 -2 -10 -9t-12 -10q-23 -6 -35 -9t-22.5 -2t-20.5 8.5t-29 19.5q80 160 190.5 322.5t258.5 330.5q96 111 200.5 212.5t221.5 199.5q139 119 303 211q33 18 69.5 35.5t69.5 27.5q68 18 108 20.5t54 -12 t7 -45t-32 -73.5q-29 -51 -59.5 -102.5t-69.5 -102.5q-168 -215 -334.5 -428t-341.5 -428q-121 -147 -232.5 -292.5t-207.5 -293.5q-43 -68 -73.5 -132.5t-26.5 -117.5q-2 -16 5 -26.5t11 -20.5q39 4 67.5 26.5t51.5 43.5q111 102 219.5 203.5t210.5 207.5 q195 203 390.5 404t424.5 393q47 41 93 66.5t96 35.5q27 4 37 -11t-7 -38q-14 -20 -28.5 -39.5t-30.5 -40.5q-223 -291 -447.5 -578.5t-443.5 -578.5q-158 -209 -291 -411.5t-248 -407.5q-35 -66 -62.5 -129t-57.5 -129q-27 -57 -89 -78q-41 -12 -67.5 -8t-22.5 25z M2052 2076.5q2 14.5 6 28.5q6 27 31.5 45.5t64.5 14.5q6 -4 20.5 -12.5t25.5 -24.5q4 -10 -1.5 -26.5t-15.5 -34t-25.5 -32t-29.5 -20.5q-27 -12 -50.5 -3t-23.5 38q-4 12 -2 26.5zM2275 2076.5q2 14.5 6 28.5q6 27 32 45.5t65 14.5q6 -4 20.5 -12.5t24.5 -24.5 q4 -10 -1 -26.5t-15.5 -34t-26 -32t-29.5 -20.5q-27 -12 -50.5 -3t-23.5 38q-4 12 -2 26.5z" />
<glyph unicode="&#x2000;" horiz-adv-x="1458" />
<glyph unicode="&#x2001;" horiz-adv-x="2916" />
<glyph unicode="&#x2002;" horiz-adv-x="1458" />
<glyph unicode="&#x2003;" horiz-adv-x="2916" />
<glyph unicode="&#x2004;" horiz-adv-x="972" />
<glyph unicode="&#x2005;" horiz-adv-x="729" />
<glyph unicode="&#x2006;" horiz-adv-x="486" />
<glyph unicode="&#x2007;" horiz-adv-x="486" />
<glyph unicode="&#x2008;" horiz-adv-x="364" />
<glyph unicode="&#x2009;" horiz-adv-x="583" />
<glyph unicode="&#x200a;" horiz-adv-x="162" />
<glyph unicode="&#x202f;" horiz-adv-x="583" />
<glyph unicode="&#x205f;" horiz-adv-x="729" />
<glyph unicode="&#x25fc;" horiz-adv-x="727" d="M0 0v727h727v-727h-727z" />
</font>
</defs>
</svg>
